<svg xmlns="http://www.w3.org/2000/svg" width="40" height="40" viewBox="0 0 40 40">
    <defs>
        <clipPath id="prefix__clip-path">
            <path id="prefix__사각형_4439" d="M0 0H40V40H0z" data-name="사각형 4439" transform="translate(-.206)" style="fill:#ebebeb"/>
        </clipPath>
        <style>
            .prefix__cls-3{fill:#ff9801}.prefix__cls-4{fill:#f57c00}.prefix__cls-6{fill:#fec108}.prefix__cls-9{fill:#ffeb3a}
        </style>
    </defs>
    <g id="prefix__ic_category_4" transform="translate(.206)">
        <g id="prefix__Page-1" transform="translate(-.177)">
            <g id="prefix___026---Poutine" data-name="026---Poutine">
                <path id="prefix__Shape" d="M10.933 16.4h25.334L33.34 26.933a2 2 0 01-1.927 1.467H6.453a2 2 0 01-1.927-1.467L1.6 16.4h5.333" class="prefix__cls-3" transform="translate(1.067 10.933)"/>
                <path id="prefix__Shape-2" d="M23.141 16.4l-2.926 10.533a2 2 0 01-1.927 1.467h2a2 2 0 001.927-1.467L25.141 16.4z" class="prefix__cls-4" data-name="Shape" transform="translate(12.192 10.933)"/>
                <path id="prefix__Shape-3" d="M11.733 17.733h26a1.337 1.337 0 001.334-1.333v-.667a1.337 1.337 0 00-1.334-1.333h-36A1.337 1.337 0 00.4 15.733v.667a1.337 1.337 0 001.333 1.333z" data-name="Shape" transform="translate(.267 9.6)" style="fill:#ffdc00"/>
                <path id="prefix__Shape-4" d="M23.6 14.4h-2a1.337 1.337 0 011.333 1.333v.667a1.337 1.337 0 01-1.333 1.333h2a1.337 1.337 0 001.333-1.333v-.667A1.337 1.337 0 0023.6 14.4z" class="prefix__cls-6" data-name="Shape" transform="translate(14.4 9.6)"/>
                <path id="prefix__Shape-5" d="M37.071 11l-1.36 6.987a.711.711 0 00-.333.113l-.833.54-.893.58-.347.227-1.347.88 1.82-3.773a.9.9 0 00-.407-1.187l-1.113-.533.887-4.593a2.611 2.611 0 00-.56-2.193 2.657 2.657 0 00-2.087-.98H7.9a2.657 2.657 0 00-2.087.98 2.6 2.6 0 00-.56 2.187l1.367 7.073-.473.413-.387.34-1.34-.44-.007-.007-1.549-.514a.662.662 0 00-.36-.013L1.324 11A6.672 6.672 0 017.9 3.067h5.873l.487-1.7A1.328 1.328 0 0115.537.4h7.32a1.328 1.328 0 011.28.967l.487 1.7H30.5A6.672 6.672 0 0137.071 11z" class="prefix__cls-3" data-name="Shape" transform="translate(.803 .267)"/>
                <path id="prefix__Shape-6" d="M14.276 1.367l.487 1.7h2l-.487-1.7A1.328 1.328 0 0015 .4h-2a1.328 1.328 0 011.28.967z" class="prefix__cls-4" data-name="Shape" transform="translate(8.664 .267)"/>
                <path id="prefix__Shape-7" d="M19.58 2h-2a6.672 6.672 0 016.573 7.933l-1.36 6.987a.711.711 0 00-.333.113l-.5.326-.917 1.9 1.347-.88.347-.227.893-.58.833-.54a.711.711 0 01.333-.113l1.36-6.987A6.672 6.672 0 0019.58 2z" class="prefix__cls-4" data-name="Shape" transform="translate(11.72 1.333)"/>
                <path id="prefix__Shape-8" d="M31.546 7.573l-.887 4.593-.753-.36-1.32-.633a.883.883 0 00-1.18.407l-.633 1.32-.007.007-3.353.653a.883.883 0 00-.693 1.033l.667 3.453-2.4-3.713a.875.875 0 00-1.22-.253l-3.02 1.96.173-2.447a.9.9 0 00-.82-.947l-3.528-.246a.9.9 0 00-.94.82l-.293 4.187-.673-.767-2.86-3.267a.885.885 0 00-1.247-.08l-1.54 1.347-1.367-7.073a2.6 2.6 0 01.56-2.187A2.657 2.657 0 016.3 4.4h22.6a2.657 2.657 0 012.087.98 2.611 2.611 0 01.56 2.193z" data-name="Shape" transform="translate(2.401 2.933)" style="fill:#ff5722"/>
                <path id="prefix__Shape-9" d="M19.2 12.315v-.007" data-name="Shape" transform="translate(12.803 8.205)" style="fill:none;stroke:#000;stroke-linecap:round;stroke-linejoin:round;stroke-width:.8px;fill-rule:evenodd"/>
                <g id="prefix__그룹_9421" data-name="그룹 9421">
                    <path id="prefix__Shape-10" d="M5.946 13.439a1.1 1.1 0 00-.14.04 3.348 3.348 0 00-1.78 1.547L2.139 14.4l-.507-.173a.659.659 0 01-.427-.84l.007-.033.82-2.453.013-.04a.652.652 0 01.48-.44.662.662 0 01.36.013l1.547.513.007.007 1.34.44-.26.227a.877.877 0 00-.08 1.24z" class="prefix__cls-9" data-name="Shape" transform="translate(.781 6.934)"/>
                    <path id="prefix__Shape-11" d="M25.333 14.412l-.3.193-1.6 1.047c-.28-.3-.567-.587-.86-.847a4.32 4.32 0 00-3.033-1.12l.133-.28.007-.007.053-.107 1.347-.88.347-.227.893-.58.833-.54a.711.711 0 01.333-.113.687.687 0 01.587.307l1.24 1.907.213.327a.655.655 0 01-.193.92z" class="prefix__cls-9" data-name="Shape" transform="translate(13.027 7.301)"/>
                    <path id="prefix__Shape-12" d="M11.34 13.937l-.073 1.053a1.333 1.333 0 01-.16.027c-1.893.267-3.173-.773-5.06-1.067a2.452 2.452 0 00-.387-.05 4.208 4.208 0 00-.587-.033 2.661 2.661 0 00-.747.1l-.507-.58a.877.877 0 01.08-1.24l.26-.227.387-.34.473-.413L6.56 9.824a.885.885 0 011.247.08l2.86 3.267z" class="prefix__cls-6" data-name="Shape" transform="translate(2.4 6.403)"/>
                    <path id="prefix__Shape-13" d="M13.853 10.394l-.173 2.447-2.473 1.607a21.2 21.2 0 00-2.26.62 4.414 4.414 0 01-.747.193l.073-1.053.293-4.187a.9.9 0 01.94-.82l3.527.247a.9.9 0 01.82.946z" class="prefix__cls-9" data-name="Shape" transform="translate(5.467 6.133)"/>
                    <path id="prefix__Shape-14" d="M19.191 14.587a4.38 4.38 0 01-1.027-.52 1.328 1.328 0 00-.127-.08c-1.653-1.033-3.987-.753-6.18-.473-.18.02-.353.047-.527.073-.453.073-.9.153-1.327.247l2.473-1.607 3.02-1.96a.875.875 0 011.22.253l2.4 3.713.007.007v.007z" class="prefix__cls-6" data-name="Shape" transform="translate(6.669 6.747)"/>
                    <path id="prefix__Shape-15" d="M21.192 14.881c-.313.067-.627.133-.933.193-.527.1-1.067.193-1.6.24a6.147 6.147 0 01-2.84-.3l-.067-.34v-.007l-.007-.007-.667-3.453a.883.883 0 01.693-1.033l3.353-.653.007-.007.113-.02a.886.886 0 011.033.693l.82 4.233v.007z" class="prefix__cls-9" data-name="Shape" transform="translate(10.041 6.319)"/>
                    <path id="prefix__Shape-16" d="M35.733 16H2.4a6.6 6.6 0 01.807-2.04 3.348 3.348 0 011.78-1.547 1.1 1.1 0 01.14-.04 2.661 2.661 0 01.747-.1 4.208 4.208 0 01.587.033 2.452 2.452 0 01.387.047c1.887.293 3.167 1.333 5.06 1.067a1.333 1.333 0 00.16-.027 4.414 4.414 0 00.747-.193 21.2 21.2 0 012.26-.62c.427-.093.873-.173 1.327-.247.173-.027.347-.053.527-.073 2.193-.28 4.527-.56 6.18.473a1.328 1.328 0 01.127.08 4.38 4.38 0 001.027.52 6.147 6.147 0 002.84.3c.533-.047 1.073-.14 1.6-.24.307-.06.62-.127.933-.193.233-.053.473-.107.713-.147a3.917 3.917 0 01.62-.067A4.32 4.32 0 0134 14.106c.293.26.58.547.86.847.107.12.22.247.327.373.193.213.373.44.547.673z" data-name="Shape" transform="translate(1.6 8.001)" style="fill:sienna"/>
                    <path id="prefix__Shape-17" d="M22.911 11.213l-1.82 3.773-.053.107-.007.007-.133.28a3.917 3.917 0 00-.62.067c-.24.04-.48.093-.713.147l-.093-.453v-.007l-.82-4.233a.886.886 0 00-1.033-.693l-.113.02.633-1.32a.883.883 0 011.18-.407l1.32.633.753.36 1.113.533a.9.9 0 01.406 1.186z" class="prefix__cls-6" data-name="Shape" transform="translate(11.669 5.607)"/>
                    <path id="prefix__Shape-18" d="M10.017 24H5.378a.667.667 0 01-.643-.488L4 20.853a.667.667 0 111.284-.353l.6 2.167h4.133a.667.667 0 110 1.333z" data-name="Shape" transform="translate(2.649 13.338)" style="fill:#f5f5f5"/>
                    <path id="prefix__Shape-19" d="M38 23.333h-.349c-.063-.08-.127-.159-.191-.236l1.259-.822a1.321 1.321 0 00.393-1.847l-1.457-2.238a1.358 1.358 0 00-.379-.369l1.251-6.427A7.339 7.339 0 0031.3 2.667h-5.371l-.347-1.213A2 2 0 0023.66 0h-7.32a2 2 0 00-1.921 1.45l-.349 1.217H8.7a7.338 7.338 0 00-7.227 8.727l1.09 5.623a1.376 1.376 0 00-.382.605l-.819 2.453a.77.77 0 00-.02.077 1.349 1.349 0 00.1 1 1.285 1.285 0 00.759.639l1.649.551a7.722 7.722 0 00-.367.991H2a2 2 0 00-2 2V26a2 2 0 002 2h.16l2.791 10.045A2.674 2.674 0 007.52 40h24.96a2.674 2.674 0 002.569-1.955L37.84 28H38a2 2 0 002-2v-.667a2 2 0 00-2-2zm-.218-2.5l.217.321-1.446.944c-.169-.169-.34-.333-.517-.492a5.341 5.341 0 00-1.943-1.085l2.449-1.6zM6.708 10.372a1.933 1.933 0 01.421-1.636A1.991 1.991 0 018.7 8h22.6a1.994 1.994 0 011.575.741 1.942 1.942 0 01.417 1.639l-.723 3.746-1.281-.613a1.517 1.517 0 00-1.172-.085 1.573 1.573 0 00-.911.8l-.492 1.024-3.021.589a1.552 1.552 0 00-1.227 1.812l.015.079-.533-.831a1.544 1.544 0 00-.991-.671 1.513 1.513 0 00-1.149.224l-1.9 1.232.08-1.124a1.559 1.559 0 00-1.44-1.647l-3.54-.249a1.564 1.564 0 00-1.643 1.439l-.181 2.59-2.481-2.829a1.559 1.559 0 00-2.184-.139l-.667.583zm27.272 6.161l-1.647 3.41a.6.6 0 00-.667.01l-.693-3.577a1.533 1.533 0 00-.812-1.067l.242-.5a.233.233 0 01.133-.115.194.194 0 01.161.015l3.173 1.52a.229.229 0 01.109.308zM7.3 18.565l2.1-1.837a.217.217 0 01.306.018l3.35 3.824-.015.222a6.311 6.311 0 01-2.385-.513 11.457 11.457 0 00-2.089-.584 3.36 3.36 0 00-.424-.052 4.6 4.6 0 00-1.164.006l-.267-.3a.181.181 0 01-.046-.137.233.233 0 01.071-.153L6.8 19zm7.4-2.365a.207.207 0 01.229-.2l3.518.246a.228.228 0 01.21.235l-.15 2.117-2.1 1.362c-.8.179-1.481.377-2.009.549zm7.84 1.367a.2.2 0 01.151-.03.213.213 0 01.137.092l1.372 2.126a10.048 10.048 0 00-4.573-.3zm3.9 3.247a.1.1 0 00-.006-.027l-.653-3.378a.219.219 0 01.165-.261l3.353-.654a.574.574 0 00.067-.017l.044-.008a.223.223 0 01.261.164l.783 4.049c-.091.019-.184.041-.275.057a15.477 15.477 0 01-1.533.231 6.037 6.037 0 01-2.208-.157zM4.038 6.194A6.017 6.017 0 018.7 4h5.873a.667.667 0 00.641-.483l.487-1.7a.662.662 0 01.638-.479h7.32a.662.662 0 01.639.483l.487 1.7a.667.667 0 00.642.479H31.3a6.006 6.006 0 015.919 7.139l-1.285 6.613c-.038.019-.077.031-.114.054l-1.419.927.783-1.621a1.573 1.573 0 00-.719-2.079l-.649-.311.785-4.089a3.343 3.343 0 00-3.3-3.967H8.7a3.341 3.341 0 00-3.3 3.959l1.293 6.7-.286.25-.914-.3a.68.68 0 00-.067-.027l-1.551-.514h-.01l-1.084-5.595a5.961 5.961 0 011.257-4.945zM2.622 20.527c0-.014.01-.038.015-.061L3.457 18l1.482.492a.644.644 0 00.073.029l.433.142a1.551 1.551 0 00-.108.451 1.5 1.5 0 00.305 1.019 4.149 4.149 0 00-1.109 1.033zm2.711 1.842a.656.656 0 00.046-.079 2.765 2.765 0 011.429-1.249 2.68 2.68 0 011.217-.072 2.538 2.538 0 01.321.039 10.333 10.333 0 011.867.527 6.821 6.821 0 003.383.544 5.5 5.5 0 001.029-.245 21.086 21.086 0 013.492-.844c.163-.029.325-.051.493-.072 2-.255 4.267-.543 5.761.393l.089.054a6.267 6.267 0 004.3.933 16.667 16.667 0 001.667-.249c.252-.048.508-.1.768-.161.287-.063.579-.126.879-.18a3.474 3.474 0 01.493-.056 3.653 3.653 0 012.59.957c.251.221.494.467.733.724H4.884a5.721 5.721 0 01.449-.965zM38.667 26a.667.667 0 01-.667.667H12A.667.667 0 0012 28h24.457l-2.693 9.689a1.337 1.337 0 01-1.284.978H7.52a1.337 1.337 0 01-1.284-.979L3.543 28H8a.667.667 0 100-1.333H2A.667.667 0 011.333 26v-.667A.667.667 0 012 24.667h36a.667.667 0 01.667.667z" data-name="Shape"/>
                </g>
            </g>
        </g>
    </g>
</svg>
