<svg xmlns="http://www.w3.org/2000/svg" width="40" height="40" viewBox="0 0 40 40">
    <defs>
        <clipPath id="prefix__clip-path">
            <path id="prefix__사각형_4441" d="M0 0H40V40H0z" data-name="사각형 4441" transform="translate(180 453)" style="fill:#ebebeb"/>
        </clipPath>
        <style>
            .prefix__cls-3{fill:#ff6930}.prefix__cls-5{fill:#ff5426}
        </style>
    </defs>
    <g id="prefix__ic_category_6" transform="translate(-180 -453)">
        <g id="prefix__fish" transform="translate(180 458.111)">
            <path id="prefix__패스_13814" d="M12.463 3.472c5.372-.54 7.8 1.849 9.408 4.343 1.72-1.343 2.492-3.017.183-4.838C16.4-1.482 8.521.925 7.1 2.3a6.7 6.7 0 00-1.77 3.648 16.381 16.381 0 017.133-2.476zm0 0" class="prefix__cls-3" data-name="패스 13814" transform="translate(3.553 .27)"/>
            <path id="prefix__패스_13815" d="M10.483 16.56a12.172 12.172 0 004.974 3.112 1.181 1.181 0 001.471-1.148v-4.433a9.79 9.79 0 01-6.445 2.469zm0 0" class="prefix__cls-3" data-name="패스 13815" transform="translate(6.989 9.394)"/>
            <path id="prefix__패스_13816" d="M37.1 14.2a34.628 34.628 0 001.917 10.028c-7.12-.06-5.477-7.417-9.512-7.417s-4.035 8.663-14.657 7.6A18.015 18.015 0 01.424 14.2S5.112 3.344 15.734 2.276s9.731 9.316 13.766 9.316 2.391-7.358 9.512-7.417A34.632 34.632 0 0037.1 14.2zm0 0" data-name="패스 13816" transform="translate(.283 1.466)" style="fill:#ffc265"/>
            <path id="prefix__패스_13817" d="M13.045 1.25a16.412 16.412 0 00-7.263 2.557 6.832 6.832 0 00-.452 1.629 16.377 16.377 0 017.133-2.476c5.372-.54 7.8 1.849 9.408 4.343a5.893 5.893 0 001.024-.995c-1.613-2.725-3.963-5.65-9.85-5.058zm0 0" class="prefix__cls-5" data-name="패스 13817" transform="translate(3.553 .782)"/>
            <path id="prefix__패스_13818" d="M12.606 18.307a9.479 9.479 0 004.322-1.762v-2.454a9.789 9.789 0 01-6.445 2.47 16.493 16.493 0 002.123 1.746zm0 0" class="prefix__cls-5" data-name="패스 13818" transform="translate(6.989 9.394)"/>
            <path id="prefix__패스_13819" d="M29.5 9.768c-4.7.05-4.035 8.663-14.657 7.6A17.89 17.89 0 011.153 8.55c-.49.867-.729 1.419-.729 1.419a18.015 18.015 0 0014.419 10.206c10.621 1.068 10.621-7.6 14.656-7.6s2.392 7.363 9.513 7.425c0 0-.429-1.182-.881-2.93-4.172-.969-3.815-7.351-8.631-7.3zm0 0" data-name="패스 13819" transform="translate(.283 5.7)" style="fill:#ffb541"/>
            <path id="prefix__패스_13820" d="M12.312 7.3c-1.42-.168-3.564 1.124-4.746 1.932a13.618 13.618 0 01.089 1.55q0 .459-.031.91c1.193.81 3.29 2.057 4.687 1.892 2.049-.242 1.956-3.142 1.956-3.142s.092-2.9-1.956-3.142zm0 0" class="prefix__cls-3" data-name="패스 13820" transform="translate(5.044 4.856)"/>
            <path id="prefix__패스_13821" d="M14.153 8.545a2.3 2.3 0 01-1.853 2.087c-1.4.165-3.519-1.1-4.712-1.907.036.4.056.807.056 1.217q0 .459-.031.91c1.193.81 3.29 2.057 4.687 1.892C14.347 12.5 14.255 9.6 14.255 9.6a5.106 5.106 0 00-.1-1.055zm0 0" class="prefix__cls-5" data-name="패스 13821" transform="translate(5.058 5.696)"/>
            <path id="prefix__패스_13822" d="M.424 13.182a18.309 18.309 0 008.787 8.71 13.476 13.476 0 003.206-8.744A13.485 13.485 0 008.6 3.731a23.422 23.422 0 00-8.176 9.451zm0 0" data-name="패스 13822" transform="translate(.283 2.487)" style="fill:#ffe9c8"/>
            <path id="prefix__패스_13823" d="M1.153 8.55c-.49.867-.729 1.419-.729 1.419a18.309 18.309 0 008.787 8.71 13.571 13.571 0 001.523-2.207A18.183 18.183 0 011.153 8.55zm0 0" data-name="패스 13823" transform="translate(.283 5.7)" style="fill:#ffdca7"/>
            <path id="prefix__패스_13824" d="M38.623 20.61a.589.589 0 00-1.156.232 40.928 40.928 0 001.11 4.286c-3.054-.322-4.034-2.27-4.985-4.158-.807-1.6-1.641-3.258-3.75-3.258-1.8 0-2.9 1.407-4.072 2.9-1.885 2.4-4.231 5.391-10.615 4.749a17.626 17.626 0 01-4.784-1.161 14.233 14.233 0 001.108-1.7.59.59 0 00-1.032-.571 13.085 13.085 0 01-1.187 1.785 17.169 17.169 0 01-4.96-3.679 17.859 17.859 0 01-3.058-4.359 24.147 24.147 0 013.512-5.237 20.391 20.391 0 013.97-3.51 12.948 12.948 0 013.346 8.712 12.994 12.994 0 01-.7 4.229.59.59 0 001.115.383 14.113 14.113 0 00.635-2.679 8.576 8.576 0 003.97 1.489 2.781 2.781 0 00.326-.018C19.454 18.8 19.931 16.5 19.9 15.3c.032-1.2-.445-3.505-2.489-3.746-1.292-.153-2.99.658-4.395 1.532A14.1 14.1 0 009.738 6.3a15.836 15.836 0 016.312-2.037 8.931 8.931 0 016.707 1.575 13.591 13.591 0 013.223 4.253c1.026 1.824 1.995 3.547 3.861 3.547 2.109 0 2.943-1.656 3.749-3.258.951-1.888 1.931-3.836 4.985-4.158a33.748 33.748 0 00-1.682 9.453 22.651 22.651 0 00.166 2.643.59.59 0 101.171-.139 21.491 21.491 0 01-.158-2.5 34.484 34.484 0 011.893-9.888.6.6 0 00-.558-.791c-4.443.037-5.788 2.707-6.868 4.853-.839 1.667-1.378 2.61-2.7 2.61-1.12 0-1.806-1.12-2.834-2.946-.243-.431-.5-.886-.779-1.346a3.66 3.66 0 001.45-2.654 3.662 3.662 0 00-1.673-2.8 12.3 12.3 0 00-4.218-2.16.59.59 0 10-.328 1.133 11.128 11.128 0 013.819 1.949A2.593 2.593 0 0126.5 5.508a2.424 2.424 0 01-.923 1.658c-1.7-2.408-4.325-4.613-9.644-4.078a16.939 16.939 0 00-6.2 1.869 5.519 5.519 0 011.275-2.035c.822-.8 4.375-2.075 8.236-1.662a.59.59 0 00.128-1.173c-4.141-.443-8.058.9-9.183 1.989A7.187 7.187 0 008.28 5.808a21.454 21.454 0 00-4.44 3.88A24.2 24.2 0 00.048 15.44a.59.59 0 000 .46 18.023 18.023 0 003.361 4.909 18.281 18.281 0 0011.631 5.72 17.98 17.98 0 001.812.094h.379a12.584 12.584 0 005.085 3.1A1.778 1.778 0 0024.53 28v-4.2a20.544 20.544 0 002.17-2.465c1.072-1.366 1.919-2.445 3.144-2.445 1.318 0 1.857.943 2.7 2.609 1.08 2.146 2.425 4.816 6.868 4.853a.594.594 0 00.559-.79 38.574 38.574 0 01-1.343-4.952zm-21.352-7.887c1.5.176 1.449 2.534 1.448 2.557s0 .025 0 .036.048 2.382-1.448 2.558c-.851.1-2.313-.489-4.04-1.622q.013-.3.013-.612c0-.425-.02-.848-.057-1.267 1.747-1.152 3.224-1.752 4.084-1.65zM23.351 28a.6.6 0 01-.742.584 10.22 10.22 0 01-3.752-2.1 10.192 10.192 0 004.494-1.732zm0 0" data-name="패스 13824"/>
            <path id="prefix__패스_13825" d="M3.41 9.484a1.35 1.35 0 001.2 1.486A1.35 1.35 0 005.8 9.484 1.35 1.35 0 004.607 8 1.35 1.35 0 003.41 9.484zm0 0" data-name="패스 13825" transform="translate(2.273 5.332)"/>
        </g>
    </g>
</svg>
