<svg xmlns="http://www.w3.org/2000/svg" width="40" height="40" viewBox="0 0 40 40">
    <defs>
        <clipPath id="prefix__clip-path">
            <path id="prefix__사각형_4437" d="M0 0H40V40H0z" data-name="사각형 4437" transform="translate(-.469)" style="fill:#ebebeb"/>
        </clipPath>
    </defs>
    <g id="prefix__ic_category_2" transform="translate(.469)">
        <g id="prefix__tomato_1_" data-name="tomato (1)" transform="translate(3.747 3.863)">
            <path id="prefix__패스_13807" d="M23.255 6.3a1.15 1.15 0 00-.229-.054L10.51 5.8a1.2 1.2 0 00-.229.027C4.037 7.849 0 12.761 0 18.372 0 25.788 7.24 31.83 16.149 31.83S32.3 25.788 32.3 18.372c0-5.168-3.459-9.784-9.043-12.071zm0 0" data-name="패스 13807" transform="translate(0 .445)" style="fill:#f44336"/>
            <path id="prefix__패스_13808" d="M23.568 5.424a.661.661 0 00-.444-.337c-3.808-.821-6.042.633-6.809 1.279l-2.355-.5c-.9-1.05-3.432-1.871-4.252-2.113a.7.7 0 00-.606.121.711.711 0 00-.256.579 10.3 10.3 0 001.09 3.768c-.659.35-1.615.781-2.019.942a.664.664 0 00-.4.754c.108.538.713 1.063 4.279 1.2a7.476 7.476 0 002.826 3.311.724.724 0 00.283.067.763.763 0 00.377-.108 5.077 5.077 0 002.14-3.1 6.375 6.375 0 004.535-.242.657.657 0 00.35-.633.675.675 0 00-.431-.592 5.629 5.629 0 01-1.551-1.02 5.02 5.02 0 003.283-2.813.69.69 0 00-.04-.565zm0 0" data-name="패스 13808" transform="translate(.574 .286)" style="fill:#4caf50"/>
            <path id="prefix__패스_13809" d="M18.61.6a2.154 2.154 0 00-2.974 0l-.673.673A10.089 10.089 0 0012.5 8.024v.7a.667.667 0 00.673.673h2.692a.666.666 0 00.673-.673v-.7A5.651 5.651 0 0118.61 3.57a2.1 2.1 0 000-2.97zm0 0" data-name="패스 13809" transform="translate(.958)" style="fill:#388e3c"/>
            <path id="prefix__패스_13810" d="M16.149 31.83C7.24 31.83 0 25.787 0 18.372 0 12.76 4.037 7.848 10.295 5.843a.654.654 0 01.834.431.685.685 0 01-.43.848c-5.679 1.816-9.353 6.23-9.353 11.25 0 6.675 6.635 12.112 14.8 12.112s14.8-5.437 14.8-12.112c0-4.6-3.149-8.761-8.209-10.82a.67.67 0 11.511-1.238C28.839 8.588 32.3 13.2 32.3 18.372c0 7.415-7.24 13.457-16.149 13.457zm0 0" data-name="패스 13810" transform="translate(0 .445)"/>
            <path id="prefix__패스_13811" d="M7.21 25.56a.662.662 0 01-.4-.135 9.97 9.97 0 01-4.306-7.9.673.673 0 111.346 0 8.463 8.463 0 003.768 6.809.668.668 0 01.135.942.658.658 0 01-.538.283zm0 0" data-name="패스 13811" transform="translate(.192 1.291)"/>
            <path id="prefix__패스_13812" d="M14.9 14.494a.724.724 0 01-.283-.067 7.555 7.555 0 01-2.826-3.311c-3.566-.135-4.172-.659-4.279-1.2a.672.672 0 01.4-.754c.4-.175 1.359-.592 2.019-.942a10.749 10.749 0 01-1.09-3.768.674.674 0 01.259-.576.724.724 0 01.619-.121c.888.269 3.835 1.211 4.441 2.409a.671.671 0 11-1.2.606 6.969 6.969 0 00-2.611-1.386 7.359 7.359 0 001.063 2.664.679.679 0 01-.148.929 8.554 8.554 0 01-1.171.673c.512.054 1.211.108 2.126.135a.694.694 0 01.592.377 8.48 8.48 0 002.059 2.853 4.275 4.275 0 001.386-2.678.667.667 0 01.309-.444.682.682 0 01.538-.067 8.465 8.465 0 002.826.417 13.646 13.646 0 01-1.144-1.009c-.121-.121-.215-.215-.3-.283a.656.656 0 01-.2-.7.631.631 0 01.538-.471 5.088 5.088 0 003.082-1.521c-3.27-.4-4.845 1.225-4.912 1.305a.692.692 0 01-.956.04.663.663 0 01-.04-.942c.094-.108 2.409-2.57 7.105-1.547a.661.661 0 01.444.336.691.691 0 01.04.565 5.021 5.021 0 01-3.284 2.813 5.722 5.722 0 001.547 1.023.606.606 0 01.444.565.667.667 0 01-.35.633 6.448 6.448 0 01-4.535.242 5.155 5.155 0 01-2.14 3.1.763.763 0 01-.377.108zm0 0" data-name="패스 13812" transform="translate(.574 .286)"/>
            <path id="prefix__패스_13813" d="M15.864 9.4a.666.666 0 01-.673-.673v-.7a6.953 6.953 0 012.476-5.41.752.752 0 10-1.067-1.066l-.673.673a8.719 8.719 0 00-2.086 5.8v.7a.673.673 0 01-1.346 0v-.7a10.062 10.062 0 012.476-6.756L15.649.6a2.154 2.154 0 012.974 0 2.1 2.1 0 010 2.974 5.651 5.651 0 00-2.072 4.454v.7a.687.687 0 01-.686.673zm0 0" data-name="패스 13813" transform="translate(.958)"/>
        </g>
    </g>
</svg>
