<svg xmlns="http://www.w3.org/2000/svg" width="40" height="40" viewBox="0 0 40 40">
    <defs>
        <clipPath id="prefix__clip-path">
            <path id="prefix__사각형_4437" d="M0 0H40V40H0z" data-name="사각형 4437" style="fill:#ebebeb"/>
        </clipPath>
        <style>
            .prefix__cls-3{fill:#8cc152}
        </style>
    </defs>
    <g id="prefix__ic_category_1">
        <g id="prefix__cauliflower" transform="translate(0 5.807)">
            <g id="prefix__그룹_9416" data-name="그룹 9416" transform="translate(.645 .645)">
                <g id="prefix__그룹_9415" data-name="그룹 9415" transform="translate(0 12.903)">
                    <path id="prefix__패스_13798" d="M24.516 22.741a3.217 3.217 0 00-1.761-2.858 3.282 3.282 0 00.329-.735 3.615 3.615 0 01.755-.813 2.965 2.965 0 012.671-.671 3.213 3.213 0 013.606-2.632 3.1 3.1 0 011.49.619 3.2 3.2 0 01.826 4.232 3.213 3.213 0 011.742 3.226 3.319 3.319 0 01-3.342 2.858h-.51a11.023 11.023 0 01-7.787 3.226h-5.116a3.227 3.227 0 003.226-3.226c.148 0 .3 0 .439-.013a1.076 1.076 0 00.206.013 3.035 3.035 0 00.594-.058 3.222 3.222 0 002.632-3.168z" class="prefix__cls-3" data-name="패스 13798" transform="translate(4.517 -14.999)"/>
                    <path id="prefix__패스_13799" d="M16.29 29.193a2.682 2.682 0 01-2.355-1.3 4.752 4.752 0 01-.606-1.413 7.606 7.606 0 01-.265-1.806 2.585 2.585 0 011.658-2.406 3.2 3.2 0 013.561-4.606 3.221 3.221 0 016.393.561 3.133 3.133 0 01-.142.923 3.282 3.282 0 01-.329.735 3.213 3.213 0 01-.871 6.026 7.972 7.972 0 01-.8.045 3.356 3.356 0 01-.445-.052c0 .019.006.039.006.065a3.227 3.227 0 01-3.226 3.226z" class="prefix__cls-3" data-name="패스 13799" transform="translate(3.065 -15)"/>
                    <path id="prefix__패스_13800" d="M17.968 27.9a2.682 2.682 0 002.355 1.3H12.7a11.013 11.013 0 01-7.051-2.555l-.806-.671h-.51a3.319 3.319 0 01-3.346-2.865 3.213 3.213 0 011.742-3.226 3.19 3.19 0 01.458-3.91 3.127 3.127 0 011.858-.942 3.213 3.213 0 013.606 2.632 2.965 2.965 0 012.671.671 3.246 3.246 0 011.178 1.755 3.079 3.079 0 01-.284 2.181 2.585 2.585 0 011.658 2.406c0 .961 1.077 1.568 3.49 1.806a4.752 4.752 0 00.604 1.418z" class="prefix__cls-3" data-name="패스 13800" transform="translate(-.967 -14.999)"/>
                </g>
                <path id="prefix__패스_13801" d="M36.1 13.322a3.227 3.227 0 01.665 5.555 3.1 3.1 0 00-1.49-.619 3.213 3.213 0 00-3.605 2.632 2.965 2.965 0 00-2.67.671 3.615 3.615 0 00-.755.813 3.133 3.133 0 00.142-.923 3.221 3.221 0 00-6.393-.561 3.177 3.177 0 00-.7-.084 3.2 3.2 0 00-2.858 4.69 2.585 2.585 0 00-1.662 2.404 7.606 7.606 0 00.265 1.806c-2.413-.239-3.49-.845-3.49-1.806a2.585 2.585 0 00-1.659-2.4 3.079 3.079 0 00.284-2.181A3.246 3.246 0 0011 21.561a2.965 2.965 0 00-2.671-.671 3.213 3.213 0 00-3.606-2.632 3.127 3.127 0 00-1.858.942 3.214 3.214 0 011.142-5.264 3.273 3.273 0 01-.135-.871 3.205 3.205 0 014.671-2.871 3.206 3.206 0 015.329-1.361 3.206 3.206 0 012.257-.933 3.277 3.277 0 011.329.29 3.2 3.2 0 016.374 0 3.277 3.277 0 011.329-.29 3.224 3.224 0 011.658.471A3.216 3.216 0 0132.9 9.839a3.227 3.227 0 013.226 3.226c0 .09-.019.174-.026.258z" data-name="패스 13801" transform="translate(-.644 -5.322)" style="fill:#b4dd7f"/>
            </g>
            <g id="prefix__그룹_9417" data-name="그룹 9417">
                <path id="prefix__패스_13802" d="M38.916 23.033a3.766 3.766 0 00.141-2.434 3.841 3.841 0 00-.861-1.564 3.86 3.86 0 00-.94-5.937 3.878 3.878 0 00-3.27-3.7 3.878 3.878 0 00-3.825-3.272 3.84 3.84 0 00-3.1 1.569 3.8 3.8 0 00-2.261-.179 3.85 3.85 0 00-7.335 0 3.859 3.859 0 00-3.106.632A3.852 3.852 0 008.67 9.519a3.721 3.721 0 00-1.089-.164 3.875 3.875 0 00-3.871 3.871 3.315 3.315 0 00.039.5 3.855 3.855 0 00-1.237 5.633 3.805 3.805 0 00-.6 1.236 3.758 3.758 0 00.141 2.434A3.837 3.837 0 00.508 26.57 3.939 3.939 0 004.488 30h.278l.629.524a11.678 11.678 0 007.463 2.7H28.18A11.575 11.575 0 0036.23 30h.249a3.939 3.939 0 003.98-3.429 3.84 3.84 0 00-1.544-3.538zM4.72 14.7l.546-.211-.157-.565a2.539 2.539 0 012.472-3.275 2.543 2.543 0 011.154.286l.685.345.224-.734A2.564 2.564 0 0113.9 9.451l.452.444.452-.444a2.569 2.569 0 012.866-.507l.81.366.1-.884a2.562 2.562 0 015.1 0l.1.884.81-.366a2.516 2.516 0 012.384.145l.591.356.315-.614A2.571 2.571 0 0132.741 10v.645h.645a2.583 2.583 0 012.581 2.581.508.508 0 01-.008.071c-.006.045-.012.09-.015.135l-.037.463.426.182a2.579 2.579 0 011.57 2.375 2.546 2.546 0 01-.728 1.776 3.765 3.765 0 00-1.329-.451 3.874 3.874 0 00-4.17 2.555 3.587 3.587 0 00-2.218.636A3.864 3.864 0 0022 20.329a3.887 3.887 0 00-4.1 3.864 3.719 3.719 0 00.188 1.164 3.194 3.194 0 00-1.479 2.706 7.3 7.3 0 00.083 1.049c-.984-.166-2.018-.477-2.018-1.049a3.194 3.194 0 00-1.474-2.706 3.724 3.724 0 00.086-2.033 3.865 3.865 0 00-1.4-2.106 3.725 3.725 0 00-2.591-.887 3.871 3.871 0 00-4.17-2.555 3.8 3.8 0 00-1.674.662A2.56 2.56 0 014.72 14.7zm1.5 14.836l-.988-.823h-.744a2.684 2.684 0 01-2.7-2.283 2.562 2.562 0 011.394-2.583l.614-.315-.357-.592a2.524 2.524 0 01-.286-2 2.575 2.575 0 015.023.226l.117.664.659-.146a2.325 2.325 0 012.13.553 2.582 2.582 0 01.945 1.392 2.468 2.468 0 01-.228 1.742l-.33.639.672.258a1.921 1.921 0 011.244 1.8c0 1.675 1.953 2.192 3.638 2.4l.043.112c-5.379-.492-7.438-3.678-9.111-6.27A15.289 15.289 0 006.1 21.8l-.912.912a14.45 14.45 0 011.684 2.294c.338.524.7 1.084 1.107 1.649l-3.421-1.139-.408 1.224 5.415 1.805A11.624 11.624 0 0017.8 31.91l.018.023h-4.96a10.377 10.377 0 01-6.637-2.4zm14.977 2.4a16.434 16.434 0 011.484-3.924l3.811-1.27-.408-1.224-2.546.849c.981-1.8 2.026-3.472 2.643-4.395l-1.074-.715c-.105.157-1.359 2.049-2.617 4.338l-.75-2.248-1.223.408 1.14 3.422a18.086 18.086 0 00-1.757 4.678c-1.96-.523-2-3.645-2-3.789a1.92 1.92 0 011.245-1.8l.672-.258-.329-.639a2.552 2.552 0 01-.3-1.174 2.563 2.563 0 013.143-2.514l.658.146.117-.663a2.577 2.577 0 015.114.45 2.532 2.532 0 01-.379 1.324l-.357.592.614.315a2.568 2.568 0 01-.628 4.806c-.223.021-.458.034-.7.043a2.645 2.645 0 01-.363-.037l-.8-.163.022.813c0 .027 0 .054.007.081a2.585 2.585 0 01-2.581 2.548zm17.978-5.508a2.684 2.684 0 01-2.7 2.283H35.7l-.189.189a10.3 10.3 0 01-7.331 3.037h-2.247A3.847 3.847 0 0026.882 30h.054a3.883 3.883 0 00.77-.077 7.285 7.285 0 005.221-2.53l.02-.006a15.143 15.143 0 014.312-.612v-1.29a17.223 17.223 0 00-3.317.328c.285-.563.516-1.126.727-1.648a6.564 6.564 0 011.112-2.095l-.912-.912a7.455 7.455 0 00-1.4 2.524c-.2.5-.414 1.015-.665 1.516l-.755-1.888-1.2.479 1.1 2.75a5.243 5.243 0 01-1.544 1.289 3.837 3.837 0 00-1.173-4.795c.022-.054.03-.112.05-.168a2.921 2.921 0 01.6-.634 2.324 2.324 0 012.13-.552l.659.146.117-.664a2.575 2.575 0 015.023-.226 2.526 2.526 0 01-.286 2l-.357.592.614.315a2.566 2.566 0 011.394 2.584z" data-name="패스 13802" transform="translate(-.484 -4.839)"/>
                <path id="prefix__패스_13803" d="M12.258 18.064v-1.29a1.29 1.29 0 01-.023-2.581l.585.043.161-.464a1.28 1.28 0 012.3-.266l.328.519.534-.3a1.275 1.275 0 01.631-.174 1.292 1.292 0 011.29 1.29h1.29a2.583 2.583 0 00-2.581-2.581 2.5 2.5 0 00-.754.117 2.568 2.568 0 00-4.063.546 2.581 2.581 0 00.3 5.144z" data-name="패스 13803" transform="translate(2.581 -2.581)"/>
                <path id="prefix__패스_13804" d="M18.548 10.636a1.279 1.279 0 01.632.174l.534.3.328-.519a1.28 1.28 0 012.3.266l.161.459.486-.028.077-.011a1.292 1.292 0 011.29 1.29h1.29a2.585 2.585 0 00-2.28-2.563 2.567 2.567 0 00-4.066-.541 2.475 2.475 0 00-.754-.117 2.583 2.583 0 00-2.581 2.581h1.29a1.292 1.292 0 011.29-1.29z" data-name="패스 13804" transform="translate(4.677 -3.551)"/>
                <path id="prefix__패스_13805" d="M22.258 12.1a1.938 1.938 0 00-1.935 1.935h1.29a.645.645 0 111.29 0v.645h.645a.646.646 0 01.645.645h1.29a1.938 1.938 0 00-1.373-1.855 1.938 1.938 0 00-1.852-1.37z" data-name="패스 13805" transform="translate(6.129 -2.419)"/>
                <path id="prefix__패스_13806" d="M6.29 13.709h.645v-.645a.645.645 0 011.29 0h1.29a1.936 1.936 0 00-3.787-.564 1.938 1.938 0 00-1.374 1.852h1.29a.646.646 0 01.646-.643z" data-name="패스 13806" transform="translate(.807 -2.742)"/>
            </g>
        </g>
    </g>
</svg>
