<svg xmlns="http://www.w3.org/2000/svg" width="30" height="30" viewBox="0 0 30 30">
    <defs>
        <style>
            .prefix__cls-2{fill:#c2c2c2}
        </style>
    </defs>
    <g id="prefix__ic_image" transform="translate(3.16 3.621)">
        <g id="prefix__그룹_8450" data-name="그룹 8450">
            <g id="prefix__그룹_8449" data-name="그룹 8449">
                <path id="prefix__사각형_4489" d="M0 0H30V30H0z" data-name="사각형 4489" transform="translate(-3.16 -3.621)" style="fill:#fff;opacity:0"/>
                <path id="prefix__패스_11055" d="M97.406 96h15.466a1.406 1.406 0 011.406 1.406v15.466a1.406 1.406 0 01-1.406 1.406H97.406A1.406 1.406 0 0196 112.872V97.406A1.406 1.406 0 0197.406 96zm0 16.872h15.466V97.406H97.406z" class="prefix__cls-2" data-name="패스 11055" transform="translate(-96 -91.782)"/>
                <path id="prefix__패스_11056" d="M16.872 1.406H1.406v1.406H0V1.406A1.406 1.406 0 011.406 0h15.466a1.406 1.406 0 011.406 1.406v15.466a1.406 1.406 0 01-1.406 1.406h-1.406v-1.406h1.406z" class="prefix__cls-2" data-name="패스 11056" transform="translate(4.218)"/>
            </g>
        </g>
    </g>
</svg>
