<svg xmlns="http://www.w3.org/2000/svg" width="30" height="30" viewBox="0 0 30 30">
    <g id="prefix__ic_time_p" transform="translate(2.753 3.342)">
        <path id="prefix__사각형_4487" d="M0 0H30V30H0z" data-name="사각형 4487" transform="translate(-2.753 -3.342)" style="fill:#fff;opacity:0"/>
        <g id="prefix__gift_2_" data-name="gift (2)" transform="translate(1.699 -15.781)">
            <g id="prefix__그룹_9797" data-name="그룹 9797" transform="translate(0 16.314)">
                <path id="prefix__패스_14018" d="M23.79 22.627h-5.018a6.162 6.162 0 0 0 .885-.709 3.318 3.318 0 0 0 0-4.666 3.353 3.353 0 0 0-4.652 0c-.687.69-2.512 3.5-2.26 5.375h-.114c.251-1.876-1.573-4.685-2.26-5.375a3.353 3.353 0 0 0-4.652 0 3.319 3.319 0 0 0 0 4.666 6.276 6.276 0 0 0 .887.709h-5.02A1.589 1.589 0 0 0 0 24.213v3.965a.793.793 0 0 0 .793.793h.793v9.516a1.589 1.589 0 0 0 1.586 1.586H22.2a1.589 1.589 0 0 0 1.586-1.586v-9.516h.793a.793.793 0 0 0 .793-.793v-3.965a1.589 1.589 0 0 0-1.582-1.586zM6.843 18.37a1.691 1.691 0 0 1 2.4 0c1.069 1.075 2.132 3.822 1.762 4.2a.523.523 0 0 1-.293.052A7.8 7.8 0 0 1 6.843 20.8a1.73 1.73 0 0 1 0-2.43zm5.051 20.116H3.172v-9.515h8.723zm0-11.1H1.586v-3.173h10.309zm4.235-9.015a1.709 1.709 0 1 1 2.4 2.43 7.8 7.8 0 0 1-3.871 1.827.521.521 0 0 1-.295-.052c-.363-.384.697-3.131 1.766-4.206zM22.2 38.486h-8.719v-9.515H22.2zm1.586-11.1H13.481v-3.173H23.79z" data-name="패스 14018" transform="translate(-2.141 -17.382)" style="fill:#24855b"/>
            </g>
        </g>
    </g>
</svg>
