<svg xmlns="http://www.w3.org/2000/svg" viewBox="0 0 260 167.35"><defs><style>.cls-1{isolation:isolate;}.cls-2{fill:#bcbcbc;}.cls-3{fill:#efefef;}.cls-4{fill:#c9c9c9;}.cls-5{fill:#c00;}.cls-6{opacity:0.5;}.cls-7{fill:#ff7171;}.cls-13,.cls-8{opacity:0.4;}.cls-9{fill:#fbb03b;}.cls-10{fill:#fff;}.cls-11{fill:#ffcdbb;}.cls-12{fill:#500b02;}.cls-13{fill:#827c62;mix-blend-mode:multiply;}.cls-14{fill:#1d171a;}.cls-15{fill:none;}.cls-16{fill:#003b6d;}.cls-17{fill:#6d332a;}</style></defs><g class="cls-1"><g id="Layer_2" data-name="Layer 2"><g id="Layer_1-2" data-name="Layer 1"><rect class="cls-2" y="2" width="260" height="165.35" rx="6.84"/><rect class="cls-3" width="260" height="165.35" rx="6.84"/><path d="M43.05,30.92V29.58H58v1.34H51.27v4.7H49.75v-4.7ZM44,20V18.69H57.11V20H51.27v.49c0,3,3,4.79,6,5.32V27.2c-3-.53-5.55-1.92-6.74-4-1.17,2.05-3.76,3.44-6.77,4V25.84c3-.51,6-2.33,6-5.32V20Z"/><path d="M61.58,27.63V18.69h8.06v8.94Zm13.89,7.79H62.64V29.9h1.52v4.22H75.47ZM68.15,20H63.07v6.34h5.08Zm7,10.21h-1.5V18.5h1.5Z"/><path d="M79.08,27.74v-1.3H94.25v1.3Zm.81,5a2.32,2.32,0,0,1,1.26-2.09,11.59,11.59,0,0,1,5.53-1,11.52,11.52,0,0,1,5.52,1,2.34,2.34,0,0,1,1.28,2.09,2.4,2.4,0,0,1-1.28,2.11c-1.15.68-3,1-5.52,1s-4.38-.28-5.53-1A2.38,2.38,0,0,1,79.89,32.78ZM93.1,20H81.74v3H93.21V24.3h-13V18.69H93.1ZM81.42,32.78a1.21,1.21,0,0,0,.66,1.06,9.75,9.75,0,0,0,4.6.75,9.77,9.77,0,0,0,4.61-.75A1.19,1.19,0,0,0,92,32.78a1.22,1.22,0,0,0-.66-1.05c-.82-.51-2.37-.75-4.61-.75s-3.78.24-4.6.75A1.24,1.24,0,0,0,81.42,32.78Z"/><path d="M99.8,23v1.83h11.48v1.24h-5.82v2h6.85V29.3H97.15V28h6.79v-2H98.29V21.76h11.37V20H98.29V18.69h12.87V23Zm9.86,12.64V32.39H98.16V31.13h13v4.49Z"/><path d="M115.21,27.74v-1.3h15.16v1.3Zm.81,5a2.3,2.3,0,0,1,1.26-2.09,11.59,11.59,0,0,1,5.53-1,11.5,11.5,0,0,1,5.51,1,2.32,2.32,0,0,1,1.28,2.09,2.38,2.38,0,0,1-1.28,2.11c-1.15.68-3,1-5.51,1s-4.38-.28-5.53-1A2.36,2.36,0,0,1,116,32.78ZM116.36,20v-1.3h12.87V20h-5.7v.09c0,1.92,3.25,3.09,5.9,3.3v1.29c-2.67-.22-5.47-1.22-6.66-2.74-1.2,1.54-4,2.56-6.68,2.74V23.38c2.64-.17,5.91-1.4,5.91-3.3V20Zm1.18,12.79a1.23,1.23,0,0,0,.66,1.06,9.8,9.8,0,0,0,4.61.75,9.8,9.8,0,0,0,4.61-.75,1.19,1.19,0,0,0,.66-1.06,1.22,1.22,0,0,0-.66-1.05c-.83-.51-2.37-.75-4.61-.75s-3.78.24-4.61.75A1.26,1.26,0,0,0,117.54,32.78Z"/><path d="M50.17,49.24a.92.92,0,0,1,.52-.82A6.71,6.71,0,0,1,54,47.85a6.78,6.78,0,0,1,3.36.57.92.92,0,0,1,.52.82,1,1,0,0,1-.52.84,6.15,6.15,0,0,1-2.91.57v.94h4.12v.75H49.48v-.75h4.09v-.94a6.1,6.1,0,0,1-2.88-.57A1,1,0,0,1,50.17,49.24Zm8.07-2.05h-8.4v-.72h3.73V45.6h.93v.87h3.74ZM50,54.84a1.12,1.12,0,0,1,.58-1,6.82,6.82,0,0,1,3.52-.63,6.85,6.85,0,0,1,3.51.63,1.14,1.14,0,0,1,.58,1,1.16,1.16,0,0,1-.58,1,7,7,0,0,1-3.51.61,7,7,0,0,1-3.52-.61A1.13,1.13,0,0,1,50,54.84Zm.92,0a.48.48,0,0,0,.26.42,6.27,6.27,0,0,0,2.92.46,6.15,6.15,0,0,0,2.9-.46.47.47,0,0,0,.27-.42.52.52,0,0,0-.27-.43,6.66,6.66,0,0,0-2.9-.43,6.8,6.8,0,0,0-2.92.43A.53.53,0,0,0,50.88,54.84Zm.19-5.6a.39.39,0,0,0,.24.35A6.15,6.15,0,0,0,54,50a6.17,6.17,0,0,0,2.74-.38.39.39,0,0,0,.23-.35.43.43,0,0,0-.23-.36A6.64,6.64,0,0,0,54,48.53a6.61,6.61,0,0,0-2.73.35A.42.42,0,0,0,51.07,49.24Z"/><path d="M64.59,46.91H60.7V46.1h4.8v.58c0,2.72-2,4-5.06,4.2v-.8C62.9,49.89,64.56,48.89,64.59,46.91Zm-2.33,7.41v1.19H69v.74H61.34V53.57H68V52.39H61.34v-.74h7.54v2.67Zm6.62-3.49H68V46h.91Z"/><path d="M79.7,46.88H72.85v1.83h6.91v.77h-3.5v1.37h4.13v.79H71.25v-.79h4.09V49.48h-3.4V46.1H79.7Zm-8,7.71a1.37,1.37,0,0,1,.76-1.25,6.86,6.86,0,0,1,3.33-.61,6.81,6.81,0,0,1,3.32.61,1.38,1.38,0,0,1,.77,1.25,1.42,1.42,0,0,1-.77,1.27,6.87,6.87,0,0,1-3.32.58,6.91,6.91,0,0,1-3.33-.58A1.41,1.41,0,0,1,71.74,54.59Zm.92,0a.73.73,0,0,0,.39.64,5.81,5.81,0,0,0,2.78.45,5.81,5.81,0,0,0,2.78-.45.71.71,0,0,0,.39-.64.72.72,0,0,0-.39-.63,5.81,5.81,0,0,0-2.78-.45,5.81,5.81,0,0,0-2.78.45A.74.74,0,0,0,72.66,54.59Z"/><path d="M88.26,45.38v.81c-1.22,0-1.76.68-1.76,4.94s.54,4.94,1.76,4.94v.81c-1.84,0-2.7-.89-2.7-5.75S86.42,45.38,88.26,45.38Z"/><path d="M91.08,51.1A15.64,15.64,0,0,0,89,49.9l.48-.62a16.14,16.14,0,0,1,2,1.12Zm8.27.88v.82H92.06c-.58,1.15-1.33,2.46-2,3.45l-.7-.57a34.6,34.6,0,0,0,2.08-3.52l.51.45V52h1.73V49.21H92.25v-.82h1.48V46.11h.82v2.28H96.8V46.1h.81v2.29H99.2v.82H97.61V52Zm-7.6-3.78a17.38,17.38,0,0,0-2.15-1.44l.51-.58a15.41,15.41,0,0,1,2.15,1.37Zm3,5.56a10.44,10.44,0,0,1-2.18,2.61,4.81,4.81,0,0,0-.67-.52,8.05,8.05,0,0,0,2-2.34ZM94.55,52H96.8V49.21H94.55Zm2.67,1.56a13.72,13.72,0,0,1,2,2.41l-.72.46a13.14,13.14,0,0,0-2-2.5Z"/><path d="M105.93,48.43v1.66h3.92v.81H101.3v-.81h3.77V48.43H100.6v-.8h4.47V46.05h.86v1.58h4.49v.8Zm-4,3.74h7.3v4.34h-.9V56h-5.55v.54h-.85Zm.85.77v2.24h5.55V52.94Z"/><path d="M122,55.46v.69H111.76v-.69h4.67v-.79h-3.85v-.62h3.85v-.74H113V50h7.67v3.27h-3.45v.74h3.91v.62h-3.91v.79Zm0-6H111.78v-.71h2.89a4.23,4.23,0,0,0-.55-1l.69-.16h-2.28v-.68h3.87v-.79h.87v.79h4v.68h-2.18l.58.14c-.22.39-.46.77-.66,1.07h3Zm-8.13,2h2.62v-.8h-2.62Zm2.62,1.35v-.82h-2.62v.82Zm-1.5-5.23a3.32,3.32,0,0,1,.6,1.14l-.27.07h3l-.14,0a11.9,11.9,0,0,0,.62-1.18Zm5,3.08h-2.64v.8h2.64Zm0,1.33h-2.64v.82h2.64Z"/><path d="M122.79,56.88v-.81c1.23,0,1.75-.67,1.75-4.94s-.52-4.94-1.75-4.94v-.81c1.83,0,2.69.89,2.69,5.75S124.62,56.88,122.79,56.88Z"/><path d="M37.76,73.11V66.37l-1.88.85v-.81l2-.9h.71v7.6Z"/><path d="M45,69.43l-2.62,3h3.47v.71H41.34v-.65l3-3.46A1.93,1.93,0,0,0,45,67.63a1.46,1.46,0,1,0-2.91,0v.22h-.82v-.23a2.28,2.28,0,0,1,4.56,0A2.43,2.43,0,0,1,45,69.43Z"/><path d="M49.48,69.43h-.76v-.71h.78a1.22,1.22,0,0,0,1.29-1.31,1.27,1.27,0,0,0-1.34-1.32,1.26,1.26,0,0,0-1.35,1.32v.11h-.82v-.18a2.18,2.18,0,0,1,4.33,0,1.7,1.7,0,0,1-1.19,1.73A1.84,1.84,0,0,1,51.83,71a2.17,2.17,0,0,1-2.38,2.23A2.2,2.2,0,0,1,47.05,71v-.1h.82v.06a1.49,1.49,0,0,0,1.58,1.61A1.47,1.47,0,0,0,51,71,1.44,1.44,0,0,0,49.48,69.43Z"/><path d="M58,71.41H57v1.7h-.82v-1.7H53V70.7l3.15-5.19H57V70.7h1Zm-1.77-.71V66.86L53.86,70.7Z"/><path d="M60.16,69.7h-.82l.2-4.19h3.77v.71h-3l-.12,2.64a1.55,1.55,0,0,1,1.36-.67c1.3,0,2.18.87,2.18,2.53a2.22,2.22,0,0,1-2.32,2.51,2.17,2.17,0,0,1-2.32-2.14h.82a1.42,1.42,0,0,0,1.5,1.44c1,0,1.51-.64,1.51-1.83s-.55-1.81-1.51-1.81A1.28,1.28,0,0,0,60.16,69.7Z"/><path d="M67.44,68.19a2.24,2.24,0,0,1,2.29,2.51,2.31,2.31,0,0,1-2.36,2.53,2.07,2.07,0,0,1-2.08-1.31,5.57,5.57,0,0,1-.31-2.1,7.17,7.17,0,0,1,.59-3.51,1.94,1.94,0,0,1,1.82-.92,2,2,0,0,1,2.16,1.86h-.86a1.21,1.21,0,0,0-1.32-1.16c-1.11,0-1.51.89-1.56,3A1.71,1.71,0,0,1,67.44,68.19Zm-.07,4.34c.94,0,1.55-.67,1.55-1.83s-.61-1.81-1.55-1.81-1.56.68-1.56,1.81S66.43,72.53,67.37,72.53Z"/><path d="M73.65,69.21h3.2v.72h-3.2Z"/><path d="M80.91,65.51h4.52v.64l-2.63,7h-.86l2.67-6.89h-3.7Z"/><path d="M86.62,71a1.9,1.9,0,0,1,1.46-1.94,1.78,1.78,0,0,1-1.24-1.74,2.3,2.3,0,0,1,4.55,0,1.77,1.77,0,0,1-1.23,1.74A1.9,1.9,0,0,1,91.62,71a2.52,2.52,0,0,1-5,0Zm2.5,1.5a1.55,1.55,0,1,0,0-3.09,1.55,1.55,0,1,0,0,3.09Zm0-6.44a1.33,1.33,0,1,0,1.45,1.33A1.32,1.32,0,0,0,89.12,66.09Z"/><path d="M94.93,70.43a2.25,2.25,0,0,1-2.28-2.52A2.3,2.3,0,0,1,95,65.39a2,2,0,0,1,2.06,1.31,5.35,5.35,0,0,1,.31,2.1,6.92,6.92,0,0,1-.6,3.51,1.88,1.88,0,0,1-1.79.92,2,2,0,0,1-2.17-1.86h.85A1.22,1.22,0,0,0,95,72.53c1.11,0,1.51-.9,1.56-3A1.73,1.73,0,0,1,94.93,70.43ZM95,66.09c-1,0-1.56.67-1.56,1.82s.61,1.82,1.56,1.82,1.55-.67,1.55-1.82S95.94,66.09,95,66.09Z"/><path d="M102.74,72.54a2.17,2.17,0,0,1-1.72.69,2.13,2.13,0,0,1-1.71-.69c-.51-.61-.75-1.49-.75-3.23s.24-2.62.75-3.23a2.13,2.13,0,0,1,1.71-.69,2.17,2.17,0,0,1,1.72.69c.5.61.73,1.49.73,3.23S103.24,71.93,102.74,72.54Zm-.57-5.92a1.51,1.51,0,0,0-2.3,0c-.34.43-.49,1.17-.49,2.69s.14,2.27.49,2.7a1.53,1.53,0,0,0,2.3,0c.34-.43.49-1.18.49-2.7S102.51,67.05,102.17,66.62Z"/><path d="M108.69,72.54a2.48,2.48,0,0,1-3.43,0c-.51-.61-.75-1.49-.75-3.23s.24-2.62.75-3.23a2.48,2.48,0,0,1,3.43,0c.5.61.73,1.49.73,3.23S109.19,71.93,108.69,72.54Zm-.56-5.92a1.52,1.52,0,0,0-2.31,0c-.34.43-.49,1.17-.49,2.69s.14,2.27.49,2.7a1.54,1.54,0,0,0,2.31,0,4.6,4.6,0,0,0,.48-2.7A4.56,4.56,0,0,0,108.13,66.62Z"/><path d="M114.64,72.54a2.48,2.48,0,0,1-3.43,0c-.51-.61-.75-1.49-.75-3.23s.24-2.62.75-3.23a2.48,2.48,0,0,1,3.43,0c.5.61.73,1.49.73,3.23S115.14,71.93,114.64,72.54Zm-.56-5.92a1.52,1.52,0,0,0-2.31,0c-.34.43-.48,1.17-.48,2.69s.13,2.27.48,2.7a1.54,1.54,0,0,0,2.31,0c.34-.43.48-1.18.48-2.7S114.42,67.05,114.08,66.62Z"/><path d="M120.59,72.54a2.48,2.48,0,0,1-3.43,0c-.5-.61-.75-1.49-.75-3.23s.25-2.62.75-3.23a2.48,2.48,0,0,1,3.43,0c.5.61.74,1.49.74,3.23S121.09,71.93,120.59,72.54ZM120,66.62a1.52,1.52,0,0,0-2.31,0c-.34.43-.48,1.17-.48,2.69s.13,2.27.48,2.7A1.54,1.54,0,0,0,120,72c.34-.43.48-1.18.48-2.7S120.37,67.05,120,66.62Z"/><path d="M23.8,89.94a3.73,3.73,0,0,1-2.36,2.35v-.67c1-.47,2-1.39,2-3.64v-3.2h.73V88c0,2.25,1,3.15,2,3.64v.67A3.88,3.88,0,0,1,23.8,89.94Zm4.51-5.25v8.17h-.74v-4.5h-2v-.65h2v-3Z"/><path d="M30.24,88.59V88H37.6v.63H34.27v.92H37v2H31.53v.82h5.71V93H30.8v-2h5.51V90.1H30.8v-.59h2.74v-.92ZM30.63,86a.9.9,0,0,1,.4-.78,5.59,5.59,0,0,1,2.9-.49,5.46,5.46,0,0,1,2.88.49.94.94,0,0,1,0,1.55,5.44,5.44,0,0,1-2.88.5,5.57,5.57,0,0,1-2.9-.5A.89.89,0,0,1,30.63,86Zm.74,0a.41.41,0,0,0,.21.36,5.25,5.25,0,0,0,2.35.3,5.2,5.2,0,0,0,2.34-.3.39.39,0,0,0,.21-.36.43.43,0,0,0-.21-.37,5.35,5.35,0,0,0-2.34-.3,5.41,5.41,0,0,0-2.35.3A.45.45,0,0,0,31.37,86Z"/><path d="M39,89.88v-.62h7.35v.62ZM45.07,93V91.43H39.49v-.61H45.8V93Zm-4.79-6.14v.89h5.57v.6h-6.3V84.78H45.8v.62H40.28v.87H45.7v.59Z"/><path d="M48.75,86h2.44V84.78h.72v.79h2v-.88h.73v4.06h-.73v-1h-2v.74H48V84.78h.72Zm.53,5.46v.91h5.44V93H48.54v-2.1h5.34v-.91H48.54v-.59h6.07v2.1Zm1.91-3.56v-1.3H48.75v1.3Zm.72-1.72v1h2v-1Z"/><path d="M58.83,89.94a3.73,3.73,0,0,1-2.36,2.35v-.67c1-.47,2-1.39,2-3.64v-3.2h.73V88c0,2.25,1,3.15,2,3.64v.67A3.87,3.87,0,0,1,58.83,89.94Zm4.51-5.25v8.16H62.6V84.69Z"/><path d="M70.44,92.49c-2.11,0-2.72-1.64-2.72-3.7s.6-3.7,2.72-3.7,2.72,1.66,2.72,3.7S72.56,92.49,70.44,92.49Zm0-6.7c-1.49,0-1.93,1.16-1.93,3s.43,3,1.93,3,1.94-1.16,1.94-3S71.93,85.79,70.44,85.79Z"/><path d="M76.88,92.49c-2.11,0-2.72-1.64-2.72-3.7s.6-3.7,2.72-3.7,2.73,1.66,2.73,3.7S79,92.49,76.88,92.49Zm0-6.7c-1.49,0-1.93,1.16-1.93,3s.43,3,1.93,3,1.94-1.16,1.94-3S78.37,85.79,76.88,85.79Z"/><path d="M80.85,90.3v-.64h7.27v.64H84.84V93H84.1V90.3Zm6.09-3.64V85.43H81.25v-.65h6.42v1.81a11,11,0,0,1-.2,2.21h-.73A10.18,10.18,0,0,0,86.94,86.66Z"/><path d="M24,103.89c-2.11,0-2.72-1.63-2.72-3.7s.6-3.69,2.72-3.69,2.73,1.65,2.73,3.69S26.12,103.89,24,103.89Zm0-6.7c-1.49,0-1.92,1.16-1.92,3s.43,3,1.92,3,2-1.16,2-3S25.49,97.19,24,97.19Z"/><path d="M30.43,103.89c-2.1,0-2.72-1.63-2.72-3.7s.61-3.69,2.72-3.69,2.73,1.65,2.73,3.69S32.56,103.89,30.43,103.89Zm0-6.7c-1.48,0-1.92,1.16-1.92,3s.43,3,1.92,3,2-1.16,2-3S31.93,97.19,30.43,97.19Z"/><path d="M35.58,99.11v1.6h5.75v.63H38.42v1.92h3.25v.64H34.41v-.64h3.28v-1.92H34.85V98.48h5.64v-1.6H34.85v-.64h6.38v2.87Z"/><path d="M47.75,101.25a2.12,2.12,0,0,1-2.16-2.37,2.18,2.18,0,0,1,2.24-2.38,1.94,1.94,0,0,1,1.94,1.24,5.1,5.1,0,0,1,.3,2A6.6,6.6,0,0,1,49.5,103a1.8,1.8,0,0,1-1.69.87,1.85,1.85,0,0,1-2-1.75h.8a1.14,1.14,0,0,0,1.25,1.08c1,0,1.42-.84,1.47-2.81A1.63,1.63,0,0,1,47.75,101.25Zm.08-4.09c-.89,0-1.47.63-1.47,1.72s.58,1.71,1.47,1.71,1.46-.63,1.46-1.71S48.7,97.16,47.83,97.16Z"/><path d="M53.35,101.25a2.11,2.11,0,0,1-2.15-2.37,2.17,2.17,0,0,1,2.23-2.38,1.94,1.94,0,0,1,1.94,1.24,5.1,5.1,0,0,1,.3,2A6.6,6.6,0,0,1,55.1,103a1.79,1.79,0,0,1-1.69.87,1.86,1.86,0,0,1-2-1.75h.8a1.14,1.14,0,0,0,1.25,1.08c1,0,1.43-.84,1.47-2.81A1.62,1.62,0,0,1,53.35,101.25Zm.08-4.09c-.89,0-1.47.63-1.47,1.72s.58,1.71,1.47,1.71,1.46-.63,1.46-1.71S54.3,97.16,53.43,97.16Z"/><path d="M57.16,104.54a.53.53,0,0,0,.5-.6v-.17h-.42v-1.09h.87v1.21a1,1,0,0,1-1,1.06Z"/><path d="M64.73,103.77V97.43L63,98.22v-.76l1.88-.84h.67v7.15Z"/><path d="M71.58,100.3l-2.48,2.8h3.27v.67H68.09v-.61L71,99.9a1.79,1.79,0,0,0,.54-1.29,1.37,1.37,0,1,0-2.73,0v.21H68v-.21a2.15,2.15,0,0,1,4.3,0A2.32,2.32,0,0,1,71.58,100.3Z"/><path d="M75.75,100.3H75v-.66h.74A1.16,1.16,0,0,0,77,98.4a1.2,1.2,0,0,0-1.27-1.24,1.18,1.18,0,0,0-1.27,1.24v.11h-.78v-.17a2.05,2.05,0,0,1,4.08,0A1.59,1.59,0,0,1,76.64,100,1.73,1.73,0,0,1,78,101.79a2,2,0,0,1-2.24,2.1,2.08,2.08,0,0,1-2.26-2.15v-.09h.77v.06a1.4,1.4,0,0,0,1.49,1.51,1.39,1.39,0,0,0,1.48-1.46A1.36,1.36,0,0,0,75.75,100.3Z"/><path d="M86,96.82H80.53v1.47h5.56v.62H83.27V100h3.32v.63H79.24V100h3.29v-1.1H79.79V96.19H86ZM79.63,103a1.11,1.11,0,0,1,.61-1,7.72,7.72,0,0,1,5.36,0,1.12,1.12,0,0,1,.62,1,1.15,1.15,0,0,1-.62,1,7.88,7.88,0,0,1-5.36,0A1.14,1.14,0,0,1,79.63,103Zm.74,0a.58.58,0,0,0,.32.51,6.94,6.94,0,0,0,4.47,0,.56.56,0,0,0,.32-.51.59.59,0,0,0-.32-.51,7.12,7.12,0,0,0-4.47,0A.61.61,0,0,0,80.37,103Z"/><path d="M95.13,102.17h-.88v1.6h-.78v-1.6h-3v-.66l3-4.89h.85v4.89h.88Zm-1.66-.66V97.88l-2.19,3.63Z"/><path d="M97.21,100.56h-.77l.19-3.94h3.56v.66H97.35l-.12,2.49a1.48,1.48,0,0,1,1.29-.64c1.22,0,2,.83,2,2.4a2.09,2.09,0,0,1-2.19,2.36,2,2,0,0,1-2.18-2H97a1.33,1.33,0,0,0,1.41,1.35c.9,0,1.42-.6,1.42-1.71s-.52-1.71-1.42-1.71A1.22,1.22,0,0,0,97.21,100.56Z"/><path d="M104.07,99.13a2.12,2.12,0,0,1,2.15,2.38,2.17,2.17,0,0,1-2.22,2.38,1.94,1.94,0,0,1-2-1.24,5.1,5.1,0,0,1-.3-2,6.76,6.76,0,0,1,.56-3.32A1.81,1.81,0,0,1,104,96.5a1.86,1.86,0,0,1,2,1.75h-.8A1.14,1.14,0,0,0,104,97.16c-1,0-1.42.84-1.47,2.81A1.63,1.63,0,0,1,104.07,99.13Zm-.07,4.09c.88,0,1.46-.63,1.46-1.71s-.58-1.71-1.46-1.71-1.47.64-1.47,1.71S103.11,103.22,104,103.22Z"/><path d="M107.43,96.62h4.26v.6l-2.48,6.55h-.81l2.51-6.49h-3.48Z"/><path d="M113.54,100a1.32,1.32,0,0,1,.58-1.11,5.78,5.78,0,0,1,5.21,0,1.35,1.35,0,0,1,0,2.22,4,4,0,0,1-2.22.61v1.52h3.26v.64H113.1v-.64h3.28v-1.52a4.11,4.11,0,0,1-2.26-.61A1.32,1.32,0,0,1,113.54,100Zm6.58-2.51h-6.78v-.64h3V95.79h.75v1.08h3ZM114.27,100a.74.74,0,0,0,.32.61,4.9,4.9,0,0,0,4.27,0,.74.74,0,0,0,.32-.61.77.77,0,0,0-.32-.62,5,5,0,0,0-4.27,0A.77.77,0,0,0,114.27,100Z"/><path d="M23.75,107v.65c-1,0-1.41.55-1.41,4s.43,4,1.41,4v.66c-1.47,0-2.17-.72-2.17-4.64S22.28,107,23.75,107Z"/><path d="M27.17,115.29c-2.11,0-2.72-1.63-2.72-3.69s.6-3.7,2.72-3.7,2.73,1.65,2.73,3.7S29.29,115.29,27.17,115.29Zm0-6.69c-1.49,0-1.93,1.15-1.93,3s.43,3,1.93,3,1.94-1.16,1.94-3S28.66,108.6,27.17,108.6Z"/><path d="M33.61,115.29c-2.11,0-2.72-1.63-2.72-3.69s.6-3.7,2.72-3.7,2.73,1.65,2.73,3.7S35.73,115.29,33.61,115.29Zm0-6.69c-1.49,0-1.93,1.15-1.93,3s.43,3,1.93,3,1.94-1.16,1.94-3S35.1,108.6,33.61,108.6Z"/><path d="M44.34,108.22H38.83v1.47h5.56v.62H41.57v1.1h3.32V112H37.54v-.63h3.29v-1.1H38.09v-2.72h6.25Zm-6.41,6.21a1.13,1.13,0,0,1,.61-1,5.57,5.57,0,0,1,2.68-.48,5.54,5.54,0,0,1,2.68.48,1.14,1.14,0,0,1,.62,1,1.17,1.17,0,0,1-.62,1,5.58,5.58,0,0,1-2.68.46,5.6,5.6,0,0,1-2.68-.46A1.16,1.16,0,0,1,37.93,114.43Zm.74,0a.59.59,0,0,0,.32.51,4.78,4.78,0,0,0,2.23.36,4.8,4.8,0,0,0,2.24-.36.57.57,0,0,0,.32-.51.61.61,0,0,0-.32-.52,4.8,4.8,0,0,0-2.24-.36,4.78,4.78,0,0,0-2.23.36A.63.63,0,0,0,38.67,114.43Z"/><path d="M46.48,115.94a.53.53,0,0,0,.5-.59v-.18h-.42v-1.08h.87v1.2a.94.94,0,0,1-1,1.06Z"/><path d="M54.26,115.29c-2.11,0-2.72-1.63-2.72-3.69s.6-3.7,2.72-3.7S57,109.55,57,111.6,56.39,115.29,54.26,115.29Zm0-6.69c-1.49,0-1.93,1.15-1.93,3s.43,3,1.93,3,1.94-1.16,1.94-3S55.76,108.6,54.26,108.6Z"/><path d="M60.7,115.29c-2.11,0-2.72-1.63-2.72-3.69s.6-3.7,2.72-3.7,2.73,1.65,2.73,3.7S62.83,115.29,60.7,115.29Zm0-6.69c-1.49,0-1.92,1.15-1.92,3s.43,3,1.92,3,1.95-1.16,1.95-3S62.2,108.6,60.7,108.6Z"/><path d="M64.81,111.36c0-1.53.17-2.66.73-3.29a1.91,1.91,0,0,1,2.72,0,5.17,5.17,0,0,1,.73,3.29,5.14,5.14,0,0,1-.73,3.28,1.93,1.93,0,0,1-2.72,0C65,114,64.81,112.88,64.81,111.36Zm3.45,0a4.93,4.93,0,0,0-.53-2.86,1.1,1.1,0,0,0-.83-.36,1,1,0,0,0-.82.36,4.76,4.76,0,0,0-.54,2.86,4.84,4.84,0,0,0,.54,2.87,1,1,0,0,0,.82.35,1.09,1.09,0,0,0,.83-.35A5,5,0,0,0,68.26,111.36Zm3-3.86v3.43h1.33v.64H71.26v4.1h-.73V107.5Z"/><path d="M74.4,114.46v-6.18h-.84v-.63h4.68v.63h-.86v3.59a13.62,13.62,0,0,1-.2,2.59h.22a2.86,2.86,0,0,0,1.89-.57V107.5H80v3.43h1.33v.64H80v4.1h-.73v-1.16a2.91,2.91,0,0,1-2,.58H73.46v-.63Zm2.26-2.2v-4H75.12v6.18h1.36A11.55,11.55,0,0,0,76.66,112.26Z"/><path d="M82.19,115.3v-.64h7.27v.64Zm6.82-7H83.36v1.66h5.55v.64H83.36v1.66h5.76v.63H82.63v-5.22H89Z"/><path d="M90.41,116.27v-.66c1,0,1.41-.54,1.41-4s-.42-4-1.41-4V107c1.47,0,2.17.72,2.17,4.62S91.88,116.27,90.41,116.27Z"/><path d="M104.9,131l-2.62,3h3.47v.71H101.2V134l3-3.46a1.93,1.93,0,0,0,.58-1.37,1.46,1.46,0,1,0-2.91,0v.21h-.82v-.22a2.28,2.28,0,0,1,4.56,0A2.41,2.41,0,0,1,104.9,131Z"/><path d="M111,134.11a2.45,2.45,0,0,1-3.43,0c-.5-.61-.75-1.48-.75-3.22s.25-2.62.75-3.23a2.45,2.45,0,0,1,3.43,0c.5.61.74,1.48.74,3.23S111.54,133.5,111,134.11Zm-.56-5.92a1.54,1.54,0,0,0-2.31,0c-.34.44-.48,1.18-.48,2.7s.13,2.27.48,2.7a1.56,1.56,0,0,0,2.31,0c.34-.43.48-1.18.48-2.7S110.82,128.63,110.48,128.19Z"/><path d="M116.81,131l-2.63,3h3.47v.71h-4.54V134l3-3.46a1.92,1.92,0,0,0,.57-1.37,1.46,1.46,0,1,0-2.91,0v.21H113v-.22a2.28,2.28,0,0,1,4.56,0A2.43,2.43,0,0,1,116.81,131Z"/><path d="M122.94,134.11a2.45,2.45,0,0,1-3.43,0c-.5-.61-.74-1.48-.74-3.22s.24-2.62.74-3.23a2.45,2.45,0,0,1,3.43,0c.51.61.74,1.48.74,3.23S123.45,133.5,122.94,134.11Zm-.56-5.92a1.39,1.39,0,0,0-1.15-.52,1.42,1.42,0,0,0-1.16.52,4.62,4.62,0,0,0-.48,2.7c0,1.52.14,2.27.48,2.7a1.4,1.4,0,0,0,1.16.51,1.37,1.37,0,0,0,1.15-.51c.34-.43.49-1.18.49-2.7A4.52,4.52,0,0,0,122.38,128.19Z"/><path d="M126.15,134.69h-.92v-1.16h.92Z"/><path d="M134.69,134.11a2.45,2.45,0,0,1-3.43,0c-.5-.61-.75-1.48-.75-3.22s.25-2.62.75-3.23a2.45,2.45,0,0,1,3.43,0c.5.61.74,1.48.74,3.23S135.19,133.5,134.69,134.11Zm-.56-5.92a1.54,1.54,0,0,0-2.31,0c-.34.44-.48,1.18-.48,2.7s.13,2.27.48,2.7a1.56,1.56,0,0,0,2.31,0c.34-.43.48-1.18.48-2.7S134.47,128.63,134.13,128.19Z"/><path d="M140.64,134.11a2.45,2.45,0,0,1-3.43,0c-.5-.61-.74-1.48-.74-3.22s.24-2.62.74-3.23a2.45,2.45,0,0,1,3.43,0c.51.61.74,1.48.74,3.23S141.15,133.5,140.64,134.11Zm-.56-5.92a1.39,1.39,0,0,0-1.15-.52,1.41,1.41,0,0,0-1.16.52c-.34.44-.48,1.18-.48,2.7s.13,2.27.48,2.7a1.39,1.39,0,0,0,1.16.51,1.37,1.37,0,0,0,1.15-.51c.34-.43.48-1.18.48-2.7S140.42,128.63,140.08,128.19Z"/><path d="M143.85,134.69h-.92v-1.16h.92Z"/><path d="M152.39,134.11a2.45,2.45,0,0,1-3.43,0c-.51-.61-.75-1.48-.75-3.22s.24-2.62.75-3.23a2.45,2.45,0,0,1,3.43,0c.5.61.73,1.48.73,3.23S152.89,133.5,152.39,134.11Zm-.56-5.92a1.54,1.54,0,0,0-2.31,0c-.34.44-.48,1.18-.48,2.7s.13,2.27.48,2.7a1.56,1.56,0,0,0,2.31,0c.34-.43.48-1.18.48-2.7S152.17,128.63,151.83,128.19Z"/><path d="M158.34,134.11a2.45,2.45,0,0,1-3.43,0c-.5-.61-.75-1.48-.75-3.22s.25-2.62.75-3.23a2.45,2.45,0,0,1,3.43,0c.5.61.74,1.48.74,3.23S158.84,133.5,158.34,134.11Zm-.56-5.92a1.39,1.39,0,0,0-1.15-.52,1.41,1.41,0,0,0-1.16.52c-.34.44-.48,1.18-.48,2.7s.13,2.27.48,2.7a1.39,1.39,0,0,0,1.16.51,1.37,1.37,0,0,0,1.15-.51c.34-.43.48-1.18.48-2.7S158.12,128.63,157.78,128.19Z"/><path d="M77.79,145.75a4.87,4.87,0,0,1-3.1,3.09V148c1.35-.61,2.62-1.82,2.62-4.78V139h1v4.2c0,3,1.28,4.13,2.61,4.78v.88A5.11,5.11,0,0,1,77.79,145.75Zm5.92-6.89v10.72h-1v-5.9H80.08v-.85h2.66v-4Z"/><path d="M86.24,144v-.83H95.9V144H91.54v1.21h3.63v2.66H87.93v1.08h7.5v.77H87v-2.64h7.24V146H87v-.78h3.61V144Zm.52-3.45a1.19,1.19,0,0,1,.53-1c.65-.46,1.9-.64,3.79-.64s3.14.18,3.79.64a1.23,1.23,0,0,1,0,2c-.65.46-1.89.65-3.79.65s-3.14-.19-3.79-.65A1.18,1.18,0,0,1,86.76,140.53Zm1,0A.53.53,0,0,0,88,141a7,7,0,0,0,3.08.39,7,7,0,0,0,3.08-.39.54.54,0,0,0,.28-.47.58.58,0,0,0-.28-.49,7,7,0,0,0-3.08-.4A7,7,0,0,0,88,140,.57.57,0,0,0,87.73,140.53Z"/><path d="M97.74,145.68v-.83h9.65v.83Zm8,4.08V147.7H98.38v-.8h8.28v2.86Zm-6.27-8v1.16h7.3v.79H98.47V139h8.19v.81H99.43v1.15h7.1v.78Z"/><path d="M110.54,140.57h3.2V139h.94v1h2.59v-1.15h1v5.33h-1v-1.31h-2.59v1h-5.09V139h1Zm.69,7.16v1.2h7.14v.77h-8.11V147h7v-1.2h-7V145h8v2.76Zm2.51-4.67v-1.7h-3.2v1.7Zm.94-2.25v1.26h2.59v-1.26Z"/><path d="M123.77,145.75a4.89,4.89,0,0,1-3.1,3.09V148c1.35-.61,2.62-1.82,2.62-4.78V139h1v4.2c0,3,1.28,4.13,2.61,4.78v.88A5.08,5.08,0,0,1,123.77,145.75Zm5.92-6.89v10.71h-1V138.86Z"/><path d="M139,149.09c-2.77,0-3.57-2.14-3.57-4.85s.79-4.85,3.57-4.85,3.58,2.17,3.58,4.85S141.79,149.09,139,149.09Zm0-8.79c-1.95,0-2.53,1.52-2.53,3.94s.56,3.94,2.53,3.94,2.55-1.52,2.55-3.94S141,140.3,139,140.3Z"/><path d="M147.45,149.09c-2.76,0-3.57-2.14-3.57-4.85s.79-4.85,3.57-4.85,3.58,2.17,3.58,4.85S150.24,149.09,147.45,149.09Zm0-8.79c-1.95,0-2.52,1.52-2.52,3.94s.56,3.94,2.52,3.94,2.55-1.52,2.55-3.94S149.42,140.3,147.45,140.3Z"/><path d="M152.67,146.23v-.85h9.54v.85h-4.3v3.53h-1v-3.53Zm8-4.78v-1.62h-7.47V139h8.43v2.38a15.1,15.1,0,0,1-.26,2.89h-1A13.47,13.47,0,0,0,160.66,141.45Z"/><path d="M164.47,139.86h2.24v-1.33h.95v1.33h2.24v.84h-2.24v.14a3,3,0,0,0,2.44,3.06v.87a4.18,4.18,0,0,1-2.89-2.05,4.19,4.19,0,0,1-2.92,2.19V144a3.08,3.08,0,0,0,2.42-3.2v-.14h-2.24Zm.5,7.87a1.67,1.67,0,0,1,.93-1.49,8.6,8.6,0,0,1,6.51,0,1.69,1.69,0,0,1,.93,1.49,1.71,1.71,0,0,1-.93,1.5,8.85,8.85,0,0,1-6.51,0A1.69,1.69,0,0,1,165,147.73Zm1,0a.93.93,0,0,0,.5.8,7.62,7.62,0,0,0,5.43,0,.92.92,0,0,0,.51-.8.9.9,0,0,0-.51-.79,7.48,7.48,0,0,0-5.43,0A.91.91,0,0,0,165.94,147.73Zm7.16-2.64h-1v-2.51h-2.33v-.84h2.33v-2.88h1Z"/><path d="M175.82,139h5.45v.84H179v.77a3,3,0,0,0,2.44,3v.87a4.21,4.21,0,0,1-2.9-2,4.14,4.14,0,0,1-2.92,2.19v-.86a3.06,3.06,0,0,0,2.42-3.2v-.77h-2.24Zm.48,8.65a1.73,1.73,0,0,1,.8-1.46,7.52,7.52,0,0,1,6.67,0,1.73,1.73,0,0,1,.8,1.46,1.77,1.77,0,0,1-.8,1.48,7.89,7.89,0,0,1-6.67,0A1.77,1.77,0,0,1,176.3,147.63Zm1,0a1.06,1.06,0,0,0,.51.87,5.09,5.09,0,0,0,2.66.52,5.21,5.21,0,0,0,2.67-.52,1,1,0,0,0,.49-.87,1,1,0,0,0-.49-.86,5.08,5.08,0,0,0-2.67-.54,5,5,0,0,0-2.66.54A1,1,0,0,0,177.27,147.63Zm7-8.77v2.5h1.64v.85H184.3V145h-1v-6.1Z"/><rect class="cls-4" x="165.64" y="18.53" width="75.26" height="90.09"/><rect class="cls-5" x="190.3" y="117.17" width="32.79" height="32.78" rx="1.34"/><g class="cls-6"><rect class="cls-7" x="191.58" y="118.45" width="30.17" height="30.5" rx="1.24"/></g><g class="cls-8"><rect class="cls-7" x="206.66" y="133.7" width="13.45" height="13.59" rx="0.55"/></g><rect class="cls-9" x="79.93" y="63.33" width="60.66" height="12.42"/><path class="cls-10" d="M240.9,108.62v-8.57c-7.72-6.18-20.79-9.82-43-9.82-14.07,0-24.53,2.16-32.3,6v12.43Z"/><path class="cls-11" d="M216.51,59.76s2.68-5.15,6.53-2.5,2.59,9.32-6.84,10.42"/><path class="cls-12" d="M218.57,63a.54.54,0,0,1-.36-.93L220.46,60a.54.54,0,0,1,.73.79l-2.26,2.09A.54.54,0,0,1,218.57,63Z"/><path class="cls-11" d="M215.85,92.48c0,6.56-5.32,7.93-11.88,7.93l-1.5-1.25c-6.57,0-11.88-.12-11.88-6.68V76.58A11.88,11.88,0,0,1,202.47,64.7H204a11.88,11.88,0,0,1,11.88,11.88Z"/><path class="cls-13" d="M216.05,77.42s-10.65,6.34-15.3,3.41l15,11.12Z"/><path class="cls-11" d="M218.91,69.38c0,8.8-5.89,13.44-14.69,13.44h-2c-8.81,0-14.69-4.64-14.69-13.44l-1.25-21.32a15.93,15.93,0,0,1,15.94-15.94h2a15.93,15.93,0,0,1,15.93,15.94Z"/><path class="cls-11" d="M189.26,60s-2.67-5.15-6.53-2.5-2.59,9.32,6.84,10.42"/><path class="cls-12" d="M187.2,63.24a.54.54,0,0,1-.36-.14L184.58,61a.53.53,0,0,1,0-.75.54.54,0,0,1,.76,0l2.25,2.09a.54.54,0,0,1-.36.93Z"/><path class="cls-14" d="M220.81,37.64a9,9,0,0,0,1.13-4.31A9.07,9.07,0,0,0,205,28.78a8.65,8.65,0,0,0-12.44,5.77c-2.45.41-4.39.5-6.36,3-3.6,4.61-2,12.61-.22,17.6l.63,1.68a63.82,63.82,0,0,1,4.28-11.21c8.05,5.42,16.48,2.25,24-2.16,1.67,5.81,3.34,11.74,4.72,12.18C221.93,51.57,224.59,40.5,220.81,37.64Z"/><path class="cls-15" d="M240.9,100.05V18.53H165.64V96.19c7.77-3.8,18.23-6,32.3-6C220.11,90.23,233.18,93.87,240.9,100.05Z"/><polygon class="cls-16" points="202.85 100.61 203.46 100.99 198.63 108.62 208.45 108.62 203.25 100.39 203.86 100.01 208.6 107.53 208.9 107.23 205.34 98.48 196.06 105.62 197.34 107.36 198.1 108.13 202.85 100.61"/><polygon class="cls-10" points="216.35 87.84 203.25 100.05 208.54 108.1 221 95.63 216.35 87.84"/><polygon class="cls-10" points="190.18 87.39 203.56 100.2 197.49 108.47 186.26 95.63 190.18 87.39"/><polygon class="cls-12" points="202.85 100.61 198.1 108.13 197.34 107.36 185.96 95.97 185.45 96.48 197.59 108.62 198.26 108.62 198.63 108.62 203.46 100.99 202.85 100.61"/><polygon class="cls-12" points="220.75 95.38 208.9 107.23 208.6 107.53 203.86 100.01 203.25 100.39 208.45 108.62 208.52 108.62 209.19 107.95 221.26 95.88 220.75 95.38"/><path class="cls-12" d="M198.08,57.68c-1.26-.81-1.52,1.73-1.19,2.44.78,1.71,1.81-.81,1.35-2.1Z"/><path class="cls-12" d="M197.47,61.05c-.26,0-.61-.14-.9-.78A3.11,3.11,0,0,1,197,57.4a1,1,0,0,1,1.26,0l.08.06.2.42c.37,1,0,2.81-.82,3.14A.68.68,0,0,1,197.47,61.05Zm.15-3.17a.16.16,0,0,0-.13.06,2.5,2.5,0,0,0-.27,2c.15.33.25.37.26.37a.85.85,0,0,0,.21-.26,2.83,2.83,0,0,0,.21-1.95l-.09-.2A.41.41,0,0,0,197.62,57.88Z"/><path class="cls-12" d="M212,57.68c-1.27-.81-1.52,1.73-1.19,2.44.78,1.71,1.8-.81,1.35-2.1Z"/><path class="cls-12" d="M211.35,61.05c-.25,0-.6-.14-.89-.78a3.09,3.09,0,0,1,.45-2.87,1,1,0,0,1,1.25,0l.08.06.21.42c.36,1,0,2.82-.83,3.14A.62.62,0,0,1,211.35,61.05Zm.16-3.17a.15.15,0,0,0-.13.06,2.5,2.5,0,0,0-.28,2c.15.33.26.37.26.37a.66.66,0,0,0,.22-.27,2.8,2.8,0,0,0,.21-1.94l-.09-.19A.34.34,0,0,0,211.51,57.88Z"/><path class="cls-17" d="M203.33,67.4s0,.1,0,.12S203.33,67.36,203.33,67.4Z"/><polygon class="cls-17" points="203.65 67.14 203.64 67.19 203.7 67.07 203.65 67.14"/><path class="cls-17" d="M204,67.16c0-.2-.11,0-.16,0v0l0,.16C203.82,67.2,203.91,67.1,204,67.16Z"/><path class="cls-17" d="M204.09,67.61c0-.08,0-.06,0,0v0S204.07,67.61,204.09,67.61Z"/><path class="cls-17" d="M204.05,67.61s0,.06,0,0Z"/><path class="cls-17" d="M204.21,67.57l-.05.07s.05.06,0,.09S204.23,67.65,204.21,67.57Z"/><path class="cls-17" d="M204.26,67.42l0,0S204.25,67.48,204.26,67.42Z"/><path class="cls-17" d="M204.19,67.51l.05-.06s0-.1,0,0C204.22,67.41,204.21,67.47,204.19,67.51Z"/><path class="cls-17" d="M204.16,67.48s0-.08,0-.14S204.08,67.5,204.16,67.48Z"/><path class="cls-17" d="M204,67l0-.06,0,.07S204,67,204,67Z"/><path class="cls-17" d="M204.49,67.69s0-.11,0-.17l0,0S204.49,67.63,204.49,67.69Z"/><path class="cls-17" d="M204.48,67.52l.05-.07S204.48,67.47,204.48,67.52Z"/><polygon class="cls-17" points="204.29 67.2 204.2 67.35 204.3 67.2 204.29 67.2"/><polygon class="cls-17" points="204.68 67.7 204.65 67.81 204.71 67.66 204.68 67.7"/><path class="cls-17" d="M204.82,67.69c0,.09,0,.14,0,.19s.07-.08.1-.15S204.86,67.76,204.82,67.69Z"/><path class="cls-17" d="M205,67.64l-.05.09A.24.24,0,0,0,205,67.64Z"/><path class="cls-17" d="M204.61,67.47s0,.1,0,.13l0-.12Z"/><path class="cls-17" d="M204.63,67.47h0Z"/><path class="cls-17" d="M204.61,67.47Z"/><path class="cls-17" d="M204.4,67.32c0-.07.1-.14,0-.25C204.42,67.16,204.45,67.22,204.4,67.32Z"/><path class="cls-17" d="M204.59,67.32l-.05,0s0,.08,0,.11Z"/><polygon class="cls-17" points="204.62 67.28 204.59 67.32 204.61 67.33 204.62 67.28"/><path class="cls-17" d="M204.87,67.52a.11.11,0,0,1,.08-.06.12.12,0,0,0-.09,0S204.84,67.53,204.87,67.52Z"/><path class="cls-17" d="M204.75,67.49h0S204.75,67.47,204.75,67.49Z"/><polygon class="cls-17" points="205.25 67.45 205.25 67.43 205.25 67.45 205.25 67.45"/><path class="cls-17" d="M204.85,67.4s0,0,0,0l.06,0S204.86,67.39,204.85,67.4Z"/><path class="cls-17" d="M205.05,67.58a.25.25,0,0,0,0-.07S205.05,67.61,205.05,67.58Z"/><path class="cls-17" d="M204.77,67.52h0S204.77,67.54,204.77,67.52Z"/><path class="cls-17" d="M204.77,67.52l0-.08s0,0,0,0Z"/><path class="cls-17" d="M205.29,66.66c0,.12,0,.23-.11.11a1.49,1.49,0,0,0,.07.66.2.2,0,0,1,0-.17c0-.06-.13-.13-.09-.24s.06,0,.1.1c0-.14.08-.22,0-.42l-.05.08A.48.48,0,0,0,205.29,66.66Z"/><path class="cls-17" d="M205.14,67.42l0,0s0,.06.09.15a.34.34,0,0,0,.05-.14h-.12Z"/><path class="cls-17" d="M205,67.44c0-.12.07-.18,0-.31s-.05.1-.09.16,0,.07,0,.14,0,0-.06,0l.06.05h0s0,0,0,0h0v0s0,0,0,0v0h0l.1-.07S205.06,67.43,205,67.44Z"/><path class="cls-17" d="M204.52,66.81v0S204.53,66.82,204.52,66.81Z"/><path class="cls-17" d="M204.55,66.89s0,.06,0,0,0-.06,0-.1a.12.12,0,0,0,0,.15v0a.49.49,0,0,1,.08.22C204.58,67.08,204.57,67,204.55,66.89Z"/><path class="cls-17" d="M204.78,67.14l.08-.06,0-.11V67S204.78,67.09,204.78,67.14Z"/><polygon class="cls-17" points="205.26 67.51 205.26 67.64 205.3 67.46 205.26 67.51"/><polygon class="cls-17" points="205.39 67.49 205.39 67.6 205.42 67.53 205.39 67.49"/><path class="cls-17" d="M205.34,62.05h0Z"/><path class="cls-17" d="M205.37,62.22h0Z"/><path class="cls-17" d="M207.37,65c.1-.05.26-.11.14-.09l-.13,0S207.4,65,207.37,65Z"/><path class="cls-17" d="M206.36,63.41l0,0h.12Z"/><path class="cls-17" d="M205.85,63.51l.07-.07Z"/><path class="cls-17" d="M205,61.19h-.13S204.91,61.2,205,61.19Z"/><path class="cls-17" d="M206.78,67a.34.34,0,0,0,.15,0C206.83,67,206.73,66.92,206.78,67Z"/><path class="cls-17" d="M206.62,61.78h0Z"/><path class="cls-17" d="M207,66.92h0a.13.13,0,0,1-.07.09C207,67,207.07,67,207,66.92Z"/><path class="cls-17" d="M204.22,57.84h0S204.21,57.84,204.22,57.84Z"/><path class="cls-17" d="M205.24,56.62l0,0S205.26,56.64,205.24,56.62Z"/><path class="cls-17" d="M205.9,67.47s0,0,0,0Z"/><path class="cls-17" d="M205.69,67v0Z"/><path class="cls-17" d="M206.61,66.23h0S206.59,66.22,206.61,66.23Z"/><path class="cls-17" d="M205.85,67.42l0,0S205.87,67.43,205.85,67.42Z"/><path class="cls-17" d="M205.87,67.48h0S205.85,67.5,205.87,67.48Z"/><path class="cls-17" d="M205.94,67.46h-.05s0,0,0,0Z"/><path class="cls-17" d="M205,59.55h0C204.94,59.53,205,59.54,205,59.55Z"/><polygon class="cls-17" points="206.03 64.59 206.04 64.6 206.04 64.59 206.03 64.59"/><path class="cls-17" d="M205.93,64.52c.16,0,.14,0,.11.07l.36,0Z"/><path class="cls-17" d="M205.2,61.67l-.1.08c-.19,0-.14-.08-.28,0,.38-.09.09.2.47.11l-.07.05s0,0,0,0c-.16.11.29,0,.26.08a.11.11,0,0,1-.12.06l.11.05s-.07,0-.07,0l.06.1h0l.2,0s0,0-.08,0l.1,0c-.09,0-.19,0-.19,0-.36.15.11,0-.08.2l-.06,0c-.21.09-.12.11-.24.21.07,0,.31-.22.42-.18s0,.06.05.07c-.13,0-.09.06-.07.1l-.18,0a.62.62,0,0,0,.24,0c0,.06-.14.1-.26.14s.21-.11.27,0,0,.11.16.16c-.05.07-.11,0-.16,0h.15s0,0-.06,0,.17,0,.24,0-.26.19,0,.2c-.05,0-.11,0-.18,0a1.06,1.06,0,0,0,.34.08l-.1.09a.72.72,0,0,1,.44,0l.13-.08.12.07a.52.52,0,0,1-.17,0h.05a.45.45,0,0,1-.27.06l.1-.06a1.32,1.32,0,0,0-.34,0l.06,0H206s0,0,.07,0l-.19.07.08,0-.1.14c.22,0,.53,0,.64.15a2.27,2.27,0,0,0-.41.08c.17-.07-.1-.08-.08-.15s-.09,0-.13,0l.2.08c-.14,0-.1.05-.15.09.27-.08.2.05.3.08-.09,0-.19,0-.18,0-.2.1.34,0,.17.11,0,0,0,0,0,0s0,.1,0,.1v0c0,.09,0,.26.28.26H206l.42.06.41.06c-.21,0-.7.09-.82,0s-.06.06,0,.11a.83.83,0,0,1,.31,0,1.28,1.28,0,0,0-.31.15c.05,0,.37,0,.37,0s-.32,0-.36,0l.33.06A.85.85,0,0,0,206,65c.06,0,0,.08,0,.1l.07,0c0,.12.46,0,.46.15a1.28,1.28,0,0,0-.44.09,3.23,3.23,0,0,1,.94.08l-.09,0,.12.06-1-.11c-.07,0-.11,0-.09.08s-.14,0-.15,0l0,.14c.19,0,.2.06.36,0l-.22-.1c.19,0,.56,0,.53.1a2.84,2.84,0,0,1-.41,0c.07,0,.13.05.09.05l-.11,0c-.07,0,.26.06.08.08,0,0-.25,0-.14,0a9.32,9.32,0,0,1,1.06.18.86.86,0,0,1-.32.1c-.17,0-.41-.17-.56-.19l.14.06s-.16,0-.14,0c.19.08,0,.06.16.08,0,0,0,0-.06.06a1,1,0,0,1,.42.33.53.53,0,0,0-.14-.06c-.08.06-.18,0-.25.1a.51.51,0,0,1-.16-.12s.06.08,0,.1,0,0-.15-.19a.32.32,0,0,1,.08.23c.12.14.1,0,.07-.09a.65.65,0,0,1,.23.57c-.06.11-.12-.1-.12-.06-.18,0,0,.44-.22.34a1,1,0,0,1-.14-.4c0-.07.14.06.19,0l-.09,0s0-.1.07-.07-.25.07-.4,0a.25.25,0,0,0,0,.17l0,0c.06.11,0,.18,0,.23s-.07.24-.16.19l0-.17s.06.09.08,0-.15-.21-.15,0l.07.11c-.05.1-.1.29-.17.24.05.17,0,0,.08.18-.07-.25.19,0,.08-.27.09.23.11.08.22.27,0-.06,0-.1,0-.09v0h0s0,0,0,0a.2.2,0,0,1,0-.08c0-.13.1-.15.11-.22s0,.07,0,.12l0-.11c0,.13.15.19.08.28l.08,0a.14.14,0,0,0,.21,0c.06,0,.07-.17.07-.07l.12-.13,0,0c.16-.08.14-.33.45-.27,0-.06,0-.13.11-.17l.1.05c0-.08.23-.11.13-.21.3.07.22-.31.26-.42l-.14,0a.46.46,0,0,0-.05-.29h-.13c-.1-.09.09-.21.06-.35s0,0,0,.07c.27-.24-.25-.24-.05-.39-.05,0,0,0,0-.06h0l.06,0-.06,0-.06-.06.13,0h0c.05,0-.07,0-.17,0l-.09,0c.22,0-.08-.06.15-.12-.12,0-.1-.11-.34-.1,0,0,0,0,0,0s.05-.06,0-.08l.17,0-.24,0a.38.38,0,0,1,.3,0c-.21-.08-.09-.08-.3-.16H207s-.17-.07-.08-.1,0-.38.14-.58c-.32.1.12-.11-.13-.06.07,0,.11-.07.19-.05-.1-.07.09-.16-.14-.18.07,0,.12,0,.16,0s-.07,0,0,0,.07,0,.11,0-.28,0-.5,0c.09-.06.07-.08-.08-.08.07,0,.14-.08.18,0s.06-.22-.12-.18c.05,0,0,0,0-.05s0-.08,0-.14l0,0c-.22,0-.06,0-.1-.1h0c.12-.16-.09,0,.06-.2l-.13,0c-.29.06.14-.15,0-.2l-.07.05c-.11,0,.36-.21.39-.26s0,0,.06,0-.18,0-.24,0c.09,0,.25,0,.25-.1s-.34-.07-.18-.19a.26.26,0,0,1-.2,0s.23-.22,0-.21l.06,0c-.07,0-.14-.11-.27-.1.45-.16-.29-.2.13-.31l0-.12h0c0-.08-.1-.09-.21-.09a.15.15,0,0,1,.09,0c.05-.15,0-.15-.2-.19l.13,0c-.09,0,.17-.23,0-.3h.06c-.19-.08.3-.41-.21-.32l-.15-.06c0,.13-.22,0-.29.11s.12-.15.16-.1h0c.26,0,0-.16.23-.21-.07-.21,0-.46,0-.67l-.19.08v-.08s.15-.06.16,0-.12-.06-.16,0,.24,0,.24-.05l0,0h0c-.09,0-.18,0-.18-.05s.12,0,.12-.07,0,0,0,0V59l-.15.08c-.09,0,0-.09-.18,0,.26-.13,0-.36.09-.42-.13,0-.14-.08-.15-.15s-.2.08-.2,0c.38-.07.14-.15.4-.26-.17.09-.09-.16-.32,0,0,0,.14,0,.21-.09-.17-.09,0-.28-.05-.41s-.11.05-.19,0l.22-.13s-.29,0-.13-.05c0,0-.1,0-.12,0,.17-.33-.32-.53.08-.9-.09.05-.1,0-.11,0s-.13,0-.19,0l.16-.16c-.19,0,0-.12-.22-.1l0,0c-.22,0-.45.15-.72.19.25,0-.33.22,0,.25-.06,0-.1,0-.16,0,.12,0,.15,0,.11.1h0c.06.15,0,.23-.08.43l.13-.05c0,.05-.05.06-.08.09.21,0,0-.11.22-.12-.26.11.05.26-.24.36,0,.06.15-.05.16,0l-.08,0h.11s-.11.09-.18.1,0,0,0,0,.06.13,0,.15l0-.06c.12.13.05.35.25.46l.06,0c.15.09,0,.11,0,.22h0c.07,0,.11,0,.11.07s-.12.09-.21.07c.15.09.11,0,.36.06l-.1,0c.1,0,.15,0,.19,0s-.14.08-.28.05c-.19.19.28.14,0,.28.3,0,.13-.15.2-.13s.22,0,.2,0-.34.16-.31.26h0c-.07,0,.11,0,0,.13.18,0,0,.06.22,0l-.07-.08c.07,0,.34,0,.24.14a.37.37,0,0,1-.15,0c-.06,0,.06,0,0,.08-.22,0-.08-.1-.26-.12s.18.07-.06.1c.31,0,0,.12.24.13l-.14,0s.1,0,.1,0h-.18c.16,0-.1.14,0,.17s.15-.06.24-.14c.21.1-.32.17-.22.31s.06-.1.13-.08a.32.32,0,0,1-.13.13c.06.09.14-.06.23,0-.15.08.08,0,.14.06l-.13,0c-.06.14.28,0,.21.09h-.2l.06,0-.15,0c.13,0,.1.05.08.12s.24-.05.26,0-.13,0-.09.08-.2,0-.09,0h-.13c-.08.07,0,.11,0,.13l0,0,.21,0a.21.21,0,0,1-.13,0s.08,0,.1,0a.49.49,0,0,1-.28,0l.15.07c-.05,0-.12.08-.16.08s.25.08.18.18h.07c0,.08-.13.18.05.22l-.19.1c.07.06.23-.13.33,0s-.15.08-.2.12c.11,0,.32,0,.19.14S205.22,61.69,205.2,61.67Zm.3.78s-.13,0-.05-.05S205.53,62.41,205.5,62.45Zm.63,1.14s0,0,0-.06S206.16,63.56,206.13,63.59Zm0,3.7h0C206.25,67.31,206.22,67.3,206.17,67.29Zm-.1,0a0,0,0,0,0,0,0s0,0,0,0S206.08,67.22,206.07,67.26Zm-.25-8.18,0,0S205.78,59.09,205.82,59.08Z"/><path class="cls-17" d="M205.91,63.5l.07,0A.11.11,0,0,0,205.91,63.5Z"/><polygon class="cls-17" points="204.99 61.19 204.99 61.18 204.97 61.19 204.99 61.19"/><path class="cls-17" d="M206.16,65.78h.07A.08.08,0,0,0,206.16,65.78Z"/><path class="cls-17" d="M205.63,67.58l.05,0s0,0-.06,0S205.65,67.58,205.63,67.58Z"/><path class="cls-17" d="M205.1,66.77s0,0,0,0v.06S205.13,66.79,205.1,66.77Z"/><path class="cls-17" d="M205.52,67.13c0-.11-.05-.07-.08,0h0C205.45,67.25,205.49,67.19,205.52,67.13Z"/><path class="cls-17" d="M205.43,67.09h0C205.4,67.16,205.41,67.11,205.43,67.09Z"/><path class="cls-17" d="M206,67.36s0,.15,0,.1C206,67.61,206.06,67.26,206,67.36Z"/><polygon class="cls-17" points="205.45 66.76 205.47 66.9 205.48 66.78 205.45 66.76"/><path class="cls-17" d="M205.73,66.82l-.06,0a.07.07,0,0,1,0,0S205.74,66.86,205.73,66.82Z"/><path class="cls-17" d="M205.66,66.84s0,0,0,0A.05.05,0,0,0,205.66,66.84Z"/><polygon class="cls-17" points="205.51 66.71 205.53 66.73 205.57 66.74 205.51 66.71"/><path class="cls-17" d="M206.34,66.66l0-.07s-.06-.06-.07,0S206.3,66.62,206.34,66.66Z"/><path class="cls-17" d="M206,66.37l.07.1L206,66.3Z"/><path class="cls-17" d="M206.08,66.29s0-.14-.07-.11S206,66.28,206.08,66.29Z"/><polygon class="cls-17" points="206.66 65.85 206.66 65.86 206.94 65.93 206.66 65.85"/><path class="cls-17" d="M205.9,65.2c-.06.08.18,0,.1.07.07,0,.06-.07.13-.06S206.09,65.15,205.9,65.2Z"/><path class="cls-17" d="M206.13,65.21l0,0Z"/><polygon class="cls-17" points="205.36 56.44 205.41 56.39 205.32 56.43 205.36 56.44"/><path class="cls-17" d="M205.13,56.39l.18,0h-.17S205.17,56.38,205.13,56.39Z"/><path class="cls-17" d="M205.17,62.66h0s0,0,0-.06Z"/><polygon class="cls-17" points="205.15 62.05 205.15 62.06 205.3 62 205.15 62.05"/><path class="cls-17" d="M204.81,61.61s0,0,0,.06S205,61.55,204.81,61.61Z"/><path class="cls-17" d="M203.7,71.31s0-.1-.06-.12S203.72,71.33,203.7,71.31Z"/><polygon class="cls-17" points="203.68 71.62 203.66 71.57 203.69 71.69 203.68 71.62"/><path class="cls-17" d="M203.53,71.68c.09.18,0-.05.1,0l0,0-.06-.15S203.57,71.73,203.53,71.68Z"/><path class="cls-17" d="M203.29,71.31c0,.07,0,.07,0,0v0Z"/><path class="cls-17" d="M203.31,71.31s0-.06,0,0Z"/><path class="cls-17" d="M203.26,71.37V71.3s0,0,0-.08S203.22,71.3,203.26,71.37Z"/><path class="cls-17" d="M203.29,71.52v0S203.28,71.46,203.29,71.52Z"/><path class="cls-17" d="M203.29,71.42v.07s0,.09,0,0C203.31,71.52,203.3,71.47,203.29,71.42Z"/><path class="cls-17" d="M203.31,71.45a.23.23,0,0,1,.06.13S203.34,71.41,203.31,71.45Z"/><path class="cls-17" d="M203.6,71.88l0,.05v-.07S203.58,71.82,203.6,71.88Z"/><path class="cls-17" d="M203.11,71.31a1.66,1.66,0,0,0,.06.16v0A.36.36,0,0,1,203.11,71.31Z"/><path class="cls-17" d="M203.17,71.47v.08S203.18,71.51,203.17,71.47Z"/><polygon class="cls-17" points="203.36 71.73 203.35 71.58 203.35 71.74 203.36 71.73"/><polygon class="cls-17" points="203.03 71.33 203.01 71.22 203.03 71.38 203.03 71.33"/><path class="cls-17" d="M203,71.36c0-.09,0-.14,0-.19a.41.41,0,0,0,0,.16S203,71.3,203,71.36Z"/><path class="cls-17" d="M202.94,71.43v0Z"/><path class="cls-17" d="M203.12,71.54a.31.31,0,0,0-.05-.12l.05.12Z"/><path class="cls-17" d="M203.12,71.54Z"/><path class="cls-17" d="M203.13,71.54h0Z"/><path class="cls-17" d="M203.26,71.65a.47.47,0,0,0,.06.24C203.31,71.8,203.28,71.75,203.26,71.65Z"/><path class="cls-17" d="M203.18,71.68l0,0a.45.45,0,0,1,0-.11Z"/><polygon class="cls-17" points="203.18 71.72 203.18 71.68 203.17 71.67 203.18 71.72"/><path class="cls-17" d="M203,71.53s0,.06,0,.07,0,0,0,0S203,71.52,203,71.53Z"/><path class="cls-17" d="M203.06,71.54h0S203.07,71.56,203.06,71.54Z"/><polygon class="cls-17" points="202.86 71.62 202.86 71.64 202.86 71.62 202.86 71.62"/><path class="cls-17" d="M203,71.65s0,0,0-.05a0,0,0,0,1,0,0A.08.08,0,0,1,203,71.65Z"/><path class="cls-17" d="M202.92,71.49l0,.06S202.91,71.46,202.92,71.49Z"/><path class="cls-17" d="M203.05,71.52h0S203,71.5,203.05,71.52Z"/><path class="cls-17" d="M203.05,71.52v.08a.09.09,0,0,0,0,0Z"/><path class="cls-17" d="M203,72.4c0-.11,0-.22.05-.11a3.35,3.35,0,0,0-.14-.65.42.42,0,0,1,0,.16c0,.06.08.14.08.24s0,0-.07-.09c0,.14,0,.21,0,.41l0-.07S202.93,72.37,203,72.4Z"/><path class="cls-17" d="M202.91,71.65v0a.49.49,0,0,1-.06-.14.56.56,0,0,0,0,.13h0Z"/><path class="cls-17" d="M203,71.63a1.71,1.71,0,0,0,0,.3s0-.1,0-.16,0-.07-.05-.13a.05.05,0,0,1,0,0,.1.1,0,0,1,0,0h0s0,0,0,0h0v0a.08.08,0,0,1,0,0v0h0l0,.07S203,71.64,203,71.63Z"/><path class="cls-17" d="M203.38,72.15v0S203.37,72.15,203.38,72.15Z"/><path class="cls-17" d="M203.33,72.08s0-.06,0-.06,0,.06,0,.1a.24.24,0,0,0-.05-.14h0a.54.54,0,0,1-.11-.19Z"/><path class="cls-17" d="M203.14,71.89l0,.07,0,.1V72S203.15,71.94,203.14,71.89Z"/><polygon class="cls-17" points="202.84 71.56 202.82 71.43 202.83 71.62 202.84 71.56"/><polygon class="cls-17" points="202.79 71.58 202.78 71.47 202.78 71.54 202.79 71.58"/><path class="cls-17" d="M199.13,71.81h0Z"/><path class="cls-17" d="M199.21,71.89l0,0Z"/><path class="cls-17" d="M201.53,71.53c0-.11,0-.27,0-.15l0,.13S201.53,71.5,201.53,71.53Z"/><path class="cls-17" d="M200.35,71.86l0,0,.07-.09Z"/><path class="cls-17" d="M200.09,72.3v-.08A.22.22,0,0,0,200.09,72.3Z"/><path class="cls-17" d="M198.56,71.43l-.11.07S198.51,71.47,198.56,71.43Z"/><path class="cls-17" d="M202.27,71.67a.16.16,0,0,0,0-.08C202.25,71.66,202.27,71.77,202.27,71.67Z"/><path class="cls-17" d="M200,70.83l-.06,0A.13.13,0,0,0,200,70.83Z"/><path class="cls-17" d="M202.2,71.59v0s0,0,0,0S202.21,71.51,202.2,71.59Z"/><path class="cls-17" d="M197.56,69.2h0S197.55,69.2,197.56,69.2Z"/><path class="cls-17" d="M198.73,68.46s0,0,0,0S198.75,68.47,198.73,68.46Z"/><path class="cls-17" d="M202.59,71.56s0,0,0,0Z"/><path class="cls-17" d="M202.69,72v0Z"/><path class="cls-17" d="M202,72.35h0S202,72.37,202,72.35Z"/><path class="cls-17" d="M202.61,71.61l0,0Z"/><path class="cls-17" d="M202.6,71.56h0S202.61,71.53,202.6,71.56Z"/><path class="cls-17" d="M202.57,71.57s0,0,0,0v0Z"/><path class="cls-17" d="M198.28,70.28h0S198.25,70.29,198.28,70.28Z"/><polygon class="cls-17" points="200.83 72.67 200.84 72.66 200.84 72.66 200.83 72.67"/><path class="cls-17" d="M200.75,72.73c.07-.13.08-.11.09-.07l.1-.35Z"/><path class="cls-17" d="M198.88,71.64l0,.11c-.17.1-.15,0-.23.17.27-.28.15.08.42-.2l0,.07h0c-.08.18.22-.18.23-.1a.21.21,0,0,1-.07.12l.1,0s0,.06,0,0l.08,0h0l.16-.12c0,.06,0,0-.06.07l.09,0c-.05.09-.13.14-.15.11-.21.33.09,0,0,.18l-.07,0c-.11.19,0,.15-.08.28,0-.06.13-.33.23-.38s0,.05.06,0c-.08.11,0,.09,0,.1l-.11.15c.06,0,.12-.1.18-.16s-.06.16-.12.26.1-.21.18-.2.07,0,.18,0-.07.09-.09.14l.11-.11s0,0,0,.06.1-.15.16-.17c.11-.17-.09.29.07.12a1.29,1.29,0,0,1-.09.16,1.51,1.51,0,0,0,.25-.22l0,.13a.9.9,0,0,1,.25-.36.68.68,0,0,0,0-.15l.1-.06a.71.71,0,0,1-.09.15l0,0a.64.64,0,0,1-.13.24l0-.11-.18.29,0,0a.61.61,0,0,0,0,.06l0,0-.08.19,0-.07v.15a2.36,2.36,0,0,1,.42-.45c-.08.13-.1.22-.18.38.06-.18-.09,0-.12,0s0,.1,0,.12l.14-.11c-.06.13,0,.1,0,.17.1-.27.13-.15.2-.22,0,.09-.08.18-.11.14,0,.22.18-.29.15-.1,0,0,0,0,0,0s.08,0,0,.09h0c.05.05.19.07.28-.15l-.13.31.19-.36.18-.37a4.21,4.21,0,0,1-.28.77s0,.08.07,0a1,1,0,0,1,.08-.31,2,2,0,0,0,0,.33,1.1,1.1,0,0,1,.13-.34s-.09.31-.11.34l.15-.29a1.48,1.48,0,0,0-.09.35c0-.06.06,0,.08,0v-.07c.06.06.19-.42.25-.39a1.19,1.19,0,0,0-.09.44,8,8,0,0,1,.32-.87V72l.06-.1a7.05,7.05,0,0,1-.35.92c0,.07,0,.11,0,.11s-.05.12-.07.12l.09.08c0-.19.11-.17.14-.33l-.15.17c0-.18.18-.51.23-.47a4,4,0,0,1-.09.4c0-.06.09-.11.09-.07l0,.1c0,.08.1-.24.12-.06,0,0,0,.25,0,.14a7.86,7.86,0,0,1,.14-1,3.27,3.27,0,0,1,0,.33c0,.17-.09.4-.09.55a.62.62,0,0,1,0-.14s0,.16,0,.14c0-.19.07,0,0-.16s0,0,.07,0a1.71,1.71,0,0,1,.11-.47.33.33,0,0,0,0,.14c.06,0,.09.12.15.12a.54.54,0,0,1,0,.19.43.43,0,0,1,0-.11c0,.17,0,0,0,.23a.61.61,0,0,1,.09-.23c0-.17-.06,0-.1,0a1.9,1.9,0,0,1,.12-.6c.05-.06,0,.15,0,.12s.06-.42.13-.25a2.13,2.13,0,0,1,0,.42s-.06-.1-.09-.1l0,.08s0,.09,0,0c0,.14.16,0,.24.15a.32.32,0,0,0,0-.17l0,0c0-.12,0-.18,0-.23s0-.23.08-.17l0,.17s0-.1,0,0,.09.22.08,0l0-.11c0-.09,0-.28.06-.23,0-.17,0,0-.06-.18.06.25-.08,0,0,.26-.05-.23-.05-.09-.1-.29,0,.06,0,.11,0,.09v.05h0a.29.29,0,0,1,0,.09c0,.13,0,.14,0,.2s0-.06,0-.12l0,.1c0-.13-.05-.21,0-.29h0c0-.08-.05-.1-.06,0s0,.14,0,0l0,.08v0c-.05,0-.11.21-.16,0,0,0,0,.08-.06,0v-.12s-.06-.12-.07,0c0-.3-.1-.08-.13-.14l0,.15s-.06,0-.1.08v.12c-.05.1-.07-.09-.11-.09s0,0,0,0c0-.3-.16.18-.16,0,0,0,0,0,0,0h0v0s0,0-.05,0l0-.13h0c0-.05,0,.06,0,.16a.28.28,0,0,0-.05.08c.05-.22,0,.06,0-.17,0,.11-.09.06-.17.29,0,0,0,0,0,0s0-.07-.05,0l0-.16-.11.21a.93.93,0,0,1,.09-.3c-.11.18-.06.06-.17.24l0-.11s-.1.13-.08,0-.16-.08-.16-.31c-.13.31,0-.15-.09.08a1,1,0,0,1,.08-.18c-.08,0,0-.14-.13,0a1.37,1.37,0,0,1,.08-.14s0,0,0,0a.18.18,0,0,1,.06-.08s-.16.2-.27.4c0-.11,0-.1-.08,0,0-.07.05-.14.09-.15s0-.14-.13,0c0,0,0,0,0,0s0,0-.06,0v0c-.13.18-.05,0-.09,0v0c0-.18-.07,0,0-.15l-.07.12c-.17.24,0-.18-.05-.11l0,.07c-.08.07.17-.36.18-.4a.1.1,0,0,1,.05,0c.06-.17-.11.14-.17.15s.15-.19.14-.22-.25.2-.17,0A.53.53,0,0,1,200,71s.12-.27-.05-.11l0-.05a.59.59,0,0,0-.21.12c.3-.37-.27.07,0-.25l-.07,0,0,0s-.09,0-.18.07a.46.46,0,0,1,.07-.07c0-.11,0-.1-.2,0l.1-.1c-.07,0,.11-.22-.06-.16l0,0c-.18,0,.22-.37-.21-.08l-.13,0c0,.08-.19.12-.24.2s.08-.15.12-.14v0c.22-.15,0-.12.18-.22-.09-.09,0-.27-.05-.37L199,70v0s.14-.08.14-.06-.11,0-.15,0,.23-.09.23-.11h0c-.08,0-.16.07-.17,0s.11-.07.11-.08,0,0,0,0v0l-.14.09c-.09,0,0,0-.18,0,.24-.15,0-.22.1-.27-.12,0-.13,0-.13-.06s-.2.09-.19,0c.37-.11.14-.12.39-.22-.16.07-.07-.07-.31,0,0,0,.14,0,.22-.08-.16,0,.06-.16,0-.22a.56.56,0,0,1-.2,0l.24-.09s-.29,0-.12,0l-.12,0c.2-.18-.25-.31.21-.5-.1,0-.11,0-.12,0h-.19l.19-.07c-.19,0,0-.07-.2-.08l0,0a6.83,6.83,0,0,0-.74,0c.24,0-.36.11,0,.17,0,0-.09,0-.15,0,.12,0,.15,0,.09.07h0c0,.11-.08.16-.15.29l.13,0a.13.13,0,0,1-.09,0c.21,0,0-.07.23-.07-.27.07,0,.17-.27.25,0,0,.15,0,.15,0l-.08,0h.11s-.11.06-.18.08,0,0,0,0,.05.09,0,.11l0,0c.11.09,0,.25.22.31l.06,0c.14,0-.05.08,0,.15h0c.06,0,.1,0,.1,0s-.12.09-.21.09c.15,0,.11,0,.35,0l-.09,0c.09,0,.14,0,.18,0s-.14.08-.27.09c-.18.18.26,0,0,.21.28-.08.12-.14.19-.14s.21-.06.19,0-.32.19-.28.26,0,0,0,0,.11,0,0,.09c.17-.06,0,0,.22,0l-.08,0c.07,0,.32-.08.23,0a.35.35,0,0,1-.14,0c-.05,0,.06,0,0,.06s-.08,0-.26,0,.19,0,0,.09c.29-.12,0,.08.23,0l-.12.07s.09,0,.09,0l-.16.06c.15,0-.08.14,0,.14s.13-.1.2-.18-.28.23-.16.29,0-.09.11-.1a.38.38,0,0,1-.09.13c.07,0,.11-.08.2-.1-.13.11.07,0,.13,0l-.11.08c0,.12.25-.15.21,0l-.18.09h.06l-.13.09c.12,0,.11,0,.09.06s.21-.15.23-.12-.11.07-.06.1-.17.09-.08,0l-.12.06c-.06.08,0,.08,0,.09a.08.08,0,0,1,0,0l.2,0a.28.28,0,0,1-.11.08s.08,0,.1,0a.75.75,0,0,1-.24.15l.14,0s-.07.11-.11.13.24-.06.21,0l.06,0c0,.06-.06.19.1.13l-.12.16c.06,0,.15-.21.25-.2s-.1.14-.13.19.27-.16.2,0S198.91,71.64,198.88,71.64Zm.51.32s-.1.07-.06,0S199.4,71.91,199.39,72Zm.9.17s0,0,0,0S200.3,72.09,200.29,72.13Zm2.19-.45Zm0,.06v-.06s0,0,0,0S202.51,71.77,202.52,71.74Zm-3.47-2,0,0C199,69.77,199,69.76,199.05,69.74Z"/><path class="cls-17" d="M200.12,72.25l0-.07A.21.21,0,0,0,200.12,72.25Z"/><polygon class="cls-17" points="198.58 71.42 198.58 71.42 198.56 71.43 198.58 71.42"/><path class="cls-17" d="M201.78,72.87a.19.19,0,0,1,0-.07S201.76,72.86,201.78,72.87Z"/><path class="cls-17" d="M202.69,71.48l0,0s0,0,0,0S202.68,71.48,202.69,71.48Z"/><path class="cls-17" d="M203.05,72.29s0,0,0,0l0-.06S203,72.27,203.05,72.29Z"/><path class="cls-17" d="M202.77,71.93c0,.12,0,.08,0,0h0C202.79,71.82,202.78,71.88,202.77,71.93Z"/><path class="cls-17" d="M202.82,72a0,0,0,0,1,0,0C202.83,71.91,202.83,72,202.82,72Z"/><path class="cls-17" d="M202.56,71.66s0-.15,0-.1C202.56,71.41,202.52,71.74,202.56,71.66Z"/><polygon class="cls-17" points="202.84 72.31 202.81 72.17 202.81 72.28 202.84 72.31"/><path class="cls-17" d="M202.67,72.23l0,0a.07.07,0,0,1,0-.05S202.66,72.18,202.67,72.23Z"/><path class="cls-17" d="M202.71,72.21s0,0,0,0S202.71,72.19,202.71,72.21Z"/><polygon class="cls-17" points="202.8 72.36 202.78 72.33 202.76 72.32 202.8 72.36"/><path class="cls-17" d="M202.32,72.21l0,0s0,.08,0,.06A.16.16,0,0,0,202.32,72.21Z"/><path class="cls-17" d="M202.44,72.6s0-.06,0-.11v.18Z"/><path class="cls-17" d="M202.33,72.64s-.06.14,0,.13S202.36,72.68,202.33,72.64Z"/><polygon class="cls-17" points="201.78 72.38 201.79 72.38 201.83 72.09 201.78 72.38"/><path class="cls-17" d="M201.13,73c0,.08.06-.17.08-.08s0-.08,0-.13S201.17,72.77,201.13,73Z"/><path class="cls-17" d="M201.22,72.75l0,0S201.22,72.74,201.22,72.75Z"/><polygon class="cls-17" points="198.88 68.37 198.94 68.35 198.85 68.37 198.88 68.37"/><path class="cls-17" d="M198.67,68.33h.18l-.17,0S198.71,68.32,198.67,68.33Z"/><path class="cls-17" d="M199.24,72.31l0,0s0,0,0-.06Z"/><polygon class="cls-17" points="198.98 71.92 198.98 71.93 199.08 71.79 198.98 71.92"/><path class="cls-17" d="M198.55,71.82s0,0,0,0S198.7,71.67,198.55,71.82Z"/></g></g></g></svg>