<svg xmlns="http://www.w3.org/2000/svg" viewBox="0 0 125 80.46"><defs><style>.cls-1{fill:#f0efef;}.cls-2{fill:#c9c9c9;}.cls-3{fill:#bcbcbc;}.cls-4{fill:#4d1510;}.cls-12,.cls-5{fill:none;}.cls-6{fill:#fcccbc;}.cls-7{fill:#193e6c;}.cls-8{fill:#837d63;}.cls-9{fill:#fff;}.cls-10{fill:#1d171a;}.cls-11{fill:#cb2026;}.cls-12{stroke:#fff;stroke-linecap:round;stroke-miterlimit:10;stroke-width:2.07px;}</style></defs><g id="Layer_2" data-name="Layer 2"><g id="Layer_1-2" data-name="Layer 1"><path class="cls-1" d="M0,17V76.21A3.3,3.3,0,0,0,3.29,79.5H121.71A3.3,3.3,0,0,0,125,76.21V17Z"/><path class="cls-2" d="M121.71,0H3.29A3.3,3.3,0,0,0,0,3.29V17H125V3.29A3.3,3.3,0,0,0,121.71,0Z"/><path class="cls-3" d="M121.71,79.5H3.29A3.3,3.3,0,0,1,0,76.21v1a3.31,3.31,0,0,0,3.29,3.29H121.71A3.31,3.31,0,0,0,125,77.17v-1A3.3,3.3,0,0,1,121.71,79.5Z"/><rect class="cls-2" x="77.15" y="25.44" width="38.94" height="46.61"/><polygon class="cls-4" points="99.31 72.06 99.34 72.04 99.3 72.04 99.31 72.06"/><path class="cls-5" d="M89.85,61.05l.21.21V56.42a6.83,6.83,0,0,1-1.59-4.68l-.06-1c-3.84-.94-4.25-3.93-2.42-5.19a1.81,1.81,0,0,1,2.11-.1l0-.49c0,.09-.06.2-.08.27l-.33-.87c-.93-2.58-1.75-6.72.12-9.11,1-1.3,2-1.34,3.29-1.56a4.47,4.47,0,0,1,6.44-3,4.69,4.69,0,0,1,8.76,2.36,4.61,4.61,0,0,1-.58,2.22c1.93,1.47.61,7.06-.57,9.23l0,.65a1.81,1.81,0,0,1,1.76.28c1.77,1.22,1.44,4.07-2.07,5.09l-.07,1.18a6.87,6.87,0,0,1-1.48,4.55l-.1,5v.3l.26-.26,1.17,2c5.3.82,9,2.32,11.53,4.36V25.43H77.15V65.61a32.83,32.83,0,0,1,11.91-2.9Z"/><path class="cls-6" d="M105.52,46.89a.28.28,0,0,1,.39,0,.27.27,0,0,1,0,.39l-1,.9-.14,2.36c3.51-1,3.84-3.87,2.07-5.09a1.81,1.81,0,0,0-1.76-.28L105,47.4Z"/><path class="cls-4" d="M105.91,46.91a.28.28,0,0,0-.39,0l-.55.51,0,.8,1-.9A.27.27,0,0,0,105.91,46.91Z"/><path class="cls-7" d="M99.36,72v0l0,0Z"/><polygon class="cls-7" points="97.42 69.06 97.05 68.48 96.65 67.84 96.55 67.98 96.72 68.09 94.22 72.04 97.05 72.04 97.42 72.04 99.3 72.04 97.42 69.06"/><polygon class="cls-7" points="93.84 71.68 93.95 71.78 95.1 69.96 93.84 71.68"/><polygon class="cls-6" points="103.13 61.55 103.13 61.26 103.12 61.55 103.13 61.55"/><path class="cls-6" d="M93.86,62.52a77.6,77.6,0,0,1,7.89.37l.27-.26-5.31-3.94h-.64a7.77,7.77,0,0,1-6-2.27v4.84l1.37,1.31C92.22,62.54,93,62.52,93.86,62.52Z"/><path class="cls-6" d="M93.86,62.52c-.83,0-1.64,0-2.43,0l4.79,4.59.48.4.12.1.1-.07h0l.78-.76,4-4A77.6,77.6,0,0,0,93.86,62.52Z"/><path class="cls-8" d="M103.13,61.25l.1-5-.1.12Z"/><path class="cls-8" d="M97.11,58.69h-.4L102,62.63l1.1-1.08V56.41A7.78,7.78,0,0,1,97.11,58.69Z"/><path class="cls-6" d="M96.21,49.32H97a6.14,6.14,0,0,1,6.15,6.14V56l.1-.06v.39a6.87,6.87,0,0,0,1.48-4.55l.07-1.18a8.28,8.28,0,0,1-1.47.3l.16-4.1a3.68,3.68,0,0,1,1.62-1.57l0-.65,0,.09c-.72-.23-1.58-3.29-2.45-6.3-3.9,2.28-8.26,3.92-12.42,1.12A31.08,31.08,0,0,0,88.08,45l0,.49a3.93,3.93,0,0,1,1.27,1.39l.16,4.1a11.26,11.26,0,0,1-1.12-.2l.06,1a6.83,6.83,0,0,0,1.59,4.68v-1A6.14,6.14,0,0,1,96.21,49.32Z"/><path class="cls-6" d="M103.47,46.76l-.16,4.1a8.28,8.28,0,0,0,1.47-.3l.14-2.36-.19.18a.31.31,0,0,1-.19.08.29.29,0,0,1-.21-.09.28.28,0,0,1,0-.39l.62-.58.12-2.21A3.68,3.68,0,0,0,103.47,46.76Z"/><path class="cls-6" d="M104.35,48a.28.28,0,0,0,0,.39.29.29,0,0,0,.21.09.31.31,0,0,0,.19-.08l.19-.18,0-.8Z"/><path class="cls-6" d="M96.07,58.69h.64l-1.39-1c2.22,1.4,7.07-1.28,7.81-1.7v-.5A6.14,6.14,0,0,0,97,49.32h-.77a6.14,6.14,0,0,0-6.15,6.14v1A7.77,7.77,0,0,0,96.07,58.69Z"/><path class="cls-6" d="M103.13,56v.45l.1-.12V55.9Z"/><path class="cls-6" d="M103.13,56.41V56c-.74.42-5.59,3.1-7.81,1.7l1.39,1h.4A7.78,7.78,0,0,0,103.13,56.41Z"/><polygon class="cls-9" points="97.42 68.34 97.4 68.34 97.42 68.37 97.42 68.34"/><polygon class="cls-9" points="105.8 65.32 105.8 65.32 105.79 65.32 105.79 65.32 105.8 65.32"/><path class="cls-9" d="M96.22,67.16l-4.79-4.59-1.37-1.31-.21-.21-.79,1.66a32.83,32.83,0,0,0-11.91,2.9V72H93.68L87.4,65.76l.26-.26,2.5,2.5,3.4,3.39.28.29L95.1,70l1.31-2.07.14.09.1-.13,0-.07.16-.09,0,0-.12-.1Z"/><path class="cls-9" d="M104.56,63.25l-1.17-2-.26.26h0L102,62.63l-.27.26-4,4-.78.76.12.19.35.55h0v0l2,3.11,0,0,.13-.13,5.93-5.92.21-.21.12.13h0l.13.13-6.24,6.24-.32.32v0h16.73V67.61C113.54,65.57,109.86,64.07,104.56,63.25Z"/><path class="cls-6" d="M88.12,48.48,87,47.4a.28.28,0,1,1,.38-.4l.91.85-.14-2.38a1.81,1.81,0,0,0-2.11.1c-1.83,1.26-1.42,4.25,2.42,5.19l-.13-2.21A.2.2,0,0,1,88.12,48.48Z"/><path class="cls-6" d="M89.37,46.86a3.93,3.93,0,0,0-1.27-1.39l.14,2.38.25.23a.27.27,0,0,1,0,.39.28.28,0,0,1-.2.09h0l.13,2.21a11.26,11.26,0,0,0,1.12.2Z"/><path class="cls-4" d="M86.93,47a.28.28,0,0,0,0,.39l1.17,1.08a.2.2,0,0,0,.16.07l0-.7L87.33,47A.28.28,0,0,0,86.93,47Z"/><path class="cls-4" d="M88.31,48.56a.28.28,0,0,0,.2-.09.27.27,0,0,0,0-.39l-.25-.23,0,.7Z"/><polygon class="cls-4" points="105.8 65.32 105.79 65.32 105.67 65.19 105.45 65.4 99.53 71.32 99.41 71.45 99.38 71.48 97.42 68.37 97.4 68.34 97.05 67.79 96.93 67.6 96.92 67.59 96.82 67.66 96.77 67.69 96.61 67.78 96.65 67.84 97.05 68.48 97.42 69.06 99.3 72.04 99.34 72.04 99.37 72.01 99.69 71.69 105.93 65.45 105.8 65.32"/><polygon class="cls-4" points="96.41 67.89 95.1 69.96 93.95 71.78 93.84 71.68 93.56 71.39 90.16 68 87.66 65.5 87.4 65.76 93.68 72.04 94.03 72.04 94.22 72.04 96.72 68.09 96.55 67.98 96.41 67.89"/><path class="cls-10" d="M105.7,35.31a4.61,4.61,0,0,0,.58-2.22,4.69,4.69,0,0,0-8.76-2.36,4.47,4.47,0,0,0-6.44,3c-1.27.22-2.27.26-3.29,1.56-1.87,2.39-1.05,6.53-.12,9.11l.33.87c0-.07,0-.18.08-.27a31.08,31.08,0,0,1,2.14-5.53c4.16,2.8,8.52,1.16,12.42-1.12.87,3,1.73,6.07,2.45,6.3l0-.09C106.31,42.37,107.63,36.78,105.7,35.31Z"/><rect class="cls-2" x="8.61" y="25.44" width="59.2" height="8.49"/><rect class="cls-2" x="8.61" y="40.24" width="37.2" height="5.61"/><rect class="cls-2" x="8.61" y="47.43" width="59.2" height="5.94"/><rect class="cls-2" x="8.61" y="57.73" width="59.2" height="3.76"/><rect class="cls-2" x="8.61" y="63.01" width="59.2" height="3.76"/><rect class="cls-2" x="8.61" y="68.29" width="59.2" height="3.76"/><path class="cls-9" d="M14.09,4.28h2.5c2.79,0,4.51,1.44,4.51,4.52s-1.72,4.59-4.41,4.59h-2.6Zm2.39,7.64c1.7,0,2.76-.91,2.76-3.12s-1.06-3.07-2.76-3.07h-.57v6.19Z"/><path class="cls-9" d="M27.85,13.39,26,9.94H24.71v3.45H22.89V4.28h3.17c1.91,0,3.43.66,3.43,2.75a2.62,2.62,0,0,1-1.74,2.63l2.13,3.73ZM24.71,8.5h1.18C27.06,8.5,27.7,8,27.7,7s-.64-1.31-1.81-1.31H24.71Z"/><path class="cls-9" d="M31.29,4.28h1.82v9.11H31.29Z"/><path class="cls-9" d="M34.17,4.28h1.91l1.21,4.43c.28,1,.47,1.92.76,2.94h.06c.29-1,.49-1.93.78-2.94l1.18-4.43h1.85l-2.8,9.11H37Z"/><path class="cls-9" d="M43,4.28h5.59V5.79H44.79V7.9H48V9.42h-3.2v2.44h3.9v1.53H43Z"/><path class="cls-9" d="M55.51,13.39,53.63,9.94H52.37v3.45H50.54V4.28h3.18c1.91,0,3.42.66,3.42,2.75a2.62,2.62,0,0,1-1.73,2.63l2.13,3.73ZM52.37,8.5h1.18C54.72,8.5,55.36,8,55.36,7s-.64-1.31-1.81-1.31H52.37Z"/><path class="cls-9" d="M61.74,4.28h1.82v7.58h3.7v1.53H61.74Z"/><path class="cls-9" d="M68.85,4.28h1.82v9.11H68.85Z"/><path class="cls-9" d="M72.46,8.87c0-3,1.93-4.77,4.23-4.77a3.75,3.75,0,0,1,2.68,1.17l-1,1.16a2.38,2.38,0,0,0-1.68-.76c-1.38,0-2.41,1.18-2.41,3.14S75.25,12,76.69,12a2.53,2.53,0,0,0,1.89-.9l1,1.13a3.69,3.69,0,0,1-2.91,1.34C74.33,13.56,72.46,11.91,72.46,8.87Z"/><path class="cls-9" d="M81,4.28H86.6V5.79H82.83V7.9H86V9.42h-3.2v2.44h3.9v1.53H81Z"/><path class="cls-9" d="M88.58,4.28h1.86l2.65,4.85.91,2h.06c-.09-.95-.23-2.16-.23-3.19V4.28h1.72v9.11H93.71L91.07,8.51l-.92-2h-.06c.08,1,.22,2.13.22,3.18v3.66H88.58Z"/><path class="cls-9" d="M97.21,12.23l1-1.25a3.63,3.63,0,0,0,2.32,1c1,0,1.45-.41,1.45-1.05s-.55-.89-1.36-1.23l-1.22-.52a2.63,2.63,0,0,1-1.85-2.45c0-1.49,1.3-2.64,3.15-2.64a4.06,4.06,0,0,1,2.86,1.17l-.92,1.15a2.93,2.93,0,0,0-1.94-.75c-.8,0-1.32.35-1.32,1s.66.88,1.43,1.19l1.2.51a2.51,2.51,0,0,1,1.83,2.47c0,1.49-1.24,2.76-3.35,2.76A4.83,4.83,0,0,1,97.21,12.23Z"/><path class="cls-9" d="M105.5,4.28h5.59V5.79h-3.77V7.9h3.2V9.42h-3.2v2.44h3.9v1.53H105.5Z"/><circle class="cls-11" cx="62.5" cy="40.23" r="18.51"/><polyline class="cls-12" points="51.8 38.95 60.45 47.49 73.2 33.77"/></g></g></svg>