<svg xmlns="http://www.w3.org/2000/svg" xmlns:xlink="http://www.w3.org/1999/xlink" viewBox="0 0 260 178.01"><defs><style>.cls-1{fill:none;}.cls-2{isolation:isolate;}.cls-3{fill:#ffcdbb;}.cls-24,.cls-4{opacity:0.4;}.cls-4{mix-blend-mode:multiply;}.cls-5{fill:#827c62;}.cls-6{fill:#1d171a;}.cls-7{fill:#500b02;}.cls-8{fill:#6d332a;}.cls-9{fill:#2db4f6;}.cls-10{fill:#fff;}.cls-11{fill:#8f4c4c;}.cls-12{fill:#ffea92;}.cls-13{fill:#ffd833;}.cls-14{opacity:0.5;}.cls-15{fill:#5e4c02;}.cls-16{fill:#d9f4ff;}.cls-17{fill:#bcbcbc;}.cls-18{fill:#efefef;}.cls-19{fill:#c9c9c9;}.cls-20{clip-path:url(#clip-path);}.cls-21{fill:#003b6d;}.cls-22{fill:#c00;}.cls-23{fill:#ff7171;}.cls-25{fill:#fbb03b;}</style><clipPath id="clip-path"><rect class="cls-1" x="90.58" y="94.54" width="17.91" height="21.44"/></clipPath></defs><g class="cls-2"><g id="Layer_2" data-name="Layer 2"><g id="Layer_1-2" data-name="Layer 1"><path class="cls-3" d="M117.41,101.45c0,10.15,8.22,12.27,18.37,12.27l2.32-1.93c10.15,0,18.37-.19,18.37-10.34V76.86A18.36,18.36,0,0,0,138.1,58.49h-2.32a18.36,18.36,0,0,0-18.37,18.37Z"/><g class="cls-4"><path class="cls-5" d="M156.16,80.36s-16.47,9.8-23.66,5.27l23.22,17.2Z"/></g><path class="cls-3" d="M112.67,65.72c0,13.61,9.1,20.79,22.71,20.79h3.12c13.62,0,22.72-7.18,22.72-20.79l1.93-33c0-13.61-11-23-24.65-23l-3.12-1.65a24.64,24.64,0,0,0-24.64,24.64Z"/><path class="cls-6" d="M162.63,46.32C161.72,43.08,158.8,33.93,156,29c-12.44,8.39-25.48,3.49-37.15-3.34-2.58,9-5.17,18.16-7.3,18.84-4.15-7.36-9.09-29.48,1.94-28.94C108.85,4.34,121.19-1,128.32,1c6.25,1.77,16.43,8.68,22.42,10.26,5.14,1.34,8.79.45,12.53,5.21,5.57,7.13,3.11,19.51.33,27.22"/><path class="cls-3" d="M116.38,50.84s-4.14-8-10.1-3.86-4,14.41,10.58,16.12"/><path class="cls-7" d="M113.19,55.7a.61.61,0,0,1-.42-.16l-3.49-3.24a.62.62,0,0,1,.84-.91l3.49,3.24a.62.62,0,0,1,0,.87A.61.61,0,0,1,113.19,55.7Z"/><path class="cls-3" d="M158.52,51.15s4.14-8,10.11-3.86,4,14.4-10.58,16.11"/><path class="cls-7" d="M161.71,56a.62.62,0,0,1-.45-.2.62.62,0,0,1,0-.87l3.49-3.24a.62.62,0,0,1,.85.91l-3.49,3.24A.64.64,0,0,1,161.71,56Z"/><path class="cls-7" d="M123.82,48.48c2.21-.73,1.6,3.18.82,4.11-1.83,2.26-2.38-1.91-1.2-3.68Z"/><path class="cls-7" d="M123.69,53.66a.92.92,0,0,1-.57-.19c-1-.7-1-3.39,0-4.79l.48-.56.11,0a1.37,1.37,0,0,1,1.71.47c.76,1.11.17,3.57-.44,4.31A1.74,1.74,0,0,1,123.69,53.66Zm.36-4.82-.29.34c-.72,1.08-.64,3.26-.15,3.63.15.11.48-.19.71-.48.48-.58.88-2.62.4-3.32C124.66,48.92,124.52,48.72,124.05,48.84Z"/><path class="cls-7" d="M142.8,48.75c2.21-.72,1.6,3.18.82,4.12-1.83,2.25-2.38-1.92-1.19-3.68Z"/><path class="cls-7" d="M142.67,53.94a1,1,0,0,1-.57-.2c-.94-.7-.95-3.38,0-4.78l.48-.56.11,0a1.36,1.36,0,0,1,1.71.46c.76,1.12.17,3.58-.44,4.31A1.74,1.74,0,0,1,142.67,53.94Zm.36-4.83-.29.35c-.72,1.07-.64,3.26-.14,3.62.15.11.47-.19.7-.47.49-.59.88-2.62.4-3.33C143.64,49.19,143.51,49,143,49.11Z"/><path class="cls-8" d="M135.17,62.32s0-.13,0-.16S135.17,62.35,135.17,62.32Z"/><polygon class="cls-8" points="134.65 62.66 134.66 62.6 134.59 62.74 134.65 62.66"/><path class="cls-8" d="M134.17,62.69c.06.23.17-.06.27,0v.06l0-.2C134.38,62.61,134.25,62.74,134.17,62.69Z"/><path class="cls-8" d="M133.88,62.19c0,.09,0,.09.06,0v0Z"/><path class="cls-8" d="M133.93,62.2s0-.08,0,0Z"/><path class="cls-8" d="M133.71,62.26l.06-.08s-.08-.06-.06-.1S133.67,62.18,133.71,62.26Z"/><path class="cls-8" d="M133.66,62.44l0,0S133.67,62.37,133.66,62.44Z"/><path class="cls-8" d="M133.76,62.32l-.07.08s0,.12,0,0C133.72,62.44,133.73,62.38,133.76,62.32Z"/><path class="cls-8" d="M133.8,62.36s.09.08,0,.16C134,62.48,133.92,62.32,133.8,62.36Z"/><path class="cls-8" d="M134.17,62.93l.05.06,0-.08S134.16,62.86,134.17,62.93Z"/><path class="cls-8" d="M133.31,62.17s0,.13,0,.19l0-.06A.21.21,0,0,1,133.31,62.17Z"/><path class="cls-8" d="M133.34,62.36l-.06.09C133.34,62.46,133.35,62.42,133.34,62.36Z"/><polygon class="cls-8" points="133.66 62.7 133.77 62.51 133.64 62.71 133.66 62.7"/><polygon class="cls-8" points="133.05 62.17 133.08 62.05 133.02 62.23 133.05 62.17"/><path class="cls-8" d="M132.88,62.2c0-.1,0-.17,0-.23a.37.37,0,0,0-.11.18S132.83,62.12,132.88,62.2Z"/><path class="cls-8" d="M132.7,62.25s0-.06.06-.1A.29.29,0,0,0,132.7,62.25Z"/><path class="cls-8" d="M133.16,62.43s0-.11-.06-.14l0,.14Z"/><path class="cls-8" d="M133.13,62.43Z"/><path class="cls-8" d="M133.17,62.43h0S133.16,62.45,133.17,62.43Z"/><path class="cls-8" d="M133.47,62.59c0,.08-.12.17,0,.28C133.47,62.77,133.41,62.71,133.47,62.59Z"/><path class="cls-8" d="M133.21,62.61l.07,0s0-.1,0-.14Z"/><polygon class="cls-8" points="133.17 62.65 133.21 62.61 133.18 62.59 133.17 62.65"/><path class="cls-8" d="M132.82,62.39a.13.13,0,0,1-.1.07.21.21,0,0,0,.12,0S132.86,62.38,132.82,62.39Z"/><path class="cls-8" d="M133,62.43h0S133,62.45,133,62.43Z"/><polygon class="cls-8" points="132.35 62.45 132.35 62.48 132.35 62.46 132.35 62.45"/><path class="cls-8" d="M132.85,62.53s0,0,.06-.05,0,0-.07,0S132.83,62.54,132.85,62.53Z"/><path class="cls-8" d="M132.59,62.32l.06.08S132.6,62.28,132.59,62.32Z"/><path class="cls-8" d="M133,62.4h0S132.94,62.37,133,62.4Z"/><path class="cls-8" d="M133,62.4a.2.2,0,0,0,0,.08.08.08,0,0,0,.05,0Z"/><path class="cls-8" d="M132.17,63.35c0-.13.11-.25.18-.1a1.64,1.64,0,0,0,0-.77.22.22,0,0,1-.08.18c0,.07.15.18.08.29s-.08-.05-.12-.12c0,.16-.14.22-.14.46l.1-.07S132.15,63.31,132.17,63.35Z"/><path class="cls-8" d="M132.48,62.5l0,0s0-.07-.09-.18a.31.31,0,0,0-.07.16l.14,0Z"/><path class="cls-8" d="M132.64,62.48c0,.15-.1.21-.06.36.09,0,.07-.12.12-.18-.14,0,0-.08-.06-.16l.08,0s-.05,0-.07-.06h0s0,0,0,0h0v0s0,0,0,0v0h0l-.14.07A.14.14,0,0,0,132.64,62.48Z"/><path class="cls-8" d="M133.38,63.18a0,0,0,0,1,0,0S133.36,63.18,133.38,63.18Z"/><path class="cls-8" d="M133.31,63.1s0-.08.05-.07,0,.07,0,.12.07-.11,0-.17v0a.52.52,0,0,1-.13-.24A2.37,2.37,0,0,0,133.31,63.1Z"/><path class="cls-8" d="M133,62.84l-.12.06.07.13V63C133,63,133,62.89,133,62.84Z"/><polygon class="cls-8" points="132.34 62.38 132.36 62.23 132.29 62.44 132.34 62.38"/><polygon class="cls-8" points="132.2 62.39 132.21 62.26 132.17 62.33 132.2 62.39"/><path class="cls-8" d="M130.34,55.46l0,0A.05.05,0,0,0,130.34,55.46Z"/><path class="cls-8" d="M130.27,55.72l.06,0Z"/><path class="cls-8" d="M130.87,60.84c.12,0,.32-.07.17-.09h-.14A.07.07,0,0,1,130.87,60.84Z"/><path class="cls-8" d="M130.46,58h0l.12.07Z"/><path class="cls-8" d="M129.89,57.85l.11-.05A.34.34,0,0,0,129.89,57.85Z"/><path class="cls-8" d="M130.57,54l-.13-.08C130.43,54,130.5,54,130.57,54Z"/><path class="cls-8" d="M131,62.15c0-.06,0-.08,0-.1S130.89,62.25,131,62.15Z"/><path class="cls-8" d="M131.78,56a.11.11,0,0,0-.07-.06A.13.13,0,0,0,131.78,56Z"/><path class="cls-8" d="M130.94,62l0,0H131S131,62,130.94,62Z"/><path class="cls-8" d="M132,49h0S132,49,132,49Z"/><path class="cls-8" d="M133.71,47.79s0,0,0,.07S133.72,47.83,133.71,47.79Z"/><path class="cls-8" d="M131.67,62.25s0,0,0,0Z"/><path class="cls-8" d="M131.7,62.83a.64.64,0,0,0,0,.07A.25.25,0,0,0,131.7,62.83Z"/><path class="cls-8" d="M130.09,62.42Z"/><path class="cls-8" d="M131.7,62.32l0,0S131.68,62.3,131.7,62.32Z"/><path class="cls-8" d="M131.7,62.25l0,0S131.73,62.23,131.7,62.25Z"/><path class="cls-8" d="M131.63,62.25l0,0s0,0,0,0Z"/><path class="cls-8" d="M131.68,51.8h0S131.65,51.77,131.68,51.8Z"/><polygon class="cls-8" points="129.49 59.79 129.5 59.8 129.5 59.79 129.49 59.79"/><path class="cls-8" d="M129.4,59.66c.17.07.14.1.1.13l.42,0Z"/><path class="cls-8" d="M130.47,54.84l-.15,0c-.18-.16-.09-.21-.28-.18.43.13,0,.34.38.47l-.1,0s0,0,0,0c-.24,0,.29.16.19.28a.11.11,0,0,1-.16,0l.08.14s-.09,0-.07,0v.17h0a1.6,1.6,0,0,1,.19.16c-.08,0,0,0-.1,0l.08.12c-.12,0-.21-.1-.18-.15-.45,0,.09.1-.21.22l0-.1c-.26,0-.19.08-.37.14.09,0,.44-.1.52,0s-.07.05,0,.13c-.16,0-.13,0-.14.09l-.2-.06c0,.09.14.11.22.17s-.2,0-.34,0,.28,0,.28.14,0,.18.05.33c-.09.06-.13,0-.19,0l.15.11s-.06,0-.09,0,.21.06.24.16c.22.08-.37.1-.15.27-.06,0-.12-.05-.2-.06a1.12,1.12,0,0,0,.29.34l-.16.07c.17,0,.33.1.46.22l.19,0,.08.15a.36.36,0,0,1-.19-.06l.05,0a.39.39,0,0,1-.31-.09l.14,0a1.4,1.4,0,0,0-.37-.14.1.1,0,0,1,0,0l-.08,0s0,0,.07.06l-.24,0,.09,0-.19.15c.21.18.52.36.57.58a1.62,1.62,0,0,0-.47-.11c.22,0-.06-.18,0-.27s-.13,0-.16,0l.15.23c-.16,0-.13,0-.21.05.33,0,.18.19.27.28-.11,0-.22-.06-.17-.14-.27.05.35.21.12.27,0,0,0,0,0,0a.09.09,0,0,1-.1.15v0c-.06.16-.08.51.2.55l-.39-.06.45.17.46.16c-.24,0-.82,0-.94-.1,0,0-.08.06,0,.13s.35,0,.37,0a2,2,0,0,0-.39.13c.06,0,.43,0,.41.1a2.7,2.7,0,0,1-.41-.06l.36.18a1.13,1.13,0,0,0-.42,0c.07,0,0,.12,0,.16l.09,0c-.08.14.49.23.45.39-.07,0-.46-.12-.52-.05a4.41,4.41,0,0,1,1,.46l-.11,0,.11.12a6.64,6.64,0,0,1-1.07-.52c-.09.05-.13,0-.13.09a.12.12,0,0,1-.15-.1L129,61c.23,0,.2.21.39.22l-.2-.28c.22,0,.6.23.55.38a1.7,1.7,0,0,1-.46-.08c.07,0,.13.18.07.19l-.11-.08c-.09.09.28.18.07.29,0,0-.29.15-.15.15a4.72,4.72,0,0,1,1.22-.08L130,62c-.19.1-.48,0-.64.06a.39.39,0,0,1,.17,0c0,.06-.19,0-.15.12.22,0,0,.22.2,0,.09.08,0,.12,0,.23a1.37,1.37,0,0,1,.58-.09.57.57,0,0,0-.14.11c.07.14.06.28.19.39,0,0,0,.15-.09.21s.12-.06.16,0c0,.23-.12,0-.19.19.09-.09.24-.06.35-.1s-.13-.11-.25-.1a2.21,2.21,0,0,1,.59-.46c.1,0,0,.18,0,.15.19.12.33-.4.43-.16a1.69,1.69,0,0,1-.12.47c-.12,0-.11-.15-.18-.17l.05.11c-.05,0-.13.06-.14,0,0,.17.35.18.5.34.05,0,.12-.1.11-.18l-.07,0c0-.15.15-.18.09-.26.1-.08.2-.22.28-.13v.21c0-.06,0-.13-.09-.08s.12.31.2.05l-.05-.15c.08-.09.19-.3.27-.23,0-.2,0,0-.06-.22,0,.3-.2,0-.16.28,0-.28-.09-.13-.12-.37,0,.06,0,.13-.06.08l0,.06h0a.37.37,0,0,1,0,.11c-.06.14-.17.12-.22.19s0-.07,0-.15l-.08.11c0-.14,0-.27.07-.33l-.07,0c0-.09-.07-.14-.13-.1s-.14.13-.07,0l-.15.05v0c-.07,0-.09,0-.15,0s-.08,0,0-.14-.09,0-.08,0l.1-.09c-.05,0,.08-.11,0-.05.31-.17,0-.08.1-.14l-.16,0s0-.07-.11-.13h-.15c-.12-.08.11-.17.11-.3.06,0,0,0,0,.07.35-.1-.2-.35.06-.46,0,0,0-.07,0-.09h0l.09,0-.09,0a.27.27,0,0,0,0-.13h.16c.06,0-.07-.05-.19,0l-.09-.08c.26,0-.07-.12.21-.14-.13,0-.07-.24-.35-.29,0,0,.06,0,.05,0s.08-.09,0-.14h.21l-.27-.13a.33.33,0,0,1,.36,0c-.23-.19-.08-.12-.3-.27l.13,0s-.16-.12,0-.14c.27-.07.08-.45.38-.67-.38,0,.2-.08-.09-.15.09,0,.15,0,.22,0-.06-.15.18-.17,0-.31.09,0,.12.06.18.06s-.07-.06,0-.06.07,0,.1.06c0-.13-.25-.21-.51-.28.14,0,.13-.08,0-.16.09,0,.19,0,.2.06s.19-.25,0-.3a0,0,0,0,0,0-.08c0-.11.06-.11.06-.22l0,0c-.23-.1,0-.1,0-.19h0c.22-.14-.07-.1.18-.24l-.15,0c-.33-.1.23-.11.14-.26l-.1,0c-.1-.09.49-.05.55-.1s0,0,.05.06c.24-.11-.19-.07-.21-.2s.27.1.31,0-.29-.32-.06-.38c-.09,0-.18,0-.22-.06s.37-.14.13-.29h.07c-.05-.08-.06-.23-.19-.31.54.08-.15-.46.33-.33l0-.2h.05c.07-.11,0-.19-.14-.26s.08,0,.1,0c.15-.15.13-.18-.07-.4l.16,0c-.08-.07.32-.2.19-.43l.06,0c-.13-.25.57-.36,0-.59l-.1-.17c-.09.16-.25-.09-.36-.05s.22-.13.23,0h0c.3.11.17-.19.37-.13.08-.34.33-.63.43-.94l-.25,0,0-.1c.06,0,.19,0,.16.08.14,0-.08-.16-.13-.18.14-.13.26.13.28.09V52h0c-.08-.08-.18-.11-.14-.2s.15,0,.17,0,0,0,0,0l.06-.14h-.2c-.08-.09,0-.13-.18-.12.34,0,.25-.49.36-.52a.25.25,0,0,1,0-.31s-.26,0-.21-.11c.42.14.23-.12.55-.12-.22,0,0-.28-.3-.24.05-.07.16,0,.28,0-.13-.22.2-.38.2-.62-.06,0-.15,0-.22-.07l.31,0c0-.06-.32-.12-.1-.16-.06,0-.13,0-.14,0,.39-.38,0-1,.58-1.32-.12,0-.13,0-.12,0s-.14,0-.22,0l.25-.15c-.21-.08,0-.21-.17-.27l0,.07c-.23-.12-.56,0-.87,0,.26.14-.45.16-.09.38-.07,0-.09,0-.17,0,.13.07.15.12.07.19l0,0c0,.24-.16.31-.3.54l.16,0c0,.05-.08.05-.13.07.22.11.05-.15.29,0-.32,0-.09.39-.46.36,0,.08.19,0,.16.1h-.1l.12.05s-.16,0-.24,0,0-.05,0-.06,0,.21,0,.23l.08-.07c0,.25-.16.5,0,.77h.08c.09.21-.11.12-.1.33h0a.14.14,0,0,1,.06.16c-.07-.07-.18.05-.26,0,.09.22.09.12.32.31H132c.09.07.15.09.16.19-.09-.1-.2,0-.31-.11-.31.14.18.36-.22.36.31.17.23-.13.28-.06s.23.14.18.19-.45,0-.48.16c0,0,0,0,0,0s.09.15-.07.19c.19.09,0,.09.22.17l0-.16c0,.1.32.25.14.35a.41.41,0,0,1-.14-.12c-.08,0,0,.09-.05.11-.25-.08,0-.19-.18-.33-.12,0,.14.22-.13.1.34.15-.08.14.16.32l-.15,0s.08.08.07.11l-.18-.11c.14.14-.19.13-.12.24,0-.18.19,0,.32,0,.14.27-.43,0-.42.28,0,0,.12-.09.18,0a.4.4,0,0,1-.21.08c0,.17.17,0,.24.11-.2,0,0,.1.09.19l-.15,0c-.15.15.31.13.15.26l-.2-.12,0,.1-.17-.07c.11.13.07.15,0,.23.12,0,.28.09.26.17s-.14-.07-.15,0c-.08,0-.2-.11,0-.13a.91.91,0,0,1-.14-.07c-.12,0-.06.15-.07.19a.08.08,0,0,1,0,0l.17.23c-.06,0-.1,0-.14-.06s.07.08.07.13-.25-.07-.29-.16l.09.2c-.05,0-.17,0-.21,0s.19.28.06.37c0,0,0,0,.05.06s-.23.16-.1.34h-.24c0,.12.31,0,.35.17s-.21,0-.28,0c.1.09.3.25.09.31C130.43,54.9,130.48,54.88,130.47,54.84Zm-.24,1.28s-.11-.11,0-.1S130.29,56.09,130.23,56.12Zm-.11,2c-.05,0,0-.06,0-.07S130.17,58.12,130.12,58.14Zm1.22,4.16h0C131.31,62.24,131.32,62.26,131.34,62.3Zm.07.1a.07.07,0,0,0,0-.06s0,0-.05,0S131.37,62.42,131.41,62.4Zm1.4-10.69,0,0C132.73,51.66,132.77,51.69,132.81,51.71Z"/><path class="cls-8" d="M130,57.87h.09A.08.08,0,0,0,130,57.87Z"/><polygon class="cls-8" points="130.6 54.04 130.6 54.03 130.57 54.02 130.6 54.04"/><path class="cls-8" d="M129.33,62.09a.19.19,0,0,1,.07-.08S129.33,62,129.33,62.09Z"/><path class="cls-8" d="M132,62.23l-.07,0s0,0,.05.07S131.94,62.23,132,62.23Z"/><path class="cls-8" d="M132.48,63.26s0,0,0,0v-.08S132.43,63.23,132.48,63.26Z"/><path class="cls-8" d="M132,62.76c0,.14,0,.1.09.07h0C132.07,62.65,132,62.71,132,62.76Z"/><path class="cls-8" d="M132.06,62.83h0C132.11,62.76,132.09,62.81,132.06,62.83Z"/><path class="cls-8" d="M131.55,62.34s0-.16,0-.11C131.66,62.07,131.42,62.41,131.55,62.34Z"/><polygon class="cls-8" points="131.94 63.2 131.94 63.04 131.9 63.17 131.94 63.2"/><path class="cls-8" d="M131.56,63l.07.06a.11.11,0,0,1,0,0S131.57,63,131.56,63Z"/><path class="cls-8" d="M131.66,63a.06.06,0,0,0,.07,0S131.69,63,131.66,63Z"/><polygon class="cls-8" points="131.82 63.24 131.8 63.21 131.75 63.18 131.82 63.24"/><path class="cls-8" d="M130.75,62.75h-.1s0,.09,0,.08S130.74,62.8,130.75,62.75Z"/><path class="cls-8" d="M130.84,63.26a.56.56,0,0,1,0-.13l-.07.19Z"/><path class="cls-8" d="M130.54,63.2s-.23.07-.08.13S130.62,63.29,130.54,63.2Z"/><polygon class="cls-8" points="129.86 61.84 129.87 61.86 130.2 61.83 129.86 61.84"/><path class="cls-8" d="M129.18,60.5c-.09.09.2,0,.09.13.08,0,.09-.06.16,0C129.35,60.53,129.41,60.5,129.18,60.5Z"/><path class="cls-8" d="M129.43,60.6a.08.08,0,0,0,0,0Z"/><polygon class="cls-8" points="133.94 47.57 134.02 47.51 133.9 47.53 133.94 47.57"/><path class="cls-8" d="M133.72,47.39l.21,0-.18-.07S133.77,47.39,133.72,47.39Z"/><path class="cls-8" d="M129.77,56.2l0,0a.1.1,0,0,0,.09,0Z"/><polygon class="cls-8" points="130.16 55.32 130.15 55.34 130.35 55.36 130.16 55.32"/><path class="cls-8" d="M130.13,54.5s0,.07,0,.1S130.37,54.55,130.13,54.5Z"/><path class="cls-8" d="M133.71,71.88s-.07.1-.09.12S133.73,71.85,133.71,71.88Z"/><polygon class="cls-8" points="134.18 71.75 134.15 71.8 134.25 71.7 134.18 71.75"/><path class="cls-8" d="M134.46,71.89c.07-.23-.12,0-.13-.11v-.06l-.1.16C134.31,71.89,134.44,71.81,134.46,71.89Z"/><path class="cls-8" d="M134.43,72.44c0-.09.07-.06,0,0v0Z"/><path class="cls-8" d="M134.4,72.42s0,.08,0,0Z"/><path class="cls-8" d="M134.58,72.43l-.07.06c0,.05,0,.08,0,.11S134.58,72.52,134.58,72.43Z"/><path class="cls-8" d="M134.68,72.28l0,0S134.64,72.34,134.68,72.28Z"/><path class="cls-8" d="M134.57,72.36l.07-.06s0-.11,0,0C134.64,72.26,134.61,72.32,134.57,72.36Z"/><path class="cls-8" d="M134.56,72.31s0-.09,0-.15C134.51,72.16,134.46,72.32,134.56,72.31Z"/><path class="cls-8" d="M134.57,71.67V71.6l-.06.06S134.54,71.74,134.57,71.67Z"/><path class="cls-8" d="M134.83,72.63s0-.13,0-.2l-.05,0S134.85,72.56,134.83,72.63Z"/><path class="cls-8" d="M134.87,72.43l.07-.06S134.88,72.38,134.87,72.43Z"/><polygon class="cls-8" points="134.77 72.03 134.63 72.18 134.79 72.03 134.77 72.03"/><polygon class="cls-8" points="135.02 72.69 134.96 72.8 135.06 72.64 135.02 72.69"/><path class="cls-8" d="M135.16,72.71c0,.09,0,.17,0,.22s.09-.08.14-.14S135.18,72.8,135.16,72.71Z"/><path class="cls-8" d="M135.31,72.69l-.06.1A.29.29,0,0,0,135.31,72.69Z"/><path class="cls-8" d="M135,72.42a.22.22,0,0,0,0,.14l0-.14Z"/><path class="cls-8" d="M135,72.42h0l0,0Z"/><path class="cls-8" d="M135,72.41h0S135,72.4,135,72.41Z"/><path class="cls-8" d="M134.86,72.19c0-.07.13-.13.11-.26C134.92,72,134.94,72.09,134.86,72.19Z"/><path class="cls-8" d="M135,72.24l0,0a.26.26,0,0,1-.05.12Z"/><polygon class="cls-8" points="135.07 72.2 135.04 72.24 135.05 72.25 135.07 72.2"/><path class="cls-8" d="M135.25,72.54a.11.11,0,0,1,.1-.05.17.17,0,0,0-.08-.07S135.22,72.53,135.25,72.54Z"/><path class="cls-8" d="M135.15,72.47h0Z"/><polygon class="cls-8" points="135.63 72.54 135.63 72.51 135.62 72.53 135.63 72.54"/><path class="cls-8" d="M135.27,72.39s0,0-.06,0a.07.07,0,0,1,.06,0S135.28,72.39,135.27,72.39Z"/><path class="cls-8" d="M135.41,72.65l0-.09S135.4,72.68,135.41,72.65Z"/><path class="cls-8" d="M135.15,72.5h0Z"/><path class="cls-8" d="M135.15,72.5a.22.22,0,0,0,.06-.07.09.09,0,0,0-.05,0A.06.06,0,0,1,135.15,72.5Z"/><path class="cls-8" d="M135.86,71.66c0,.12-.1.23-.12.09a2.14,2.14,0,0,0-.11.76.31.31,0,0,1,.08-.18c0-.07-.08-.18,0-.29s.05.06.07.13c0-.17.12-.22.14-.46l-.07.07S135.87,71.69,135.86,71.66Z"/><path class="cls-8" d="M135.53,72.48h0a.44.44,0,0,1,0,.19.32.32,0,0,0,.08-.15l-.1,0Z"/><path class="cls-8" d="M135.41,72.48c0-.14.11-.19.11-.34-.07,0-.07.11-.12.16.11,0-.05.07,0,.16l-.06,0,0,.07h0s0,0,0,0h0l0,0s0,0,0,0v0h0l.12-.07S135.46,72.47,135.41,72.48Z"/><path class="cls-8" d="M135.11,71.65v0A0,0,0,0,0,135.11,71.65Z"/><path class="cls-8" d="M135.13,71.75s0,.07-.06,0,0-.06,0-.11a.19.19,0,0,0-.06.17v0a.59.59,0,0,1,0,.26C135.1,72,135.11,71.87,135.13,71.75Z"/><path class="cls-8" d="M135.27,72.08l.09,0V71.9l0,.07S135.28,72,135.27,72.08Z"/><polygon class="cls-8" points="135.62 72.61 135.59 72.75 135.67 72.55 135.62 72.61"/><polygon class="cls-8" points="135.74 72.61 135.71 72.73 135.76 72.66 135.74 72.61"/><path class="cls-8" d="M140.53,69.63v0A.06.06,0,0,0,140.53,69.63Z"/><path class="cls-8" d="M140.41,69.72l0,0S140.42,69.71,140.41,69.72Z"/><path class="cls-8" d="M138.47,72.46c.07.11.16.28.11.14l0-.14S138.5,72.48,138.47,72.46Z"/><path class="cls-8" d="M139.8,71l0,0a.65.65,0,0,1,0,.13S139.8,71.07,139.8,71Z"/><path class="cls-8" d="M139.54,70.5l.08.06Z"/><path class="cls-8" d="M141,69l-.1-.12S140.91,68.94,141,69Z"/><path class="cls-8" d="M136.89,72.63c0,.06.06.08.08.09S136.9,72.51,136.89,72.63Z"/><path class="cls-8" d="M141.46,70.83a.12.12,0,0,0,0-.08S141.44,70.8,141.46,70.83Z"/><path class="cls-8" d="M137.07,72.72l0,0a.08.08,0,0,1-.08,0C137,72.78,137,72.82,137.07,72.72Z"/><path class="cls-8" d="M142.27,66.63h0Z"/><path class="cls-8" d="M143.8,65.87s0,0,0,0S143.82,65.9,143.8,65.87Z"/><path class="cls-8" d="M136.19,72.73s0,0,0,0Z"/><path class="cls-8" d="M136.13,72.15a.35.35,0,0,0,0-.06A.35.35,0,0,1,136.13,72.15Z"/><path class="cls-8" d="M137.23,71.81Z"/><path class="cls-8" d="M136.16,72.66a.08.08,0,0,0,0,0Z"/><path class="cls-8" d="M136.15,72.73l0,0S136.13,72.75,136.15,72.73Z"/><path class="cls-8" d="M136.22,72.73l0,0a0,0,0,0,1,0,0Z"/><path class="cls-8" d="M142.13,68.19h0S142.1,68.16,142.13,68.19Z"/><polygon class="cls-8" points="138.58 70.88 138.58 70.89 138.58 70.89 138.58 70.88"/><path class="cls-8" d="M138.61,70.75c0,.18,0,.17,0,.14l.16.38Z"/><path class="cls-8" d="M140.76,69.38l-.13-.07c-.1-.18,0-.16-.18-.26.31.33-.1.14.2.48l-.09,0s0,0,0,0c-.19-.12.18.27.08.28a.17.17,0,0,1-.12-.1l0,.12s-.06,0-.05-.06l0,.09h0l.1.21c-.06,0,0,0-.06-.08l0,.12c-.08-.08-.12-.2-.08-.21-.32-.32,0,.12-.2,0v-.08c-.18-.18-.15-.08-.29-.18.06.06.33.26.35.38s-.06,0,0,.07c-.1-.13-.1-.08-.12-.06l-.12-.17c0,.07.07.16.1.25s-.15-.12-.23-.23.18.19.14.27-.08,0-.07.2c-.07,0-.06-.11-.11-.15l.06.16s0,0,0-.07.12.18.1.26-.26-.23-.17,0c0,0-.06-.11-.11-.18a1.54,1.54,0,0,0,.06.38l-.12-.1a1,1,0,0,1,.18.47l.12.14,0,.14a1.12,1.12,0,0,1-.08-.18v.05a.73.73,0,0,1-.14-.28l.09.1a1.46,1.46,0,0,0-.16-.36.13.13,0,0,1,0,.06.29.29,0,0,0,0-.08s0,0,0,.08l-.13-.2,0,.08-.15-.08a1.75,1.75,0,0,1,.06.73,2.73,2.73,0,0,0-.19-.45c.12.19,0-.12.11-.11s-.07-.09-.08-.13v.23c-.07-.16-.07-.11-.13-.16.16.3,0,.24,0,.35,0-.1-.08-.21,0-.21-.15-.2.08.39-.06.21,0,0,0,0,0,0s-.09,0-.11,0h0c-.09,0-.24.09-.16.36,0,0-.1-.33-.12-.38s0,.24.09.47.07.48.07.48a5.36,5.36,0,0,1-.27-.92s-.07,0-.08.05a1.58,1.58,0,0,1,.13.34,3,3,0,0,0-.21-.32s.13.41.09.41-.11-.36-.11-.4l0,.38a1.6,1.6,0,0,0-.14-.4c0,.07-.06,0-.08,0l.06.07c-.1,0,0,.53-.06.54a1.27,1.27,0,0,0-.14-.5,4,4,0,0,1,.05,1.08l0-.1,0,.13c0-.29,0-.91,0-1.15-.06-.07,0-.12-.09-.1s0-.16,0-.16l-.13,0c.05.22,0,.24,0,.42l.08-.26c.05.22.06.64,0,.62a2.57,2.57,0,0,1-.07-.46c0,.08-.05.15-.07.1v-.12c-.06-.08,0,.3-.11.1,0,0-.1-.28-.09-.15a8.45,8.45,0,0,1,.2,1.21,1.76,1.76,0,0,1-.19-.34c-.06-.2,0-.48-.06-.65a.43.43,0,0,1,0,.17c0-.05,0-.19-.05-.16,0,.23-.1,0,0,.19s0,0-.11,0a1.29,1.29,0,0,1,0,.57.74.74,0,0,0,0-.17c-.1,0-.15-.1-.24-.1s-.06-.13,0-.22,0,.11,0,.12c-.06-.2.06,0,0-.26,0,.13-.06.17-.1.26s.09,0,.13,0a1.15,1.15,0,0,1-.16.7c-.08.07,0-.18-.05-.14s-.14.49-.26.28a1.88,1.88,0,0,1,0-.48c.06-.06.09.12.14.11l-.06-.08c0-.06.07-.11.09-.06,0-.16-.24,0-.34-.18a.38.38,0,0,0-.05.19l0,0c0,.14-.08.19,0,.26s-.13.24-.19.15v-.2c0,.06,0,.12.06.07s-.08-.29-.14,0l0,.14c-.06.1-.15.3-.21.23,0,.2,0,0,0,.22,0-.3.17,0,.14-.28,0,.28.07.12.11.36,0-.06,0-.13,0-.09a.11.11,0,0,0,0,0h0s0,0,0,0a.36.36,0,0,1,0-.1c.05-.15.13-.13.16-.21s0,.07,0,.15l.05-.12c0,.15.07.25,0,.33h.07c0,.08.09.12.13.05s.09-.16.06,0l.11-.09v0c.11,0,.22-.24.35,0,0,0,.07-.08.13,0l0,.13s.15.11.16,0c.09.34.24.05.33.1l0-.16c.06,0,.11-.06.17-.13l0-.15c0-.13.17.1.26,0s0,0,0,0c.18.3.18-.29.33-.08,0-.06,0,0,.06,0h0l.05.07s0-.06-.05-.07a.13.13,0,0,0,.06-.08l.06.15h0c.05.05,0-.08,0-.2a.28.28,0,0,0,0-.1c.09.25.05-.1.16.16,0-.14.11-.13,0-.41,0,0,0,0,0,.06s.08,0,.08,0l.08.18,0-.28a.5.5,0,0,1,.13.33c0-.26.05-.12.05-.37l0,.13s0-.2.07-.11.32-.07.57.06c-.19-.33.15.12,0-.16a.47.47,0,0,1,.1.2c0-.12.19.07.13-.19.05.08,0,.13.07.18s0-.09,0,0,0,.07,0,.11,0-.31-.16-.54c.09.09.11.06.05-.11.06.07.13.14.09.19s.24,0,.13-.16c0,0,0,0,0,0s.09,0,.13-.07l0,0c-.11-.23,0-.08.05-.14v0c.2.08,0-.11.22,0l-.1-.13c-.18-.29.21.1.19,0l-.07-.06c0-.12.36.31.42.32s0,.05,0,.07c.21.1-.11-.17-.07-.26.08.09.15.24.21.23s-.09-.39.09-.27a.33.33,0,0,1-.14-.19c0-.06.32.16.19-.09,0,0,0,0,0,0a.54.54,0,0,0,0-.31c.4.38,0-.37.37,0l.07-.11,0,0c.08,0,0-.15,0-.26s.06.06.08.08.15,0,0-.3l.13.1c0-.08.32,0,.26-.18l0,.06c-.06-.22.56,0,.11-.4l-.06-.16c-.11.07-.2-.16-.31-.18s.21,0,.21.07h0c.24.2.17,0,.34.07.13-.19.39-.3.5-.49l-.22-.1,0-.06c.06,0,.18.07.15.11.13,0-.06-.13-.11-.16.14,0,.23.17.25.14v0h0c-.07-.08-.16-.13-.12-.18s.14,0,.16,0,0,0,0,0l.06-.08-.19,0c-.07-.08.05-.07-.17-.13.35.09.24-.28.35-.27-.11-.11-.09-.16-.05-.22s-.25-.06-.2-.11c.41.17.22,0,.54,0-.22,0,0-.19-.3-.21,0,0,.16,0,.27,0-.13-.17.17-.25.15-.42a.56.56,0,0,1-.23-.06l.3,0s-.32-.09-.11-.11c-.05,0-.13,0-.14,0,.35-.27-.15-.62.39-.9-.11,0-.12,0-.12,0s-.15,0-.23,0l.23-.12c-.22,0,0-.14-.22-.15l0,0a7.2,7.2,0,0,0-.87.06c.28.06-.42.13,0,.22-.06,0-.1,0-.17,0,.13,0,.16,0,.1.1h0c0,.13-.1.18-.2.31h.16s-.08,0-.12,0c.23.06,0-.09.28,0-.32,0-.05.22-.41.19,0,0,.18,0,.17.06h-.1l.13,0s-.16,0-.24,0,0,0,0,0,0,.12,0,.12l.06,0c.06.15-.07.27.07.44l.08,0c.09.13-.11,0-.08.17h0c.06,0,.09.08.07.1s-.18,0-.25-.07c.1.15.09.09.32.25l-.12,0c.1.07.15.09.16.16-.08-.09-.19,0-.3-.14-.28,0,.2.27-.18.16.28.18.21,0,.26,0s.22.14.17.16-.43-.12-.46,0,0,0,0,0,.07.11-.07.08c.17.12,0,0,.19.17v-.1c0,.07.29.25.12.26a.45.45,0,0,1-.12-.12c-.08,0,0,.06-.06,0s0-.12-.16-.25.13.17-.11,0c.3.2-.08.06.13.24l-.13-.08s.07.08.06.09l-.16-.13c.12.13-.18,0-.12.09,0-.08.18.08.29.1.13.22-.37-.14-.39,0,0,0,.12,0,.17.06a.4.4,0,0,1-.19,0c0,.09.14.08.2.16-.18-.08,0,.08.07.15l-.14-.09c-.14,0,.26.21.11.22l-.16-.16,0,.07-.14-.11c.08.12,0,.11,0,.12.09.06.23.18.2.22s-.11-.11-.13,0-.16-.16,0-.09l-.11-.11c-.1,0-.06,0-.07.07h0l.12.22a.32.32,0,0,1-.12-.11s.06.09.05.12a1,1,0,0,1-.23-.24l.06.15s-.15-.06-.18-.1.11.25,0,.23,0,0,0,.06-.21,0-.13.13l-.19-.14c0,.08.24.17.24.3s-.16-.12-.22-.15.19.32,0,.22C140.72,69.39,140.75,69.4,140.76,69.38Zm-.47.53s0-.13,0-.07S140.34,69.94,140.29,69.91Zm-.73.9s0,0,.05,0S139.59,70.84,139.56,70.81Zm-3.1,1.81h0C136.49,72.67,136.48,72.65,136.46,72.62Zm-.08-.07a.13.13,0,0,0,0,.06s0,0,0,0S136.41,72.51,136.38,72.55Zm6.81-4.08h-.05S143.15,68.44,143.19,68.47Z"/><path class="cls-8" d="M139.57,70.56l0,.08A.12.12,0,0,0,139.57,70.56Z"/><polygon class="cls-8" points="140.98 69.01 140.99 69.01 140.97 68.99 140.98 69.01"/><path class="cls-8" d="M137.43,71.16a.25.25,0,0,1,0,.07S137.45,71.16,137.43,71.16Z"/><path class="cls-8" d="M135.93,72.77l.06,0s0,0-.05-.06S135.94,72.77,135.93,72.77Z"/><path class="cls-8" d="M135.66,71.73s0,0,0,0l0,.08S135.68,71.77,135.66,71.73Z"/><path class="cls-8" d="M136,72.24c0-.14,0-.09-.06-.08h0C135.86,72.35,135.9,72.29,136,72.24Z"/><path class="cls-8" d="M135.88,72.17h0C135.83,72.24,135.86,72.18,135.88,72.17Z"/><path class="cls-8" d="M136.27,72.63s0,.17,0,.12C136.21,72.92,136.37,72.54,136.27,72.63Z"/><polygon class="cls-8" points="135.98 71.8 135.97 71.96 136.01 71.83 135.98 71.8"/><path class="cls-8" d="M136.22,72l-.05,0a.11.11,0,0,1,0,.06S136.22,72,136.22,72Z"/><path class="cls-8" d="M136.15,72s0,0,0,0Z"/><polygon class="cls-8" points="136.06 71.76 136.07 71.79 136.1 71.81 136.06 71.76"/><path class="cls-8" d="M136.78,72l.05,0c0-.06,0-.09,0-.07S136.77,72,136.78,72Z"/><path class="cls-8" d="M136.61,71.55a.22.22,0,0,1,0,.12v-.2Z"/><path class="cls-8" d="M136.77,71.5s.07-.16,0-.15S136.72,71.45,136.77,71.5Z"/><polygon class="cls-8" points="137.59 71.7 137.57 71.71 137.62 72.04 137.59 71.7"/><path class="cls-8" d="M138.1,70.78c-.08-.06,0,.21,0,.12,0,.08.06.07.06.14C138.14,71,138.17,71,138.1,70.78Z"/><path class="cls-8" d="M138.12,71v0Z"/><polygon class="cls-8" points="143.99 65.7 144.06 65.65 143.94 65.68 143.99 65.7"/><path class="cls-8" d="M143.74,65.61H144l-.19,0S143.79,65.6,143.74,65.61Z"/><path class="cls-8" d="M140,69.62l0,0s.05,0,.06,0Z"/><polygon class="cls-8" points="140.42 69.44 140.41 69.44 140.55 69.58 140.42 69.44"/><path class="cls-8" d="M140.55,69s0,.05,0,.06S140.72,69.16,140.55,69Z"/><circle class="cls-6" cx="122.66" cy="10.94" r="10.94"/><polygon class="cls-9" points="114.01 114.94 117.86 138.6 130.52 122.64 122.27 107.79 114.01 114.94"/><path class="cls-10" d="M164.5,105.86l-6.79-11.11L121,110.4s-.28,17.37,16.09,14.45S164.5,105.86,164.5,105.86Z"/><path class="cls-7" d="M132.48,125c-4.48,0-7-1.13-8.49-2.27a6.05,6.05,0,0,1-2.39-4.47c0-.65-.16-4.8-.21-7.56a20.69,20.69,0,0,1-8.12,5.38c-2.7.9-4.88.66-6.31-.68a2.56,2.56,0,0,1-.91-2.16c.2-2.55,4.2-5.25,8.07-7.86,1.33-.9,2.6-1.75,3.61-2.54l.81,1c-1.05.81-2.33,1.67-3.69,2.59-3.27,2.21-7.34,5-7.49,6.86a1.29,1.29,0,0,0,.5,1.1c1.34,1.25,3.46.9,5,.39,4.27-1.42,8.27-5.22,8.51-6.56h0a0,0,0,0,1,0,0l.73.15h.57c0,.27.12,7.78.24,9.78a4.69,4.69,0,0,0,1.88,3.51c2.58,2,7.5,2.52,13.86,1.38,14.51-2.58,23.77-15.35,25.32-17.64l-7-10.56,1.1-.73,7.48,11.28-.23.36c-.09.15-10,15.66-26.44,18.59A36.08,36.08,0,0,1,132.48,125Z"/><path class="cls-3" d="M42.52,128.44s9.72.86,13.22-3.32,2.34-9.11-12.3-6C36.8,120.59,36.91,128,42.52,128.44Z"/><path class="cls-3" d="M41.78,120.31S51.5,121.17,55,117s2.34-9.12-12.3-6C36.06,112.48,36.19,119.92,41.78,120.31Z"/><path class="cls-3" d="M41,112.2s9.73.86,13.22-3.31,2.36-9.12-12.28-6C35.34,104.36,35.46,111.81,41,112.2Z"/><path class="cls-11" d="M40.39,120.83a.61.61,0,0,1-.58-.4.62.62,0,0,1,.37-.8c10-3.61,14-2.07,14.18-2a.63.63,0,0,1,.34.81.62.62,0,0,1-.8.34c-.07,0-3.92-1.39-13.3,2A.76.76,0,0,1,40.39,120.83Z"/><path class="cls-11" d="M39.51,112.74a.62.62,0,0,1-.58-.41.62.62,0,0,1,.37-.79c10-3.62,14-2.07,14.16-2a.62.62,0,0,1,.34.8.62.62,0,0,1-.8.35c-.07,0-3.9-1.39-13.28,2A.52.52,0,0,1,39.51,112.74Z"/><path class="cls-3" d="M40.32,104.08s9.72.86,13.22-3.31,2.35-9.12-12.3-6C34.6,96.24,34.72,103.69,40.32,104.08Z"/><path class="cls-11" d="M39,104.89a.62.62,0,0,1-.58-.41.61.61,0,0,1,.37-.79c9.94-3.61,14-2.07,14.16-2a.62.62,0,1,1-.45,1.15c-.07,0-3.92-1.39-13.29,2A.52.52,0,0,1,39,104.89Z"/><polygon class="cls-12" points="214.98 93.81 167.69 93.81 167.69 128.07 178.22 138.6 214.98 138.6 214.98 93.81"/><polygon class="cls-13" points="178.22 128.07 167.69 128.07 178.22 138.6 178.22 128.07"/><g class="cls-14"><path class="cls-15" d="M186.62,110.9a4,4,0,1,1-4-4A4,4,0,0,1,186.62,110.9Z"/><path class="cls-15" d="M195.38,110.9a4,4,0,1,1-4-4A4,4,0,0,1,195.38,110.9Z"/><path class="cls-15" d="M204.15,110.9a4,4,0,1,1-4-4A4,4,0,0,1,204.15,110.9Z"/></g><g class="cls-14"><rect class="cls-15" x="178.35" y="117.81" width="26.1" height="4.53"/></g><path class="cls-3" d="M222.23,135.16s-9.72.86-13.22-3.32-2.35-9.11,12.3-6C228,127.31,227.84,134.76,222.23,135.16Z"/><path class="cls-3" d="M223,127s-9.73.86-13.23-3.31-2.34-9.12,12.3-6C228.69,119.2,228.55,126.64,223,127Z"/><path class="cls-3" d="M223.71,118.92s-9.74.86-13.22-3.32-2.37-9.11,12.28-6C229.41,111.08,229.29,118.53,223.71,118.92Z"/><path class="cls-11" d="M224.36,127.55a.71.71,0,0,1-.21,0c-9.42-3.43-13.26-2-13.3-2a.62.62,0,0,1-.46-1.15c.17-.07,4.22-1.62,14.18,2a.63.63,0,0,1,.37.8A.61.61,0,0,1,224.36,127.55Z"/><path class="cls-11" d="M225.23,119.46a.52.52,0,0,1-.21,0c-9.41-3.42-13.24-2-13.27-2a.62.62,0,0,1-.8-.35.6.6,0,0,1,.34-.8c.17-.07,4.21-1.62,14.16,2a.62.62,0,0,1,.37.79A.64.64,0,0,1,225.23,119.46Z"/><path class="cls-3" d="M224.43,110.8s-9.72.86-13.22-3.31-2.35-9.12,12.3-6C230.15,103,230,110.41,224.43,110.8Z"/><path class="cls-11" d="M225.78,111.61a.71.71,0,0,1-.21,0c-9.41-3.41-13.25-2-13.29-2a.63.63,0,0,1-.8-.35.62.62,0,0,1,.34-.8c.17-.07,4.23-1.61,14.17,2a.63.63,0,0,1,.37.8A.62.62,0,0,1,225.78,111.61Z"/><path class="cls-1" d="M146.78,63c30.85,57.63,67.11,66.21,79.68,56.42C236.6,111.49,248,105.85,260,104.15V0H0V66.17C36.13,14.87,117.16,7.64,146.78,63Z"/><path class="cls-16" d="M5.9,178c3.56-5.82,7-10.87,9-14.11,9.82-16.09,19.9-32.69,31.73-47.39l26.78-.88c-.53,2.26-1.76,6.16-3.47,11.15,5-4.28,8.16-6.89,8.16-6.89A81.91,81.91,0,0,1,91.66,112c9.56-6.52,22.54-10.2,37.51-8.15a96.41,96.41,0,0,1,22.23,5.74c9.4-5.83,22.61-5.65,42.91,12.84l23.8.79c11.84,14.7,21.92,31.3,31.74,47.39,1.16,1.9,2.84,4.44,4.75,7.39H260V104.15c-12,1.7-23.4,7.34-33.54,15.23-12.57,9.79-48.83,1.21-79.68-56.42C117.16,7.64,36.13,14.87,0,66.17V178Z"/><path class="cls-10" d="M194.31,122.44C174,104,160.8,103.77,151.4,109.6a96.41,96.41,0,0,0-22.23-5.74c-15-2-27.95,1.63-37.51,8.15a81.91,81.91,0,0,0-13.56,7.88s-3.13,2.61-8.16,6.89c-4.42,12.87-12,33-18.9,51.23H211.17c-8.86-23.47-18.11-48.26-19.84-55.67Z"/><path class="cls-3" d="M69.94,126.78c1.71-5,2.94-8.89,3.47-11.15l-26.78.88c-11.83,14.7-21.91,31.3-31.73,47.39-2,3.24-5.44,8.29-9,14.11h7.56C30.73,160.5,56.81,137.94,69.94,126.78Z"/><path class="cls-3" d="M13.46,178H51c6.88-18.21,14.48-38.36,18.9-51.23C56.81,137.94,30.73,160.5,13.46,178Z"/><path class="cls-3" d="M218.11,123.23l-23.8-.79c1.18,1.08,2.38,2.2,3.61,3.4,19,18.57,36.3,37.87,48.59,52.17h8.09c-1.91-2.95-3.59-5.49-4.75-7.39C240,154.53,230,137.93,218.11,123.23Z"/><path class="cls-3" d="M197.92,125.84c-1.23-1.2-2.43-2.32-3.61-3.4l-3-.1c1.73,7.41,11,32.2,19.84,55.67h35.34C234.22,163.71,216.91,144.41,197.92,125.84Z"/><path class="cls-3" d="M117.41,101.45c0,10.15,8.22,12.27,18.37,12.27l2.32-1.93c10.15,0,18.37-.19,18.37-10.34V76.86A18.36,18.36,0,0,0,138.1,58.49h-2.32a18.36,18.36,0,0,0-18.37,18.37Z"/><g class="cls-4"><path class="cls-5" d="M156.16,80.36s-16.47,9.8-23.66,5.27l23.22,17.2Z"/></g><path class="cls-3" d="M112.67,65.72c0,13.61,9.1,20.79,22.71,20.79h3.12c13.62,0,22.72-7.18,22.72-20.79l1.93-33c0-13.61-11-23-24.65-23l-3.12-1.65a24.64,24.64,0,0,0-24.64,24.64Z"/><path class="cls-6" d="M162.63,46.32C161.72,43.08,158.8,33.93,156,29c-12.44,8.39-25.48,3.49-37.15-3.34-2.58,9-5.17,18.16-7.3,18.84-4.15-7.36-9.09-29.48,1.94-28.94C108.85,4.34,121.19-1,128.32,1c6.25,1.77,16.43,8.68,22.42,10.26,5.14,1.34,8.79.45,12.53,5.21,5.57,7.13,3.11,19.51.33,27.22"/><path class="cls-3" d="M116.38,50.84s-4.14-8-10.1-3.86-4,14.41,10.58,16.12"/><path class="cls-7" d="M113.19,55.7a.61.61,0,0,1-.42-.16l-3.49-3.24a.62.62,0,0,1,.84-.91l3.49,3.24a.62.62,0,0,1,0,.87A.61.61,0,0,1,113.19,55.7Z"/><path class="cls-3" d="M158.52,51.15s4.14-8,10.11-3.86,4,14.4-10.58,16.11"/><path class="cls-7" d="M161.71,56a.62.62,0,0,1-.45-.2.62.62,0,0,1,0-.87l3.49-3.24a.62.62,0,0,1,.85.91l-3.49,3.24A.64.64,0,0,1,161.71,56Z"/><path class="cls-7" d="M123.82,48.48c2.21-.73,1.6,3.18.82,4.11-1.83,2.26-2.38-1.91-1.2-3.68Z"/><path class="cls-7" d="M123.69,53.66a.92.92,0,0,1-.57-.19c-1-.7-1-3.39,0-4.79l.48-.56.11,0a1.37,1.37,0,0,1,1.71.47c.76,1.11.17,3.57-.44,4.31A1.74,1.74,0,0,1,123.69,53.66Zm.36-4.82-.29.34c-.72,1.08-.64,3.26-.15,3.63.15.11.48-.19.71-.48.48-.58.88-2.62.4-3.32C124.66,48.92,124.52,48.72,124.05,48.84Z"/><path class="cls-7" d="M142.8,48.75c2.21-.72,1.6,3.18.82,4.12-1.83,2.25-2.38-1.92-1.19-3.68Z"/><path class="cls-7" d="M142.67,53.94a1,1,0,0,1-.57-.2c-.94-.7-.95-3.38,0-4.78l.48-.56.11,0a1.36,1.36,0,0,1,1.71.46c.76,1.12.17,3.58-.44,4.31A1.74,1.74,0,0,1,142.67,53.94Zm.36-4.83-.29.35c-.72,1.07-.64,3.26-.14,3.62.15.11.47-.19.7-.47.49-.59.88-2.62.4-3.33C143.64,49.19,143.51,49,143,49.11Z"/><path class="cls-8" d="M135.17,62.32s0-.13,0-.16S135.17,62.35,135.17,62.32Z"/><polygon class="cls-8" points="134.65 62.66 134.66 62.6 134.59 62.74 134.65 62.66"/><path class="cls-8" d="M134.17,62.69c.06.23.17-.06.27,0v.06l0-.2C134.38,62.61,134.25,62.74,134.17,62.69Z"/><path class="cls-8" d="M133.88,62.19c0,.09,0,.09.06,0v0Z"/><path class="cls-8" d="M133.93,62.2s0-.08,0,0Z"/><path class="cls-8" d="M133.71,62.26l.06-.08s-.08-.06-.06-.1S133.67,62.18,133.71,62.26Z"/><path class="cls-8" d="M133.66,62.44l0,0S133.67,62.37,133.66,62.44Z"/><path class="cls-8" d="M133.76,62.32l-.07.08s0,.12,0,0C133.72,62.44,133.73,62.38,133.76,62.32Z"/><path class="cls-8" d="M133.8,62.36s.09.08,0,.16C134,62.48,133.92,62.32,133.8,62.36Z"/><path class="cls-8" d="M134.17,62.93l.05.06,0-.08S134.16,62.86,134.17,62.93Z"/><path class="cls-8" d="M133.31,62.17s0,.13,0,.19l0-.06A.21.21,0,0,1,133.31,62.17Z"/><path class="cls-8" d="M133.34,62.36l-.06.09C133.34,62.46,133.35,62.42,133.34,62.36Z"/><polygon class="cls-8" points="133.66 62.7 133.77 62.51 133.64 62.71 133.66 62.7"/><polygon class="cls-8" points="133.05 62.17 133.08 62.05 133.02 62.23 133.05 62.17"/><path class="cls-8" d="M132.88,62.2c0-.1,0-.17,0-.23a.37.37,0,0,0-.11.18S132.83,62.12,132.88,62.2Z"/><path class="cls-8" d="M132.7,62.25s0-.06.06-.1A.29.29,0,0,0,132.7,62.25Z"/><path class="cls-8" d="M133.16,62.43s0-.11-.06-.14l0,.14Z"/><path class="cls-8" d="M133.13,62.43Z"/><path class="cls-8" d="M133.17,62.43h0S133.16,62.45,133.17,62.43Z"/><path class="cls-8" d="M133.47,62.59c0,.08-.12.17,0,.28C133.47,62.77,133.41,62.71,133.47,62.59Z"/><path class="cls-8" d="M133.21,62.61l.07,0s0-.1,0-.14Z"/><polygon class="cls-8" points="133.17 62.65 133.21 62.61 133.18 62.59 133.17 62.65"/><path class="cls-8" d="M132.82,62.39a.13.13,0,0,1-.1.07.21.21,0,0,0,.12,0S132.86,62.38,132.82,62.39Z"/><path class="cls-8" d="M133,62.43h0S133,62.45,133,62.43Z"/><polygon class="cls-8" points="132.35 62.45 132.35 62.48 132.35 62.46 132.35 62.45"/><path class="cls-8" d="M132.85,62.53s0,0,.06-.05,0,0-.07,0S132.83,62.54,132.85,62.53Z"/><path class="cls-8" d="M132.59,62.32l.06.08S132.6,62.28,132.59,62.32Z"/><path class="cls-8" d="M133,62.4h0S132.94,62.37,133,62.4Z"/><path class="cls-8" d="M133,62.4a.2.2,0,0,0,0,.08.08.08,0,0,0,.05,0Z"/><path class="cls-8" d="M132.17,63.35c0-.13.11-.25.18-.1a1.64,1.64,0,0,0,0-.77.22.22,0,0,1-.08.18c0,.07.15.18.08.29s-.08-.05-.12-.12c0,.16-.14.22-.14.46l.1-.07S132.15,63.31,132.17,63.35Z"/><path class="cls-8" d="M132.48,62.5l0,0s0-.07-.09-.18a.31.31,0,0,0-.07.16l.14,0Z"/><path class="cls-8" d="M132.64,62.48c0,.15-.1.21-.06.36.09,0,.07-.12.12-.18-.14,0,0-.08-.06-.16l.08,0s-.05,0-.07-.06h0s0,0,0,0h0v0s0,0,0,0v0h0l-.14.07A.14.14,0,0,0,132.64,62.48Z"/><path class="cls-8" d="M133.38,63.18a0,0,0,0,1,0,0S133.36,63.18,133.38,63.18Z"/><path class="cls-8" d="M133.31,63.1s0-.08.05-.07,0,.07,0,.12.07-.11,0-.17v0a.52.52,0,0,1-.13-.24A2.37,2.37,0,0,0,133.31,63.1Z"/><path class="cls-8" d="M133,62.84l-.12.06.07.13V63C133,63,133,62.89,133,62.84Z"/><polygon class="cls-8" points="132.34 62.38 132.36 62.23 132.29 62.44 132.34 62.38"/><polygon class="cls-8" points="132.2 62.39 132.21 62.26 132.17 62.33 132.2 62.39"/><path class="cls-8" d="M130.34,55.46l0,0A.05.05,0,0,0,130.34,55.46Z"/><path class="cls-8" d="M130.27,55.72l.06,0Z"/><path class="cls-8" d="M130.87,60.84c.12,0,.32-.07.17-.09h-.14A.07.07,0,0,1,130.87,60.84Z"/><path class="cls-8" d="M130.46,58h0l.12.07Z"/><path class="cls-8" d="M129.89,57.85l.11-.05A.34.34,0,0,0,129.89,57.85Z"/><path class="cls-8" d="M130.57,54l-.13-.08C130.43,54,130.5,54,130.57,54Z"/><path class="cls-8" d="M131,62.15c0-.06,0-.08,0-.1S130.89,62.25,131,62.15Z"/><path class="cls-8" d="M131.78,56a.11.11,0,0,0-.07-.06A.13.13,0,0,0,131.78,56Z"/><path class="cls-8" d="M130.94,62l0,0H131S131,62,130.94,62Z"/><path class="cls-8" d="M132,49h0S132,49,132,49Z"/><path class="cls-8" d="M133.71,47.79s0,0,0,.07S133.72,47.83,133.71,47.79Z"/><path class="cls-8" d="M131.67,62.25s0,0,0,0Z"/><path class="cls-8" d="M131.7,62.83a.64.64,0,0,0,0,.07A.25.25,0,0,0,131.7,62.83Z"/><path class="cls-8" d="M130.09,62.42Z"/><path class="cls-8" d="M131.7,62.32l0,0S131.68,62.3,131.7,62.32Z"/><path class="cls-8" d="M131.7,62.25l0,0S131.73,62.23,131.7,62.25Z"/><path class="cls-8" d="M131.63,62.25l0,0s0,0,0,0Z"/><path class="cls-8" d="M131.68,51.8h0S131.65,51.77,131.68,51.8Z"/><polygon class="cls-8" points="129.49 59.79 129.5 59.8 129.5 59.79 129.49 59.79"/><path class="cls-8" d="M129.4,59.66c.17.07.14.1.1.13l.42,0Z"/><path class="cls-8" d="M130.47,54.84l-.15,0c-.18-.16-.09-.21-.28-.18.43.13,0,.34.38.47l-.1,0s0,0,0,0c-.24,0,.29.16.19.28a.11.11,0,0,1-.16,0l.08.14s-.09,0-.07,0v.17h0a1.6,1.6,0,0,1,.19.16c-.08,0,0,0-.1,0l.08.12c-.12,0-.21-.1-.18-.15-.45,0,.09.1-.21.22l0-.1c-.26,0-.19.08-.37.14.09,0,.44-.1.52,0s-.07.05,0,.13c-.16,0-.13,0-.14.09l-.2-.06c0,.09.14.11.22.17s-.2,0-.34,0,.28,0,.28.14,0,.18.05.33c-.09.06-.13,0-.19,0l.15.11s-.06,0-.09,0,.21.06.24.16c.22.08-.37.1-.15.27-.06,0-.12-.05-.2-.06a1.12,1.12,0,0,0,.29.34l-.16.07c.17,0,.33.1.46.22l.19,0,.08.15a.36.36,0,0,1-.19-.06l.05,0a.39.39,0,0,1-.31-.09l.14,0a1.4,1.4,0,0,0-.37-.14.1.1,0,0,1,0,0l-.08,0s0,0,.07.06l-.24,0,.09,0-.19.15c.21.18.52.36.57.58a1.62,1.62,0,0,0-.47-.11c.22,0-.06-.18,0-.27s-.13,0-.16,0l.15.23c-.16,0-.13,0-.21.05.33,0,.18.19.27.28-.11,0-.22-.06-.17-.14-.27.05.35.21.12.27,0,0,0,0,0,0a.09.09,0,0,1-.1.15v0c-.06.16-.08.51.2.55l-.39-.06.45.17.46.16c-.24,0-.82,0-.94-.1,0,0-.08.06,0,.13s.35,0,.37,0a2,2,0,0,0-.39.13c.06,0,.43,0,.41.1a2.7,2.7,0,0,1-.41-.06l.36.18a1.13,1.13,0,0,0-.42,0c.07,0,0,.12,0,.16l.09,0c-.08.14.49.23.45.39-.07,0-.46-.12-.52-.05a4.41,4.41,0,0,1,1,.46l-.11,0,.11.12a6.64,6.64,0,0,1-1.07-.52c-.09.05-.13,0-.13.09a.12.12,0,0,1-.15-.1L129,61c.23,0,.2.21.39.22l-.2-.28c.22,0,.6.23.55.38a1.7,1.7,0,0,1-.46-.08c.07,0,.13.18.07.19l-.11-.08c-.09.09.28.18.07.29,0,0-.29.15-.15.15a4.72,4.72,0,0,1,1.22-.08L130,62c-.19.1-.48,0-.64.06a.39.39,0,0,1,.17,0c0,.06-.19,0-.15.12.22,0,0,.22.2,0,.09.08,0,.12,0,.23a1.37,1.37,0,0,1,.58-.09.57.57,0,0,0-.14.11c.07.14.06.28.19.39,0,0,0,.15-.09.21s.12-.06.16,0c0,.23-.12,0-.19.19.09-.09.24-.06.35-.1s-.13-.11-.25-.1a2.21,2.21,0,0,1,.59-.46c.1,0,0,.18,0,.15.19.12.33-.4.43-.16a1.69,1.69,0,0,1-.12.47c-.12,0-.11-.15-.18-.17l.05.11c-.05,0-.13.06-.14,0,0,.17.35.18.5.34.05,0,.12-.1.11-.18l-.07,0c0-.15.15-.18.09-.26.1-.08.2-.22.28-.13v.21c0-.06,0-.13-.09-.08s.12.31.2.05l-.05-.15c.08-.09.19-.3.27-.23,0-.2,0,0-.06-.22,0,.3-.2,0-.16.28,0-.28-.09-.13-.12-.37,0,.06,0,.13-.06.08l0,.06h0a.37.37,0,0,1,0,.11c-.06.14-.17.12-.22.19s0-.07,0-.15l-.08.11c0-.14,0-.27.07-.33l-.07,0c0-.09-.07-.14-.13-.1s-.14.13-.07,0l-.15.05v0c-.07,0-.09,0-.15,0s-.08,0,0-.14-.09,0-.08,0l.1-.09c-.05,0,.08-.11,0-.05.31-.17,0-.08.1-.14l-.16,0s0-.07-.11-.13h-.15c-.12-.08.11-.17.11-.3.06,0,0,0,0,.07.35-.1-.2-.35.06-.46,0,0,0-.07,0-.09h0l.09,0-.09,0a.27.27,0,0,0,0-.13h.16c.06,0-.07-.05-.19,0l-.09-.08c.26,0-.07-.12.21-.14-.13,0-.07-.24-.35-.29,0,0,.06,0,.05,0s.08-.09,0-.14h.21l-.27-.13a.33.33,0,0,1,.36,0c-.23-.19-.08-.12-.3-.27l.13,0s-.16-.12,0-.14c.27-.07.08-.45.38-.67-.38,0,.2-.08-.09-.15.09,0,.15,0,.22,0-.06-.15.18-.17,0-.31.09,0,.12.06.18.06s-.07-.06,0-.06.07,0,.1.06c0-.13-.25-.21-.51-.28.14,0,.13-.08,0-.16.09,0,.19,0,.2.06s.19-.25,0-.3a0,0,0,0,0,0-.08c0-.11.06-.11.06-.22l0,0c-.23-.1,0-.1,0-.19h0c.22-.14-.07-.1.18-.24l-.15,0c-.33-.1.23-.11.14-.26l-.1,0c-.1-.09.49-.05.55-.1s0,0,.05.06c.24-.11-.19-.07-.21-.2s.27.1.31,0-.29-.32-.06-.38c-.09,0-.18,0-.22-.06s.37-.14.13-.29h.07c-.05-.08-.06-.23-.19-.31.54.08-.15-.46.33-.33l0-.2h.05c.07-.11,0-.19-.14-.26s.08,0,.1,0c.15-.15.13-.18-.07-.4l.16,0c-.08-.07.32-.2.19-.43l.06,0c-.13-.25.57-.36,0-.59l-.1-.17c-.09.16-.25-.09-.36-.05s.22-.13.23,0h0c.3.11.17-.19.37-.13.08-.34.33-.63.43-.94l-.25,0,0-.1c.06,0,.19,0,.16.08.14,0-.08-.16-.13-.18.14-.13.26.13.28.09V52h0c-.08-.08-.18-.11-.14-.2s.15,0,.17,0,0,0,0,0l.06-.14h-.2c-.08-.09,0-.13-.18-.12.34,0,.25-.49.36-.52a.25.25,0,0,1,0-.31s-.26,0-.21-.11c.42.14.23-.12.55-.12-.22,0,0-.28-.3-.24.05-.07.16,0,.28,0-.13-.22.2-.38.2-.62-.06,0-.15,0-.22-.07l.31,0c0-.06-.32-.12-.1-.16-.06,0-.13,0-.14,0,.39-.38,0-1,.58-1.32-.12,0-.13,0-.12,0s-.14,0-.22,0l.25-.15c-.21-.08,0-.21-.17-.27l0,.07c-.23-.12-.56,0-.87,0,.26.14-.45.16-.09.38-.07,0-.09,0-.17,0,.13.07.15.12.07.19l0,0c0,.24-.16.31-.3.54l.16,0c0,.05-.08.05-.13.07.22.11.05-.15.29,0-.32,0-.09.39-.46.36,0,.08.19,0,.16.1h-.1l.12.05s-.16,0-.24,0,0-.05,0-.06,0,.21,0,.23l.08-.07c0,.25-.16.5,0,.77h.08c.09.21-.11.12-.1.33h0a.14.14,0,0,1,.06.16c-.07-.07-.18.05-.26,0,.09.22.09.12.32.31H132c.09.07.15.09.16.19-.09-.1-.2,0-.31-.11-.31.14.18.36-.22.36.31.17.23-.13.28-.06s.23.14.18.19-.45,0-.48.16c0,0,0,0,0,0s.09.15-.07.19c.19.09,0,.09.22.17l0-.16c0,.1.32.25.14.35a.41.41,0,0,1-.14-.12c-.08,0,0,.09-.05.11-.25-.08,0-.19-.18-.33-.12,0,.14.22-.13.1.34.15-.08.14.16.32l-.15,0s.08.08.07.11l-.18-.11c.14.14-.19.13-.12.24,0-.18.19,0,.32,0,.14.27-.43,0-.42.28,0,0,.12-.09.18,0a.4.4,0,0,1-.21.08c0,.17.17,0,.24.11-.2,0,0,.1.09.19l-.15,0c-.15.15.31.13.15.26l-.2-.12,0,.1-.17-.07c.11.13.07.15,0,.23.12,0,.28.09.26.17s-.14-.07-.15,0c-.08,0-.2-.11,0-.13a.91.91,0,0,1-.14-.07c-.12,0-.06.15-.07.19a.08.08,0,0,1,0,0l.17.23c-.06,0-.1,0-.14-.06s.07.08.07.13-.25-.07-.29-.16l.09.2c-.05,0-.17,0-.21,0s.19.28.06.37c0,0,0,0,.05.06s-.23.16-.1.34h-.24c0,.12.31,0,.35.17s-.21,0-.28,0c.1.09.3.25.09.31C130.43,54.9,130.48,54.88,130.47,54.84Zm-.24,1.28s-.11-.11,0-.1S130.29,56.09,130.23,56.12Zm-.11,2c-.05,0,0-.06,0-.07S130.17,58.12,130.12,58.14Zm1.22,4.16h0C131.31,62.24,131.32,62.26,131.34,62.3Zm.07.1a.07.07,0,0,0,0-.06s0,0-.05,0S131.37,62.42,131.41,62.4Zm1.4-10.69,0,0C132.73,51.66,132.77,51.69,132.81,51.71Z"/><path class="cls-8" d="M130,57.87h.09A.08.08,0,0,0,130,57.87Z"/><polygon class="cls-8" points="130.6 54.04 130.6 54.03 130.57 54.02 130.6 54.04"/><path class="cls-8" d="M129.33,62.09a.19.19,0,0,1,.07-.08S129.33,62,129.33,62.09Z"/><path class="cls-8" d="M132,62.23l-.07,0s0,0,.05.07S131.94,62.23,132,62.23Z"/><path class="cls-8" d="M132.48,63.26s0,0,0,0v-.08S132.43,63.23,132.48,63.26Z"/><path class="cls-8" d="M132,62.76c0,.14,0,.1.09.07h0C132.07,62.65,132,62.71,132,62.76Z"/><path class="cls-8" d="M132.06,62.83h0C132.11,62.76,132.09,62.81,132.06,62.83Z"/><path class="cls-8" d="M131.55,62.34s0-.16,0-.11C131.66,62.07,131.42,62.41,131.55,62.34Z"/><polygon class="cls-8" points="131.94 63.2 131.94 63.04 131.9 63.17 131.94 63.2"/><path class="cls-8" d="M131.56,63l.07.06a.11.11,0,0,1,0,0S131.57,63,131.56,63Z"/><path class="cls-8" d="M131.66,63a.06.06,0,0,0,.07,0S131.69,63,131.66,63Z"/><polygon class="cls-8" points="131.82 63.24 131.8 63.21 131.75 63.18 131.82 63.24"/><path class="cls-8" d="M130.75,62.75h-.1s0,.09,0,.08S130.74,62.8,130.75,62.75Z"/><path class="cls-8" d="M130.84,63.26a.56.56,0,0,1,0-.13l-.07.19Z"/><path class="cls-8" d="M130.54,63.2s-.23.07-.08.13S130.62,63.29,130.54,63.2Z"/><polygon class="cls-8" points="129.86 61.84 129.87 61.86 130.2 61.83 129.86 61.84"/><path class="cls-8" d="M129.18,60.5c-.09.09.2,0,.09.13.08,0,.09-.06.16,0C129.35,60.53,129.41,60.5,129.18,60.5Z"/><path class="cls-8" d="M129.43,60.6a.08.08,0,0,0,0,0Z"/><polygon class="cls-8" points="133.94 47.57 134.02 47.51 133.9 47.53 133.94 47.57"/><path class="cls-8" d="M133.72,47.39l.21,0-.18-.07S133.77,47.39,133.72,47.39Z"/><path class="cls-8" d="M129.77,56.2l0,0a.1.1,0,0,0,.09,0Z"/><polygon class="cls-8" points="130.16 55.32 130.15 55.34 130.35 55.36 130.16 55.32"/><path class="cls-8" d="M130.13,54.5s0,.07,0,.1S130.37,54.55,130.13,54.5Z"/><path class="cls-8" d="M133.71,71.88s-.07.1-.09.12S133.73,71.85,133.71,71.88Z"/><polygon class="cls-8" points="134.18 71.75 134.15 71.8 134.25 71.7 134.18 71.75"/><path class="cls-8" d="M134.46,71.89c.07-.23-.12,0-.13-.11v-.06l-.1.16C134.31,71.89,134.44,71.81,134.46,71.89Z"/><path class="cls-8" d="M134.43,72.44c0-.09.07-.06,0,0v0Z"/><path class="cls-8" d="M134.4,72.42s0,.08,0,0Z"/><path class="cls-8" d="M134.58,72.43l-.07.06c0,.05,0,.08,0,.11S134.58,72.52,134.58,72.43Z"/><path class="cls-8" d="M134.68,72.28l0,0S134.64,72.34,134.68,72.28Z"/><path class="cls-8" d="M134.57,72.36l.07-.06s0-.11,0,0C134.64,72.26,134.61,72.32,134.57,72.36Z"/><path class="cls-8" d="M134.56,72.31s0-.09,0-.15C134.51,72.16,134.46,72.32,134.56,72.31Z"/><path class="cls-8" d="M134.57,71.67V71.6l-.06.06S134.54,71.74,134.57,71.67Z"/><path class="cls-8" d="M134.83,72.63s0-.13,0-.2l-.05,0S134.85,72.56,134.83,72.63Z"/><path class="cls-8" d="M134.87,72.43l.07-.06S134.88,72.38,134.87,72.43Z"/><polygon class="cls-8" points="134.77 72.03 134.63 72.18 134.79 72.03 134.77 72.03"/><polygon class="cls-8" points="135.02 72.69 134.96 72.8 135.06 72.64 135.02 72.69"/><path class="cls-8" d="M135.16,72.71c0,.09,0,.17,0,.22s.09-.08.14-.14S135.18,72.8,135.16,72.71Z"/><path class="cls-8" d="M135.31,72.69l-.06.1A.29.29,0,0,0,135.31,72.69Z"/><path class="cls-8" d="M135,72.42a.22.22,0,0,0,0,.14l0-.14Z"/><path class="cls-8" d="M135,72.42h0l0,0Z"/><path class="cls-8" d="M135,72.41h0S135,72.4,135,72.41Z"/><path class="cls-8" d="M134.86,72.19c0-.07.13-.13.11-.26C134.92,72,134.94,72.09,134.86,72.19Z"/><path class="cls-8" d="M135,72.24l0,0a.26.26,0,0,1-.05.12Z"/><polygon class="cls-8" points="135.07 72.2 135.04 72.24 135.05 72.25 135.07 72.2"/><path class="cls-8" d="M135.25,72.54a.11.11,0,0,1,.1-.05.17.17,0,0,0-.08-.07S135.22,72.53,135.25,72.54Z"/><path class="cls-8" d="M135.15,72.47h0Z"/><polygon class="cls-8" points="135.63 72.54 135.63 72.51 135.62 72.53 135.63 72.54"/><path class="cls-8" d="M135.27,72.39s0,0-.06,0a.07.07,0,0,1,.06,0S135.28,72.39,135.27,72.39Z"/><path class="cls-8" d="M135.41,72.65l0-.09S135.4,72.68,135.41,72.65Z"/><path class="cls-8" d="M135.15,72.5h0Z"/><path class="cls-8" d="M135.15,72.5a.22.22,0,0,0,.06-.07.09.09,0,0,0-.05,0A.06.06,0,0,1,135.15,72.5Z"/><path class="cls-8" d="M135.86,71.66c0,.12-.1.23-.12.09a2.14,2.14,0,0,0-.11.76.31.31,0,0,1,.08-.18c0-.07-.08-.18,0-.29s.05.06.07.13c0-.17.12-.22.14-.46l-.07.07S135.87,71.69,135.86,71.66Z"/><path class="cls-8" d="M135.53,72.48h0a.44.44,0,0,1,0,.19.32.32,0,0,0,.08-.15l-.1,0Z"/><path class="cls-8" d="M135.41,72.48c0-.14.11-.19.11-.34-.07,0-.07.11-.12.16.11,0-.05.07,0,.16l-.06,0,0,.07h0s0,0,0,0h0l0,0s0,0,0,0v0h0l.12-.07S135.46,72.47,135.41,72.48Z"/><path class="cls-8" d="M135.11,71.65v0A0,0,0,0,0,135.11,71.65Z"/><path class="cls-8" d="M135.13,71.75s0,.07-.06,0,0-.06,0-.11a.19.19,0,0,0-.06.17v0a.59.59,0,0,1,0,.26C135.1,72,135.11,71.87,135.13,71.75Z"/><path class="cls-8" d="M135.27,72.08l.09,0V71.9l0,.07S135.28,72,135.27,72.08Z"/><polygon class="cls-8" points="135.62 72.61 135.59 72.75 135.67 72.55 135.62 72.61"/><polygon class="cls-8" points="135.74 72.61 135.71 72.73 135.76 72.66 135.74 72.61"/><path class="cls-8" d="M140.53,69.63v0A.06.06,0,0,0,140.53,69.63Z"/><path class="cls-8" d="M140.41,69.72l0,0S140.42,69.71,140.41,69.72Z"/><path class="cls-8" d="M138.47,72.46c.07.11.16.28.11.14l0-.14S138.5,72.48,138.47,72.46Z"/><path class="cls-8" d="M139.8,71l0,0a.65.65,0,0,1,0,.13S139.8,71.07,139.8,71Z"/><path class="cls-8" d="M139.54,70.5l.08.06Z"/><path class="cls-8" d="M141,69l-.1-.12S140.91,68.94,141,69Z"/><path class="cls-8" d="M136.89,72.63c0,.06.06.08.08.09S136.9,72.51,136.89,72.63Z"/><path class="cls-8" d="M141.46,70.83a.12.12,0,0,0,0-.08S141.44,70.8,141.46,70.83Z"/><path class="cls-8" d="M137.07,72.72l0,0a.08.08,0,0,1-.08,0C137,72.78,137,72.82,137.07,72.72Z"/><path class="cls-8" d="M142.27,66.63h0Z"/><path class="cls-8" d="M143.8,65.87s0,0,0,0S143.82,65.9,143.8,65.87Z"/><path class="cls-8" d="M136.19,72.73s0,0,0,0Z"/><path class="cls-8" d="M136.13,72.15a.35.35,0,0,0,0-.06A.35.35,0,0,1,136.13,72.15Z"/><path class="cls-8" d="M137.23,71.81Z"/><path class="cls-8" d="M136.16,72.66a.08.08,0,0,0,0,0Z"/><path class="cls-8" d="M136.15,72.73l0,0S136.13,72.75,136.15,72.73Z"/><path class="cls-8" d="M136.22,72.73l0,0a0,0,0,0,1,0,0Z"/><path class="cls-8" d="M142.13,68.19h0S142.1,68.16,142.13,68.19Z"/><polygon class="cls-8" points="138.58 70.88 138.58 70.89 138.58 70.89 138.58 70.88"/><path class="cls-8" d="M138.61,70.75c0,.18,0,.17,0,.14l.16.38Z"/><path class="cls-8" d="M140.76,69.38l-.13-.07c-.1-.18,0-.16-.18-.26.31.33-.1.14.2.48l-.09,0s0,0,0,0c-.19-.12.18.27.08.28a.17.17,0,0,1-.12-.1l0,.12s-.06,0-.05-.06l0,.09h0l.1.21c-.06,0,0,0-.06-.08l0,.12c-.08-.08-.12-.2-.08-.21-.32-.32,0,.12-.2,0v-.08c-.18-.18-.15-.08-.29-.18.06.06.33.26.35.38s-.06,0,0,.07c-.1-.13-.1-.08-.12-.06l-.12-.17c0,.07.07.16.1.25s-.15-.12-.23-.23.18.19.14.27-.08,0-.07.2c-.07,0-.06-.11-.11-.15l.06.16s0,0,0-.07.12.18.1.26-.26-.23-.17,0c0,0-.06-.11-.11-.18a1.54,1.54,0,0,0,.06.38l-.12-.1a1,1,0,0,1,.18.47l.12.14,0,.14a1.12,1.12,0,0,1-.08-.18v.05a.73.73,0,0,1-.14-.28l.09.1a1.46,1.46,0,0,0-.16-.36.13.13,0,0,1,0,.06.29.29,0,0,0,0-.08s0,0,0,.08l-.13-.2,0,.08-.15-.08a1.75,1.75,0,0,1,.06.73,2.73,2.73,0,0,0-.19-.45c.12.19,0-.12.11-.11s-.07-.09-.08-.13v.23c-.07-.16-.07-.11-.13-.16.16.3,0,.24,0,.35,0-.1-.08-.21,0-.21-.15-.2.08.39-.06.21,0,0,0,0,0,0s-.09,0-.11,0h0c-.09,0-.24.09-.16.36,0,0-.1-.33-.12-.38s0,.24.09.47.07.48.07.48a5.36,5.36,0,0,1-.27-.92s-.07,0-.08.05a1.58,1.58,0,0,1,.13.34,3,3,0,0,0-.21-.32s.13.41.09.41-.11-.36-.11-.4l0,.38a1.6,1.6,0,0,0-.14-.4c0,.07-.06,0-.08,0l.06.07c-.1,0,0,.53-.06.54a1.27,1.27,0,0,0-.14-.5,4,4,0,0,1,.05,1.08l0-.1,0,.13c0-.29,0-.91,0-1.15-.06-.07,0-.12-.09-.1s0-.16,0-.16l-.13,0c.05.22,0,.24,0,.42l.08-.26c.05.22.06.64,0,.62a2.57,2.57,0,0,1-.07-.46c0,.08-.05.15-.07.1v-.12c-.06-.08,0,.3-.11.1,0,0-.1-.28-.09-.15a8.45,8.45,0,0,1,.2,1.21,1.76,1.76,0,0,1-.19-.34c-.06-.2,0-.48-.06-.65a.43.43,0,0,1,0,.17c0-.05,0-.19-.05-.16,0,.23-.1,0,0,.19s0,0-.11,0a1.29,1.29,0,0,1,0,.57.74.74,0,0,0,0-.17c-.1,0-.15-.1-.24-.1s-.06-.13,0-.22,0,.11,0,.12c-.06-.2.06,0,0-.26,0,.13-.06.17-.1.26s.09,0,.13,0a1.15,1.15,0,0,1-.16.7c-.08.07,0-.18-.05-.14s-.14.49-.26.28a1.88,1.88,0,0,1,0-.48c.06-.06.09.12.14.11l-.06-.08c0-.06.07-.11.09-.06,0-.16-.24,0-.34-.18a.38.38,0,0,0-.05.19l0,0c0,.14-.08.19,0,.26s-.13.24-.19.15v-.2c0,.06,0,.12.06.07s-.08-.29-.14,0l0,.14c-.06.1-.15.3-.21.23,0,.2,0,0,0,.22,0-.3.17,0,.14-.28,0,.28.07.12.11.36,0-.06,0-.13,0-.09a.11.11,0,0,0,0,0h0s0,0,0,0a.36.36,0,0,1,0-.1c.05-.15.13-.13.16-.21s0,.07,0,.15l.05-.12c0,.15.07.25,0,.33h.07c0,.08.09.12.13.05s.09-.16.06,0l.11-.09v0c.11,0,.22-.24.35,0,0,0,.07-.08.13,0l0,.13s.15.11.16,0c.09.34.24.05.33.1l0-.16c.06,0,.11-.06.17-.13l0-.15c0-.13.17.1.26,0s0,0,0,0c.18.3.18-.29.33-.08,0-.06,0,0,.06,0h0l.05.07s0-.06-.05-.07a.13.13,0,0,0,.06-.08l.06.15h0c.05.05,0-.08,0-.2a.28.28,0,0,0,0-.1c.09.25.05-.1.16.16,0-.14.11-.13,0-.41,0,0,0,0,0,.06s.08,0,.08,0l.08.18,0-.28a.5.5,0,0,1,.13.33c0-.26.05-.12.05-.37l0,.13s0-.2.07-.11.32-.07.57.06c-.19-.33.15.12,0-.16a.47.47,0,0,1,.1.2c0-.12.19.07.13-.19.05.08,0,.13.07.18s0-.09,0,0,0,.07,0,.11,0-.31-.16-.54c.09.09.11.06.05-.11.06.07.13.14.09.19s.24,0,.13-.16c0,0,0,0,0,0s.09,0,.13-.07l0,0c-.11-.23,0-.08.05-.14v0c.2.08,0-.11.22,0l-.1-.13c-.18-.29.21.1.19,0l-.07-.06c0-.12.36.31.42.32s0,.05,0,.07c.21.1-.11-.17-.07-.26.08.09.15.24.21.23s-.09-.39.09-.27a.33.33,0,0,1-.14-.19c0-.06.32.16.19-.09,0,0,0,0,0,0a.54.54,0,0,0,0-.31c.4.38,0-.37.37,0l.07-.11,0,0c.08,0,0-.15,0-.26s.06.06.08.08.15,0,0-.3l.13.1c0-.08.32,0,.26-.18l0,.06c-.06-.22.56,0,.11-.4l-.06-.16c-.11.07-.2-.16-.31-.18s.21,0,.21.07h0c.24.2.17,0,.34.07.13-.19.39-.3.5-.49l-.22-.1,0-.06c.06,0,.18.07.15.11.13,0-.06-.13-.11-.16.14,0,.23.17.25.14v0h0c-.07-.08-.16-.13-.12-.18s.14,0,.16,0,0,0,0,0l.06-.08-.19,0c-.07-.08.05-.07-.17-.13.35.09.24-.28.35-.27-.11-.11-.09-.16-.05-.22s-.25-.06-.2-.11c.41.17.22,0,.54,0-.22,0,0-.19-.3-.21,0,0,.16,0,.27,0-.13-.17.17-.25.15-.42a.56.56,0,0,1-.23-.06l.3,0s-.32-.09-.11-.11c-.05,0-.13,0-.14,0,.35-.27-.15-.62.39-.9-.11,0-.12,0-.12,0s-.15,0-.23,0l.23-.12c-.22,0,0-.14-.22-.15l0,0a7.2,7.2,0,0,0-.87.06c.28.06-.42.13,0,.22-.06,0-.1,0-.17,0,.13,0,.16,0,.1.1h0c0,.13-.1.18-.2.31h.16s-.08,0-.12,0c.23.06,0-.09.28,0-.32,0-.05.22-.41.19,0,0,.18,0,.17.06h-.1l.13,0s-.16,0-.24,0,0,0,0,0,0,.12,0,.12l.06,0c.06.15-.07.27.07.44l.08,0c.09.13-.11,0-.08.17h0c.06,0,.09.08.07.1s-.18,0-.25-.07c.1.15.09.09.32.25l-.12,0c.1.07.15.09.16.16-.08-.09-.19,0-.3-.14-.28,0,.2.27-.18.16.28.18.21,0,.26,0s.22.14.17.16-.43-.12-.46,0,0,0,0,0,.07.11-.07.08c.17.12,0,0,.19.17v-.1c0,.07.29.25.12.26a.45.45,0,0,1-.12-.12c-.08,0,0,.06-.06,0s0-.12-.16-.25.13.17-.11,0c.3.2-.08.06.13.24l-.13-.08s.07.08.06.09l-.16-.13c.12.13-.18,0-.12.09,0-.08.18.08.29.1.13.22-.37-.14-.39,0,0,0,.12,0,.17.06a.4.4,0,0,1-.19,0c0,.09.14.08.2.16-.18-.08,0,.08.07.15l-.14-.09c-.14,0,.26.21.11.22l-.16-.16,0,.07-.14-.11c.08.12,0,.11,0,.12.09.06.23.18.2.22s-.11-.11-.13,0-.16-.16,0-.09l-.11-.11c-.1,0-.06,0-.07.07h0l.12.22a.32.32,0,0,1-.12-.11s.06.09.05.12a1,1,0,0,1-.23-.24l.06.15s-.15-.06-.18-.1.11.25,0,.23,0,0,0,.06-.21,0-.13.13l-.19-.14c0,.08.24.17.24.3s-.16-.12-.22-.15.19.32,0,.22C140.72,69.39,140.75,69.4,140.76,69.38Zm-.47.53s0-.13,0-.07S140.34,69.94,140.29,69.91Zm-.73.9s0,0,.05,0S139.59,70.84,139.56,70.81Zm-3.1,1.81h0C136.49,72.67,136.48,72.65,136.46,72.62Zm-.08-.07a.13.13,0,0,0,0,.06s0,0,0,0S136.41,72.51,136.38,72.55Zm6.81-4.08h-.05S143.15,68.44,143.19,68.47Z"/><path class="cls-8" d="M139.57,70.56l0,.08A.12.12,0,0,0,139.57,70.56Z"/><polygon class="cls-8" points="140.98 69.01 140.99 69.01 140.97 68.99 140.98 69.01"/><path class="cls-8" d="M137.43,71.16a.25.25,0,0,1,0,.07S137.45,71.16,137.43,71.16Z"/><path class="cls-8" d="M135.93,72.77l.06,0s0,0-.05-.06S135.94,72.77,135.93,72.77Z"/><path class="cls-8" d="M135.66,71.73s0,0,0,0l0,.08S135.68,71.77,135.66,71.73Z"/><path class="cls-8" d="M136,72.24c0-.14,0-.09-.06-.08h0C135.86,72.35,135.9,72.29,136,72.24Z"/><path class="cls-8" d="M135.88,72.17h0C135.83,72.24,135.86,72.18,135.88,72.17Z"/><path class="cls-8" d="M136.27,72.63s0,.17,0,.12C136.21,72.92,136.37,72.54,136.27,72.63Z"/><polygon class="cls-8" points="135.98 71.8 135.97 71.96 136.01 71.83 135.98 71.8"/><path class="cls-8" d="M136.22,72l-.05,0a.11.11,0,0,1,0,.06S136.22,72,136.22,72Z"/><path class="cls-8" d="M136.15,72s0,0,0,0Z"/><polygon class="cls-8" points="136.06 71.76 136.07 71.79 136.1 71.81 136.06 71.76"/><path class="cls-8" d="M136.78,72l.05,0c0-.06,0-.09,0-.07S136.77,72,136.78,72Z"/><path class="cls-8" d="M136.61,71.55a.22.22,0,0,1,0,.12v-.2Z"/><path class="cls-8" d="M136.77,71.5s.07-.16,0-.15S136.72,71.45,136.77,71.5Z"/><polygon class="cls-8" points="137.59 71.7 137.57 71.71 137.62 72.04 137.59 71.7"/><path class="cls-8" d="M138.1,70.78c-.08-.06,0,.21,0,.12,0,.08.06.07.06.14C138.14,71,138.17,71,138.1,70.78Z"/><path class="cls-8" d="M138.12,71v0Z"/><polygon class="cls-8" points="143.99 65.7 144.06 65.65 143.94 65.68 143.99 65.7"/><path class="cls-8" d="M143.74,65.61H144l-.19,0S143.79,65.6,143.74,65.61Z"/><path class="cls-8" d="M140,69.62l0,0s.05,0,.06,0Z"/><polygon class="cls-8" points="140.42 69.44 140.41 69.44 140.55 69.58 140.42 69.44"/><path class="cls-8" d="M140.55,69s0,.05,0,.06S140.72,69.16,140.55,69Z"/><circle class="cls-6" cx="122.66" cy="10.94" r="10.94"/><polygon class="cls-9" points="114.01 114.94 117.86 138.6 130.52 122.64 122.27 107.79 114.01 114.94"/><path class="cls-10" d="M164.5,105.86l-6.79-11.11L121,110.4s-.28,17.37,16.09,14.45S164.5,105.86,164.5,105.86Z"/><path class="cls-7" d="M132.48,125c-4.48,0-7-1.13-8.49-2.27a6.05,6.05,0,0,1-2.39-4.47c0-.65-.16-4.8-.21-7.56a20.69,20.69,0,0,1-8.12,5.38c-2.7.9-4.88.66-6.31-.68a2.56,2.56,0,0,1-.91-2.16c.2-2.55,4.2-5.25,8.07-7.86,1.33-.9,2.6-1.75,3.61-2.54l.81,1c-1.05.81-2.33,1.67-3.69,2.59-3.27,2.21-7.34,5-7.49,6.86a1.29,1.29,0,0,0,.5,1.1c1.34,1.25,3.46.9,5,.39,4.27-1.42,8.27-5.22,8.51-6.56h0a0,0,0,0,1,0,0l.73.15h.57c0,.27.12,7.78.24,9.78a4.69,4.69,0,0,0,1.88,3.51c2.58,2,7.5,2.52,13.86,1.38,14.51-2.58,23.77-15.35,25.32-17.64l-7-10.56,1.1-.73,7.48,11.28-.23.36c-.09.15-10,15.66-26.44,18.59A36.08,36.08,0,0,1,132.48,125Z"/><polygon class="cls-7" points="152.89 167.31 151.98 168.27 162.19 178.01 164.1 178.01 152.89 167.31"/><polygon class="cls-9" points="125.63 126.38 117.61 125.73 101.97 178.01 127.55 178.01 125.63 126.38"/><rect class="cls-17" x="51.16" y="90.6" width="61.88" height="39.35" rx="1.63"/><rect class="cls-18" x="51.16" y="90.13" width="61.88" height="39.35" rx="1.63"/><path d="M61.4,97.49v-.32H65v.32H63.35V98.6H63V97.49Zm.21-2.59v-.32h3.13v.32H63.35V95c0,.71.71,1.14,1.43,1.27v.32a2.22,2.22,0,0,1-1.6-.94,2.28,2.28,0,0,1-1.61.94v-.32C62.28,96.16,63,95.72,63,95V94.9Z"/><path d="M65.81,96.7V94.58h1.91V96.7Zm3.3,1.85h-3V97.24h.36v1h2.69Zm-1.74-3.66H66.16V96.4h1.21ZM69,97.32h-.35V94.53H69Z"/><path d="M70,96.73v-.31h3.6v.31Zm.19,1.2a.55.55,0,0,1,.3-.5,3.7,3.7,0,0,1,2.62,0,.56.56,0,0,1,.31.5.57.57,0,0,1-.31.5,3.85,3.85,0,0,1-2.62,0A.56.56,0,0,1,70.17,97.93Zm3.14-3h-2.7v.72h2.72v.3H70.25V94.58h3.06Zm-2.78,3a.28.28,0,0,0,.16.25,2.27,2.27,0,0,0,1.09.18,2.32,2.32,0,0,0,1.1-.18.27.27,0,0,0,.15-.25.28.28,0,0,0-.15-.25,2.32,2.32,0,0,0-1.1-.18,2.27,2.27,0,0,0-1.09.18A.29.29,0,0,0,70.53,97.93Z"/><path d="M74.91,95.6V96h2.72v.3H76.25v.47h1.63v.3h-3.6v-.3h1.61v-.47H74.55v-1h2.7v-.43h-2.7v-.3h3.06v1Zm2.34,3v-.77H74.52v-.3h3.09V98.6Z"/><path d="M78.57,96.73v-.31h3.61v.31Zm.2,1.2a.55.55,0,0,1,.3-.5,3.7,3.7,0,0,1,2.62,0,.55.55,0,0,1,.3.5.56.56,0,0,1-.3.5,3.85,3.85,0,0,1-2.62,0A.56.56,0,0,1,78.77,97.93Zm.08-3v-.31h3.06v.31H80.55v0c0,.46.77.73,1.4.78V96a2.38,2.38,0,0,1-1.58-.65,2.31,2.31,0,0,1-1.59.65v-.31c.63,0,1.41-.33,1.41-.78v0Zm.28,3a.29.29,0,0,0,.15.25,3.45,3.45,0,0,0,2.2,0,.29.29,0,0,0,.15-.25.3.3,0,0,0-.15-.25,3.45,3.45,0,0,0-2.2,0A.3.3,0,0,0,79.13,97.93Z"/><path d="M63.1,101.84a.22.22,0,0,1,.12-.19,1.54,1.54,0,0,1,.8-.14,1.56,1.56,0,0,1,.8.14.22.22,0,0,1,.12.19.21.21,0,0,1-.12.2,1.4,1.4,0,0,1-.69.14v.22h1v.18H62.93v-.18h1v-.22a1.4,1.4,0,0,1-.69-.14A.21.21,0,0,1,63.1,101.84Zm1.92-.48H63v-.18h.89V101h.22v.2H65Zm-2,1.82a.28.28,0,0,1,.14-.24,1.59,1.59,0,0,1,.83-.15,1.63,1.63,0,0,1,.84.15.28.28,0,0,1,.14.24.25.25,0,0,1-.14.23,1.63,1.63,0,0,1-.84.15,1.59,1.59,0,0,1-.83-.15A.25.25,0,0,1,63.05,103.18Zm.22,0a.12.12,0,0,0,.06.1,1.57,1.57,0,0,0,.69.11,1.51,1.51,0,0,0,.69-.11c.05,0,.07-.06.07-.1s0-.07-.07-.1A1.51,1.51,0,0,0,64,103a1.57,1.57,0,0,0-.69.11A.12.12,0,0,0,63.27,103.18Zm0-1.34a.1.1,0,0,0,.06.09,2.39,2.39,0,0,0,1.3,0,.1.1,0,0,0,.06-.09.09.09,0,0,0-.06-.08,2.39,2.39,0,0,0-1.3,0A.09.09,0,0,0,63.31,101.84Z"/><path d="M66.53,101.29H65.6v-.19h1.15v.13c0,.65-.48.94-1.21,1V102C66.13,102,66.52,101.76,66.53,101.29ZM66,103.05v.29h1.61v.17H65.76v-.63h1.58v-.28H65.76v-.18h1.79v.63Zm1.58-.83h-.21v-1.15h.21Z"/><path d="M70.13,101.28H68.5v.44h1.64v.18h-.83v.33h1v.18H68.11v-.18h1v-.33h-.81v-.8h1.85Zm-1.9,1.84a.33.33,0,0,1,.18-.3,1.66,1.66,0,0,1,.8-.14,1.62,1.62,0,0,1,.79.14.34.34,0,0,1,0,.6,1.62,1.62,0,0,1-.79.14,1.66,1.66,0,0,1-.8-.14A.33.33,0,0,1,68.23,103.12Zm.22,0a.18.18,0,0,0,.09.15,1.44,1.44,0,0,0,.67.11,1.42,1.42,0,0,0,.66-.11.17.17,0,0,0,0-.3,1.3,1.3,0,0,0-.66-.11,1.32,1.32,0,0,0-.67.11A.18.18,0,0,0,68.45,103.12Z"/><path d="M72.16,100.92v.2c-.29,0-.41.16-.41,1.17s.12,1.18.41,1.18v.19c-.43,0-.64-.21-.64-1.37S71.73,100.92,72.16,100.92Z"/><path d="M72.84,102.29a3.69,3.69,0,0,0-.5-.29l.12-.15a5.4,5.4,0,0,1,.49.27Zm2,.21v.19H73.07a8.88,8.88,0,0,1-.47.82l-.16-.13a7.52,7.52,0,0,0,.49-.84l.12.11v-.15h.41v-.66h-.35v-.2h.35v-.54h.2v.54h.54v-.54h.19v.54h.38v.2h-.38v.66ZM73,101.6a3.21,3.21,0,0,0-.51-.35l.12-.13a2.88,2.88,0,0,1,.52.32Zm.72,1.32a2.26,2.26,0,0,1-.52.62,1,1,0,0,0-.16-.12,1.89,1.89,0,0,0,.49-.56Zm0-.42h.54v-.66h-.54Zm.64.37a3.38,3.38,0,0,1,.48.57l-.17.11a3.27,3.27,0,0,0-.47-.59Z"/><path d="M76.37,101.65v.4h.93v.19h-2v-.19h.89v-.4H75.1v-.19h1.06v-.38h.21v.38h1.07v.19Zm-1,.89h1.74v1h-.22v-.13H75.62v.13h-.2Zm.2.18v.54h1.32v-.54Z"/><path d="M80.19,103.32v.17H77.76v-.17h1.11v-.18H78V103h.92v-.18h-.81V102h1.83v.78h-.83V103H80v.15h-.94v.18Zm0-1.43H77.76v-.17h.69a1.19,1.19,0,0,0-.13-.25l.16,0h-.54v-.16h.92v-.19h.21v.19H80v.16h-.52l.14,0a2.72,2.72,0,0,1-.16.25h.71Zm-1.93.47h.62v-.19h-.62Zm.62.32v-.2h-.62v.2Zm-.36-1.25a.77.77,0,0,1,.15.28h.61a1.84,1.84,0,0,0,.15-.28Zm1.18.74h-.63v.19h.63Zm0,.31h-.63v.2h.63Z"/><path d="M80.38,103.66v-.19c.29,0,.42-.16.42-1.18s-.13-1.17-.42-1.17v-.2c.44,0,.64.22.64,1.37S80.82,103.66,80.38,103.66Z"/><path d="M60.14,107.52v-1.6l-.44.2v-.19l.47-.21h.17v1.8Z"/><path d="M61.88,106.65l-.63.71h.83v.16H61v-.15l.72-.82a.46.46,0,0,0,.14-.33.34.34,0,0,0-.35-.36.33.33,0,0,0-.35.36v0H61v0a.54.54,0,0,1,1.08,0A.59.59,0,0,1,61.88,106.65Z"/><path d="M62.93,106.65h-.18v-.17h.19a.29.29,0,0,0,.3-.31.32.32,0,0,0-.64,0v0h-.19v0a.52.52,0,0,1,1,0,.4.4,0,0,1-.28.41.44.44,0,0,1,.33.46.57.57,0,0,1-1.13,0v0h.19a.38.38,0,1,0,.75,0A.34.34,0,0,0,62.93,106.65Z"/><path d="M65,107.12h-.23v.4h-.19v-.4h-.77V107l.75-1.23h.21V107H65Zm-.42-.17V106L64,107Z"/><path d="M65.47,106.71h-.19l0-1h.9v.17h-.72l0,.63a.35.35,0,0,1,.32-.17c.31,0,.52.21.52.61a.53.53,0,0,1-.55.6.52.52,0,0,1-.55-.51h.19a.35.35,0,0,0,.36.34c.23,0,.36-.16.36-.44s-.13-.43-.36-.43A.32.32,0,0,0,65.47,106.71Z"/><path d="M67.21,106.35a.53.53,0,0,1,.54.6.55.55,0,0,1-.56.61.48.48,0,0,1-.49-.32,1.16,1.16,0,0,1-.08-.5,1.67,1.67,0,0,1,.14-.83.46.46,0,0,1,.43-.22.48.48,0,0,1,.52.44H67.5a.28.28,0,0,0-.31-.27c-.26,0-.36.21-.37.71A.41.41,0,0,1,67.21,106.35Zm0,1c.22,0,.37-.16.37-.44s-.15-.43-.37-.43-.37.16-.37.43S67,107.39,67.19,107.39Z"/><path d="M68.69,106.6h.76v.17h-.76Z"/><path d="M70.41,105.72h1.08v.15l-.63,1.65h-.2l.63-1.63h-.88Z"/><path d="M71.77,107a.45.45,0,0,1,.35-.46.43.43,0,0,1-.3-.41c0-.28.21-.47.55-.47a.48.48,0,0,1,.54.47.43.43,0,0,1-.3.41A.45.45,0,0,1,73,107a.6.6,0,0,1-1.19,0Zm.6.36a.37.37,0,1,0,0-.74.37.37,0,1,0,0,.74Zm0-1.53a.31.31,0,0,0-.35.31.35.35,0,0,0,.69,0A.31.31,0,0,0,72.37,105.86Z"/><path d="M73.75,106.89a.53.53,0,0,1-.54-.6.55.55,0,0,1,.56-.6.49.49,0,0,1,.49.31,1.19,1.19,0,0,1,.08.5,1.69,1.69,0,0,1-.15.84.45.45,0,0,1-.42.22.48.48,0,0,1-.52-.45h.2a.3.3,0,0,0,.32.28c.26,0,.36-.22.37-.71A.42.42,0,0,1,73.75,106.89Zm0-1c-.22,0-.37.16-.37.43s.15.43.37.43.37-.16.37-.43S74,105.86,73.77,105.86Z"/><path d="M75.61,107.39a.58.58,0,0,1-.82,0,1.15,1.15,0,0,1-.18-.77,1.17,1.17,0,0,1,.18-.77.61.61,0,0,1,.82,0,1.18,1.18,0,0,1,.17.77A1.16,1.16,0,0,1,75.61,107.39ZM75.47,106a.36.36,0,0,0-.54,0c-.09.1-.12.28-.12.64s0,.54.12.64a.35.35,0,0,0,.54,0,1.77,1.77,0,0,0,0-1.28Z"/><path d="M77,107.39a.5.5,0,0,1-.4.17.51.51,0,0,1-.41-.17,1.15,1.15,0,0,1-.18-.77,1.17,1.17,0,0,1,.18-.77.53.53,0,0,1,.41-.16.53.53,0,0,1,.4.16,1.17,1.17,0,0,1,.18.77A1.15,1.15,0,0,1,77,107.39ZM76.89,106a.32.32,0,0,0-.27-.12.35.35,0,0,0-.28.12,1.92,1.92,0,0,0,0,1.28.32.32,0,0,0,.28.13.3.3,0,0,0,.27-.13,1.77,1.77,0,0,0,0-1.28Z"/><path d="M78.44,107.39a.51.51,0,0,1-.41.17.53.53,0,0,1-.41-.17,1.16,1.16,0,0,1-.17-.77,1.18,1.18,0,0,1,.17-.77.57.57,0,0,1,.41-.16.53.53,0,0,1,.41.16,1.18,1.18,0,0,1,.17.77A1.16,1.16,0,0,1,78.44,107.39ZM78.31,106a.35.35,0,0,0-.28-.12.32.32,0,0,0-.27.12,1.77,1.77,0,0,0,0,1.28.3.3,0,0,0,.27.13.33.33,0,0,0,.28-.13,1.92,1.92,0,0,0,0-1.28Z"/><path d="M79.86,107.39a.58.58,0,0,1-.82,0,1.15,1.15,0,0,1-.18-.77,1.17,1.17,0,0,1,.18-.77.61.61,0,0,1,.82,0,1.18,1.18,0,0,1,.17.77A1.16,1.16,0,0,1,79.86,107.39ZM79.72,106a.36.36,0,0,0-.54,0c-.09.1-.12.28-.12.64s0,.54.12.64a.35.35,0,0,0,.54,0,1.77,1.77,0,0,0,0-1.28Z"/><path d="M56.82,111.53a.87.87,0,0,1-.56.56v-.16a.83.83,0,0,0,.47-.86v-.76h.17v.76a.84.84,0,0,0,.48.86v.16A.89.89,0,0,1,56.82,111.53Zm1.07-1.24v1.94h-.18v-1.07h-.48V111h.48v-.71Z"/><path d="M58.35,111.21v-.15H60.1v.15h-.79v.22H60v.48H58.66v.2H60v.14H58.48v-.48h1.31v-.2H58.48v-.14h.66v-.22Zm.09-.62a.22.22,0,0,1,.1-.19,1.36,1.36,0,0,1,.69-.11,1.34,1.34,0,0,1,.68.11.22.22,0,0,1,.1.19.21.21,0,0,1-.1.18,1.32,1.32,0,0,1-.68.12,1.34,1.34,0,0,1-.69-.12A.21.21,0,0,1,58.44,110.59Zm.18,0a.1.1,0,0,0,.05.08,1.29,1.29,0,0,0,.56.07,1.26,1.26,0,0,0,.55-.07.08.08,0,0,0,0-.08.09.09,0,0,0,0-.09,1.26,1.26,0,0,0-.55-.07,1.29,1.29,0,0,0-.56.07A.11.11,0,0,0,58.62,110.59Z"/><path d="M60.44,111.52v-.15h1.74v.15Zm1.44.74v-.37H60.55v-.15h1.5v.52Zm-1.14-1.46V111h1.32v.15H60.57v-.85h1.48v.14H60.74v.21H62v.14Z"/><path d="M62.76,110.59h.57v-.28h.18v.19H64v-.21h.18v1H64V111h-.46v.18h-.93v-.88h.18Zm.12,1.3v.22h1.29v.14H62.71v-.5H64v-.22H62.71v-.14h1.44v.5Zm.45-.84v-.31h-.57v.31Zm.18-.41v.23H64v-.23Z"/><path d="M65.16,111.53a.88.88,0,0,1-.57.56v-.16a.82.82,0,0,0,.48-.86v-.76h.17v.76a.84.84,0,0,0,.47.86v.16A.9.9,0,0,1,65.16,111.53Zm1.07-1.24v1.93h-.18v-1.93Z"/><path d="M67.92,112.14c-.5,0-.65-.39-.65-.88s.14-.88.65-.88.64.39.64.88S68.42,112.14,67.92,112.14Zm0-1.59c-.36,0-.46.27-.46.71s.1.71.46.71.46-.27.46-.71S68.27,110.55,67.92,110.55Z"/><path d="M69.45,112.14c-.5,0-.65-.39-.65-.88s.15-.88.65-.88.65.39.65.88S70,112.14,69.45,112.14Zm0-1.59c-.35,0-.46.27-.46.71s.1.71.46.71.46-.27.46-.71S69.81,110.55,69.45,110.55Z"/><path d="M70.4,111.62v-.15h1.72v.15h-.77v.64h-.18v-.64Zm1.44-.87v-.29H70.49v-.15H72v.43a2.54,2.54,0,0,1,0,.52H71.8A2.64,2.64,0,0,0,71.84,110.75Z"/><path d="M56.86,114.85c-.5,0-.64-.39-.64-.88s.14-.87.64-.87.65.39.65.87S57.37,114.85,56.86,114.85Zm0-1.59c-.35,0-.45.28-.45.71s.1.72.45.72.46-.28.46-.72S57.22,113.26,56.86,113.26Z"/><path d="M58.4,114.85c-.5,0-.65-.39-.65-.88s.14-.87.65-.87.64.39.64.87S58.9,114.85,58.4,114.85Zm0-1.59c-.36,0-.46.28-.46.71s.1.72.46.72.46-.28.46-.72S58.75,113.26,58.4,113.26Z"/><path d="M59.62,113.72v.38H61v.15H60.3v.45h.77v.15H59.34v-.15h.78v-.45h-.67v-.68h1.34v-.38H59.45V113H61v.68Z"/><path d="M62.52,114.23a.51.51,0,0,1-.51-.57.51.51,0,0,1,.53-.56.45.45,0,0,1,.46.29,1.23,1.23,0,0,1,.07.47,1.54,1.54,0,0,1-.14.79.42.42,0,0,1-.4.2.44.44,0,0,1-.48-.41h.19a.26.26,0,0,0,.29.25c.25,0,.34-.2.35-.66A.37.37,0,0,1,62.52,114.23Zm0-1c-.22,0-.35.15-.35.41s.13.41.35.41.34-.15.34-.41S62.74,113.25,62.54,113.25Z"/><path d="M63.85,114.23a.51.51,0,0,1-.51-.57.51.51,0,0,1,.53-.56.45.45,0,0,1,.46.29,1.23,1.23,0,0,1,.07.47,1.68,1.68,0,0,1-.13.79.44.44,0,0,1-.4.2.44.44,0,0,1-.49-.41h.19a.27.27,0,0,0,.3.25c.24,0,.34-.2.35-.66A.39.39,0,0,1,63.85,114.23Zm0-1c-.21,0-.35.15-.35.41s.14.41.35.41.35-.15.35-.41S64.08,113.25,63.87,113.25Z"/><path d="M64.76,115a.14.14,0,0,0,.12-.15v0h-.1v-.25H65v.28c0,.16-.07.24-.22.25Z"/><path d="M66.56,114.82v-1.5l-.42.19v-.18l.44-.21h.16v1.7Z"/><path d="M68.19,114l-.59.67h.78v.15h-1v-.14l.68-.78a.43.43,0,0,0,.13-.3.33.33,0,0,0-.33-.35.32.32,0,0,0-.32.35v.05h-.19v-.05a.47.47,0,0,1,.51-.5.48.48,0,0,1,.52.5A.55.55,0,0,1,68.19,114Z"/><path d="M69.18,114H69v-.16h.18a.28.28,0,0,0,.29-.29.29.29,0,0,0-.31-.3.28.28,0,0,0-.3.3v0h-.18v0a.49.49,0,0,1,1,0,.37.37,0,0,1-.27.39.42.42,0,0,1,.32.43.54.54,0,0,1-1.07,0v0h.18a.33.33,0,0,0,.35.36.35.35,0,1,0,0-.69Z"/><path d="M71.63,113.17H70.32v.35h1.32v.15H71v.26h.79v.15H70v-.15h.79v-.26h-.65V113h1.48Zm-1.52,1.48a.26.26,0,0,1,.14-.24,1.29,1.29,0,0,1,.64-.12,1.25,1.25,0,0,1,.63.12.25.25,0,0,1,.15.24.27.27,0,0,1-.15.24,1.27,1.27,0,0,1-.63.11,1.31,1.31,0,0,1-.64-.11A.28.28,0,0,1,70.11,114.65Zm.17,0a.14.14,0,0,0,.08.12,1.09,1.09,0,0,0,.53.08,1.12,1.12,0,0,0,.53-.08.13.13,0,0,0,.07-.12.16.16,0,0,0-.07-.13,1.26,1.26,0,0,0-.53-.08,1.23,1.23,0,0,0-.53.08A.17.17,0,0,0,70.28,114.65Z"/><path d="M73.79,114.44h-.21v.38H73.4v-.38h-.72v-.15l.7-1.17h.2v1.17h.21Zm-.39-.15v-.86l-.52.86Z"/><path d="M74.29,114.06h-.18l0-.94H75v.16h-.68l0,.59a.39.39,0,0,1,.31-.15c.29,0,.49.2.49.57a.5.5,0,0,1-.52.56.49.49,0,0,1-.52-.48h.18a.33.33,0,0,0,.34.32c.21,0,.34-.14.34-.4s-.13-.41-.34-.41A.3.3,0,0,0,74.29,114.06Z"/><path d="M75.92,113.72a.57.57,0,0,1,0,1.13.47.47,0,0,1-.47-.29,1.23,1.23,0,0,1-.07-.47,1.68,1.68,0,0,1,.13-.79.45.45,0,0,1,.41-.2.44.44,0,0,1,.48.41H76.2a.27.27,0,0,0-.29-.26c-.25,0-.34.2-.35.67A.37.37,0,0,1,75.92,113.72Zm0,1c.2,0,.34-.15.34-.4s-.14-.41-.34-.41-.35.15-.35.41A.35.35,0,0,0,75.91,114.69Z"/><path d="M76.72,113.12h1v.15l-.58,1.55H77l.6-1.54h-.83Z"/><path d="M78.18,113.93a.32.32,0,0,1,.13-.26,1.09,1.09,0,0,1,.62-.15,1,1,0,0,1,.62.15.3.3,0,0,1,.14.26.33.33,0,0,1-.14.27,1,1,0,0,1-.53.14v.36h.78v.15H78.07v-.15h.78v-.36a1,1,0,0,1-.54-.14A.35.35,0,0,1,78.18,113.93Zm1.56-.59H78.13v-.15h.72v-.26H79v.26h.72Zm-1.39.59a.19.19,0,0,0,.08.15.8.8,0,0,0,.5.12.85.85,0,0,0,.51-.12.19.19,0,0,0,.08-.15.17.17,0,0,0-.08-.14.85.85,0,0,0-.51-.12.8.8,0,0,0-.5.12A.17.17,0,0,0,78.35,113.93Z"/><path d="M56.81,115.6v.15c-.24,0-.34.13-.34,1s.1.94.34.94v.16c-.35,0-.52-.17-.52-1.1S56.46,115.6,56.81,115.6Z"/><path d="M57.62,117.57c-.5,0-.65-.39-.65-.88s.15-.88.65-.88.65.39.65.88S58.12,117.57,57.62,117.57Zm0-1.59c-.35,0-.46.27-.46.71s.1.71.46.71.46-.27.46-.71S58,116,57.62,116Z"/><path d="M59.15,117.57c-.5,0-.64-.39-.64-.88s.14-.88.64-.88.65.39.65.88S59.66,117.57,59.15,117.57Zm0-1.59c-.35,0-.46.27-.46.71s.11.71.46.71.46-.27.46-.71S59.51,116,59.15,116Z"/><path d="M61.7,115.89H60.39v.35h1.33v.14h-.67v.26h.78v.15H60.09v-.15h.78v-.26h-.65v-.64H61.7Zm-1.52,1.47a.26.26,0,0,1,.15-.24A1.28,1.28,0,0,1,61,117a1.29,1.29,0,0,1,.64.12.28.28,0,0,1,.15.24.29.29,0,0,1-.15.24,1.31,1.31,0,0,1-.64.11,1.29,1.29,0,0,1-.63-.11A.27.27,0,0,1,60.18,117.36Zm.18,0a.13.13,0,0,0,.07.12,1.12,1.12,0,0,0,.53.09,1.06,1.06,0,0,0,.53-.09.13.13,0,0,0,0-.24,1.06,1.06,0,0,0-.53-.09,1.12,1.12,0,0,0-.53.09A.13.13,0,0,0,60.36,117.36Z"/><path d="M62.22,117.72a.13.13,0,0,0,.12-.14v0h-.1v-.26h.2v.29a.22.22,0,0,1-.22.25Z"/><path d="M64.07,117.57c-.5,0-.65-.39-.65-.88s.14-.88.65-.88.64.39.64.88S64.57,117.57,64.07,117.57Zm0-1.59c-.36,0-.46.27-.46.71s.1.71.46.71.46-.27.46-.71S64.42,116,64.07,116Z"/><path d="M65.6,117.57c-.5,0-.65-.39-.65-.88s.15-.88.65-.88.65.39.65.88S66.11,117.57,65.6,117.57Zm0-1.59c-.35,0-.46.27-.46.71s.1.71.46.71.46-.27.46-.71S66,116,65.6,116Z"/><path d="M66.58,116.63a1.24,1.24,0,0,1,.17-.78.41.41,0,0,1,.32-.13.42.42,0,0,1,.33.13,1.87,1.87,0,0,1,0,1.56.42.42,0,0,1-.33.13.41.41,0,0,1-.32-.13A1.24,1.24,0,0,1,66.58,116.63Zm.82,0a1.14,1.14,0,0,0-.13-.68.26.26,0,0,0-.2-.08.26.26,0,0,0-.19.08,1.14,1.14,0,0,0-.13.68,1.12,1.12,0,0,0,.13.68.23.23,0,0,0,.19.09.24.24,0,0,0,.2-.09A1.12,1.12,0,0,0,67.4,116.63Zm.71-.91v.81h.32v.15h-.32v1h-.17v-1.93Z"/><path d="M68.86,117.37V115.9h-.2v-.15h1.11v.15h-.2v.85a2.77,2.77,0,0,1,0,.62h0a.64.64,0,0,0,.45-.14v-1.51h.18v.81h.31v.15H70.2v1H70v-.27a.69.69,0,0,1-.47.14h-.91v-.15Zm.54-.52v-.95H69v1.47h.33A3.8,3.8,0,0,0,69.4,116.85Z"/><path d="M70.72,117.57v-.15h1.72v.15Zm1.61-1.67H71v.39h1.32v.16H71v.39h1.37V117H70.82v-1.24h1.51Z"/><path d="M72.67,117.8v-.16c.24,0,.34-.13.34-.94s-.1-1-.34-1v-.15c.35,0,.52.17.52,1.1S73,117.8,72.67,117.8Z"/><path d="M76.12,121.31l-.62.7h.82v.17H75.24V122l.73-.83a.43.43,0,0,0,.13-.32.33.33,0,0,0-.34-.37.34.34,0,0,0-.35.37v.05h-.19v-.05a.54.54,0,0,1,1.08,0A.58.58,0,0,1,76.12,121.31Z"/><path d="M77.58,122.05a.53.53,0,0,1-.41.16.53.53,0,0,1-.4-.16,1.17,1.17,0,0,1-.18-.77,1.15,1.15,0,0,1,.18-.77.5.5,0,0,1,.4-.17.51.51,0,0,1,.41.17,1.15,1.15,0,0,1,.18.77A1.17,1.17,0,0,1,77.58,122.05Zm-.13-1.41a.36.36,0,0,0-.28-.13.35.35,0,0,0-.27.13,1.92,1.92,0,0,0,0,1.28.33.33,0,0,0,.27.12.34.34,0,0,0,.28-.12,1.92,1.92,0,0,0,0-1.28Z"/><path d="M79,121.31l-.63.7h.83v.17H78.08V122l.72-.83a.44.44,0,0,0,.14-.32.35.35,0,1,0-.7,0v.05h-.19v-.05a.54.54,0,0,1,1.08,0A.61.61,0,0,1,79,121.31Z"/><path d="M80.42,122.05a.55.55,0,0,1-.41.16.53.53,0,0,1-.41-.16,1.17,1.17,0,0,1-.18-.77,1.15,1.15,0,0,1,.18-.77.51.51,0,0,1,.41-.17.52.52,0,0,1,.41.17,1.16,1.16,0,0,1,.17.77A1.18,1.18,0,0,1,80.42,122.05Zm-.14-1.41a.32.32,0,0,0-.27-.13.36.36,0,0,0-.28.13,1.92,1.92,0,0,0,0,1.28A.35.35,0,0,0,80,122a.32.32,0,0,0,.27-.12,1.77,1.77,0,0,0,0-1.28Z"/><path d="M81.18,122.18H81v-.27h.22Z"/><path d="M83.21,122.05a.53.53,0,0,1-.41.16.53.53,0,0,1-.4-.16,1.17,1.17,0,0,1-.18-.77,1.15,1.15,0,0,1,.18-.77.5.5,0,0,1,.4-.17.51.51,0,0,1,.41.17,1.15,1.15,0,0,1,.18.77A1.17,1.17,0,0,1,83.21,122.05Zm-.13-1.41a.36.36,0,0,0-.28-.13.35.35,0,0,0-.27.13,1.92,1.92,0,0,0,0,1.28.33.33,0,0,0,.27.12.34.34,0,0,0,.28-.12,1.92,1.92,0,0,0,0-1.28Z"/><path d="M84.63,122.05a.53.53,0,0,1-.41.16.55.55,0,0,1-.41-.16,1.18,1.18,0,0,1-.17-.77,1.16,1.16,0,0,1,.17-.77.52.52,0,0,1,.41-.17.51.51,0,0,1,.41.17,1.16,1.16,0,0,1,.17.77A1.18,1.18,0,0,1,84.63,122.05Zm-.14-1.41a.35.35,0,0,0-.54,0,1.06,1.06,0,0,0-.12.64c0,.36,0,.54.12.64a.36.36,0,0,0,.54,0c.09-.1.12-.28.12-.64S84.58,120.74,84.49,120.64Z"/><path d="M85.39,122.18h-.22v-.27h.22Z"/><path d="M87.42,122.05a.53.53,0,0,1-.4.16.53.53,0,0,1-.41-.16,1.17,1.17,0,0,1-.18-.77,1.15,1.15,0,0,1,.18-.77.51.51,0,0,1,.41-.17.5.5,0,0,1,.4.17,1.15,1.15,0,0,1,.18.77A1.17,1.17,0,0,1,87.42,122.05Zm-.13-1.41a.32.32,0,0,0-.27-.13.36.36,0,0,0-.28.13,1.92,1.92,0,0,0,0,1.28A.34.34,0,0,0,87,122a.32.32,0,0,0,.27-.12,1.77,1.77,0,0,0,0-1.28Z"/><path d="M88.84,122.05a.53.53,0,0,1-.41.16.53.53,0,0,1-.4-.16,1.17,1.17,0,0,1-.18-.77,1.15,1.15,0,0,1,.18-.77.5.5,0,0,1,.4-.17.51.51,0,0,1,.41.17,1.15,1.15,0,0,1,.18.77A1.17,1.17,0,0,1,88.84,122.05Zm-.13-1.41a.36.36,0,0,0-.28-.13.34.34,0,0,0-.27.13,1.77,1.77,0,0,0,0,1.28.33.33,0,0,0,.27.12.34.34,0,0,0,.28-.12,1.92,1.92,0,0,0,0-1.28Z"/><path d="M69.67,124.81a1.14,1.14,0,0,1-.74.74v-.21a1.09,1.09,0,0,0,.63-1.14v-1h.23v1a1.09,1.09,0,0,0,.62,1.14v.21A1.21,1.21,0,0,1,69.67,124.81Zm1.41-1.64v2.56h-.23v-1.41h-.63v-.2h.63v-1Z"/><path d="M71.68,124.39v-.19H74v.19h-1v.29h.87v.63H72.08v.26h1.79v.19h-2v-.63h1.72v-.26H71.86v-.19h.86v-.29Zm.13-.82a.29.29,0,0,1,.12-.24,1.7,1.7,0,0,1,.9-.16,1.72,1.72,0,0,1,.91.16.3.3,0,0,1,0,.48,1.72,1.72,0,0,1-.91.16,1.7,1.7,0,0,1-.9-.16A.29.29,0,0,1,71.81,123.57Zm.23,0a.13.13,0,0,0,.06.11,1.58,1.58,0,0,0,.73.1,1.61,1.61,0,0,0,.74-.1.13.13,0,0,0,.06-.11.16.16,0,0,0-.06-.12,1.82,1.82,0,0,0-.74-.09,1.8,1.8,0,0,0-.73.09A.16.16,0,0,0,72,123.57Z"/><path d="M74.42,124.8v-.2h2.3v.2Zm1.9,1v-.49H74.57v-.19h2v.68Zm-1.5-1.92v.28h1.74v.19h-2V123.2h2v.19H74.82v.28h1.69v.18Z"/><path d="M77.46,123.58h.77v-.38h.22v.25h.62v-.28h.23v1.27h-.23v-.31h-.62v.23H77.24V123.2h.22Zm.17,1.71v.28h1.7v.19H77.4v-.66h1.67v-.29H77.4v-.18h1.9v.66Zm.6-1.12v-.4h-.77v.4Zm.22-.53v.3h.62v-.3Z"/><path d="M80.61,124.81a1.15,1.15,0,0,1-.73.74v-.21a1.09,1.09,0,0,0,.62-1.14v-1h.23v1a1.09,1.09,0,0,0,.62,1.14v.21A1.21,1.21,0,0,1,80.61,124.81ZM82,123.17v2.56h-.24v-2.56Z"/><path d="M84.24,125.61c-.66,0-.85-.51-.85-1.15s.19-1.16.85-1.16.85.52.85,1.16S84.9,125.61,84.24,125.61Zm0-2.09c-.47,0-.6.36-.6.94s.13.93.6.93.61-.36.61-.93S84.71,123.52,84.24,123.52Z"/><path d="M86.25,125.61c-.66,0-.85-.51-.85-1.15s.19-1.16.85-1.16.86.52.86,1.16S86.92,125.61,86.25,125.61Zm0-2.09c-.46,0-.6.36-.6.94s.13.93.6.93.61-.36.61-.93S86.72,123.52,86.25,123.52Z"/><path d="M87.49,124.93v-.2h2.27v.2h-1v.84h-.23v-.84Zm1.91-1.14v-.38H87.62v-.21h2v.57a3.47,3.47,0,0,1-.06.69h-.23A2.81,2.81,0,0,0,89.4,123.79Z"/><path d="M90.3,123.41h.53v-.32h.23v.32h.54v.2h-.54v0a.71.71,0,0,0,.58.73v.21a1,1,0,0,1-.69-.49,1,1,0,0,1-.69.53v-.21a.74.74,0,0,0,.57-.77v0H90.3Zm.12,1.88a.4.4,0,0,1,.22-.36,1.57,1.57,0,0,1,.78-.15,1.55,1.55,0,0,1,.77.15.4.4,0,0,1,.22.36.38.38,0,0,1-.22.35,1.55,1.55,0,0,1-.77.15,1.57,1.57,0,0,1-.78-.15A.38.38,0,0,1,90.42,125.29Zm.23,0a.22.22,0,0,0,.12.19,1.34,1.34,0,0,0,.65.12,1.32,1.32,0,0,0,.64-.12.2.2,0,0,0,0-.38,1.32,1.32,0,0,0-.64-.12,1.34,1.34,0,0,0-.65.12A.22.22,0,0,0,90.65,125.29Zm1.71-.63h-.23v-.6h-.56v-.2h.56v-.69h.23Z"/><path d="M93,123.2h1.3v.2h-.54v.18a.71.71,0,0,0,.59.73v.21a1,1,0,0,1-.69-.49,1,1,0,0,1-.7.52v-.2a.73.73,0,0,0,.58-.77v-.18H93Zm.12,2.06a.42.42,0,0,1,.19-.35,1.44,1.44,0,0,1,.79-.18,1.48,1.48,0,0,1,.8.18.42.42,0,0,1,.19.35.41.41,0,0,1-.19.35,1.4,1.4,0,0,1-.8.18,1.36,1.36,0,0,1-.79-.18A.41.41,0,0,1,93.12,125.26Zm.23,0a.26.26,0,0,0,.12.21,1.25,1.25,0,0,0,.63.12,1.29,1.29,0,0,0,.64-.12.26.26,0,0,0,.12-.21.23.23,0,0,0-.12-.2,1.18,1.18,0,0,0-.64-.13,1.14,1.14,0,0,0-.63.13A.23.23,0,0,0,93.35,125.26ZM95,123.17v.6h.39v.2H95v.66h-.23v-1.46Z"/><rect class="cls-19" x="90.58" y="94.54" width="17.91" height="21.44"/><g class="cls-20"><path class="cls-3" d="M102.69,104.35s.63-1.23,1.55-.6.62,2.22-1.63,2.48"/><path class="cls-7" d="M103.18,105.13a.13.13,0,0,1-.1,0,.14.14,0,0,1,0-.18l.54-.5a.13.13,0,1,1,.17.19l-.54.5A.11.11,0,0,1,103.18,105.13Z"/><path class="cls-10" d="M87.41,140.05l-2-15.61c0-7.09,1.61-12.84,12.85-12.84h0c13.61,0,12.84,5.75,12.84,12.84l-1.41,15.61"/><rect class="cls-7" x="99.73" y="114.28" width="0.17" height="25.92"/><polyline class="cls-21" points="98.95 116.79 96.23 129.71 99.8 137.52 102.52 132.59 100.31 116.79"/><polygon class="cls-21" points="97.82 115.26 99.69 117.81 100.96 115.85 100.03 113.56 97.82 115.26"/><path class="cls-10" d="M111,115.82s-4.42-4.45-8.27-2.57c-2.72,1.32-2.92,4.12,2,11.54s8.15,9.62,8.25,9.72c2.46,2.45,6.13-.88,6-3.56C118.93,128.54,111,115.82,111,115.82Z"/><path class="cls-10" d="M90.33,114.18c2.29,2,8.77,5.14,2.74,11.71s-9.2,8.92-9.32,9c-2.8,2-5.92-1.81-5.41-4.45C78.79,128.08,88.16,112.3,90.33,114.18Z"/><path class="cls-3" d="M112.63,127.29c-6.28-.81-14-1.72-15.91-2,0,0,0,.09,0,.13-1.79-.4-3.9-.93-5.1.3-3.21,3.29.21,4.94,2.53,5.28.31,0,.62.08.92.1a95.34,95.34,0,0,0,10.25,2.3c2.86.53,8.75,2.84,10.84.1C118.5,130.46,115.8,127.7,112.63,127.29Z"/><path class="cls-3" d="M84.61,127.53c4.71-1.4,9.44-2.75,14.16-4.12,3.62-1,7.42-1,8.84,3.19-1.43.57-2.62,1.21-4.13,1.68-.31.1-.6.18-.9.26a101.06,101.06,0,0,1-9.75,3.9c-2.74,1-8.18,4.2-10.68,1.83C79.33,131.59,81.55,128.44,84.61,127.53Z"/><path class="cls-3" d="M102.53,112.14c0,1.56-1.27,1.88-2.83,1.88l-.35-.29c-1.57,0-2.83,0-2.83-1.59v-3.79a2.82,2.82,0,0,1,2.83-2.82h.35a2.83,2.83,0,0,1,2.83,2.82Z"/><g class="cls-4"><path class="cls-5" d="M102.58,108.55s-2.54,1.51-3.64.81l3.57,2.65Z"/></g><path class="cls-3" d="M103.26,106.64c0,2.09-1.4,3.2-3.5,3.2h-.48c-2.09,0-3.49-1.11-3.49-3.2l-.3-5.08a3.79,3.79,0,0,1,3.79-3.79h.48a3.79,3.79,0,0,1,3.79,3.79Z"/><path class="cls-6" d="M95.57,103.65a15.5,15.5,0,0,1,1-2.67c1.92,1.3,3.92.54,5.72-.51.39,1.38.79,2.8,1.12,2.9.64-1.13,1.4-4.54-.3-4.45.72-1.73-1.94-2-3-1.73s-1.78.83-2.7,1.07-1.35.07-1.93.81c-.85,1.09-.48,3,0,4.18"/><polygon class="cls-10" points="102.65 111.03 99.64 113.97 100.79 115.85 103.76 112.89 102.65 111.03"/><polygon class="cls-10" points="96.42 110.92 99.6 113.97 98.16 115.94 95.49 112.89 96.42 110.92"/><path class="cls-3" d="M96.2,104.4s-.63-1.23-1.55-.6S94,106,96.28,106.28"/><path class="cls-7" d="M95.71,105.18a.18.18,0,0,1-.09,0l-.53-.5a.12.12,0,1,1,.17-.18l.54.5a.13.13,0,0,1,0,.18A.15.15,0,0,1,95.71,105.18Z"/><polygon class="cls-7" points="100.78 115.99 100.72 115.9 99.53 114.02 99.68 113.93 100.81 115.72 103.7 112.83 103.82 112.95 100.78 115.99"/><polygon class="cls-7" points="98.34 116.13 95.29 113.09 95.42 112.97 98.31 115.86 99.44 114.07 99.58 114.16 98.34 116.13"/><rect class="cls-7" x="87.41" y="124.46" width="4.28" height="0.17" transform="translate(-63.8 128.51) rotate(-55.76)"/><polygon class="cls-7" points="109.72 127.05 107.76 123.25 107.91 123.17 109.87 126.97 109.72 127.05"/><g class="cls-4"><polygon class="cls-5" points="95.5 131.34 98.47 132.05 107.33 126.74 95.5 131.34"/></g><path class="cls-7" d="M98.54,104.09c-.3-.19-.36.41-.28.58.18.41.43-.19.32-.5Z"/><path class="cls-7" d="M98.39,104.89c-.06,0-.14,0-.21-.18a.73.73,0,0,1,.11-.69.24.24,0,0,1,.3,0h0l0,.11c.09.24,0,.66-.19.74Zm0-.75h0a.65.65,0,0,0-.07.49c0,.08.06.08.06.08s0,0,.06-.06a.72.72,0,0,0,0-.46l0,0Z"/><path class="cls-7" d="M101.84,104.09c-.3-.19-.36.41-.28.58.19.41.43-.19.32-.5Z"/><path class="cls-7" d="M101.7,104.89c-.06,0-.15,0-.22-.18a.79.79,0,0,1,.11-.69.24.24,0,0,1,.3,0h0l0,.1c.08.25,0,.68-.2.75Zm0-.75h0a.6.6,0,0,0-.06.49c0,.08.06.08.06.08a.16.16,0,0,0,0-.06.66.66,0,0,0,0-.46l0,0Z"/><path class="cls-8" d="M99.79,106.4s0,0,0,0S99.79,106.4,99.79,106.4Z"/><polygon class="cls-8" points="99.86 106.34 99.86 106.35 99.88 106.33 99.86 106.34"/><path class="cls-8" d="M99.94,106.35s0,0,0,0v0S99.93,106.33,99.94,106.35Z"/><path class="cls-8" d="M100,106.46s0,0,0,0h0Z"/><path class="cls-8" d="M100,106.45s0,0,0,0Z"/><path class="cls-8" d="M100,106.45h0s0,0,0,0S100,106.46,100,106.45Z"/><path class="cls-8" d="M100,106.41h0S100,106.42,100,106.41Z"/><path class="cls-8" d="M100,106.43h0S100,106.42,100,106.43Z"/><path class="cls-8" d="M100,106.42s0,0,0,0S100,106.43,100,106.42Z"/><path class="cls-8" d="M99.94,106.3v0S99.94,106.31,99.94,106.3Z"/><path class="cls-8" d="M100.06,106.47v0h0A0,0,0,0,1,100.06,106.47Z"/><path class="cls-8" d="M100.06,106.43h0S100.06,106.42,100.06,106.43Z"/><polygon class="cls-8" points="100.02 106.36 99.99 106.39 100.02 106.36 100.02 106.36"/><polygon class="cls-8" points="100.11 106.48 100.1 106.5 100.12 106.47 100.11 106.48"/><path class="cls-8" d="M100.14,106.47s0,0,0,0,0,0,0,0S100.15,106.49,100.14,106.47Z"/><path class="cls-8" d="M100.18,106.46a0,0,0,0,1,0,0A0,0,0,0,0,100.18,106.46Z"/><path class="cls-8" d="M100.09,106.42s0,0,0,0v0Z"/><path class="cls-8" d="M100.1,106.42Z"/><path class="cls-8" d="M100.09,106.42Z"/><path class="cls-8" d="M100,106.39s0,0,0-.06S100.06,106.36,100,106.39Z"/><path class="cls-8" d="M100.09,106.39h0a0,0,0,0,1,0,0Z"/><polygon class="cls-8" points="100.09 106.38 100.09 106.39 100.09 106.39 100.09 106.38"/><path class="cls-8" d="M100.16,106.43a0,0,0,0,1,0,0s0,0,0,0S100.15,106.44,100.16,106.43Z"/><path class="cls-8" d="M100.13,106.43h0Z"/><polygon class="cls-8" points="100.25 106.42 100.24 106.41 100.24 106.42 100.25 106.42"/><path class="cls-8" d="M100.15,106.4a0,0,0,0,0,0,0h0Z"/><path class="cls-8" d="M100.2,106.45v0Z"/><path class="cls-8" d="M100.13,106.43Z"/><path class="cls-8" d="M100.13,106.43h0Z"/><path class="cls-8" d="M100.25,106.23s0,0,0,0a.46.46,0,0,0,0,.16s0,0,0,0,0,0,0-.05,0,0,0,0,0,0,0-.1l0,0S100.26,106.24,100.25,106.23Z"/><path class="cls-8" d="M100.22,106.41h0s0,0,0,0a0,0,0,0,0,0,0Z"/><path class="cls-8" d="M100.19,106.41s0,0,0-.07,0,0,0,0,0,0,0,0h0v0s0,0,0,0h0l0,0Z"/><path class="cls-8" d="M100.07,106.26h0Z"/><path class="cls-8" d="M100.08,106.28s0,0,0,0v0s0,0,0,0h0a.17.17,0,0,1,0,0S100.08,106.31,100.08,106.28Z"/><path class="cls-8" d="M100.13,106.34h0v0S100.13,106.33,100.13,106.34Z"/><polygon class="cls-8" points="100.25 106.43 100.25 106.46 100.26 106.42 100.25 106.43"/><polygon class="cls-8" points="100.28 106.43 100.28 106.45 100.29 106.44 100.28 106.43"/><path class="cls-8" d="M100.27,105.13h0Z"/><path class="cls-8" d="M100.27,105.17h0Z"/><path class="cls-8" d="M100.75,105.84s.06,0,0,0h0S100.76,105.84,100.75,105.84Z"/><path class="cls-8" d="M100.51,105.46h0Z"/><path class="cls-8" d="M100.39,105.48v0S100.39,105.47,100.39,105.48Z"/><path class="cls-8" d="M100.18,104.93h0Z"/><path class="cls-8" d="M100.61,106.31h0S100.6,106.29,100.61,106.31Z"/><path class="cls-8" d="M100.57,105.07h0Z"/><path class="cls-8" d="M100.67,106.29h0l0,0S100.68,106.31,100.67,106.29Z"/><path class="cls-8" d="M100,104.13Z"/><path class="cls-8" d="M100.24,103.84h0Z"/><path class="cls-8" d="M100.4,106.42Z"/><path class="cls-8" d="M100.35,106.31h0Z"/><path class="cls-8" d="M100.57,106.13h0S100.57,106.12,100.57,106.13Z"/><path class="cls-8" d="M100.39,106.41h0Z"/><path class="cls-8" d="M100.39,106.42Z"/><path class="cls-8" d="M100.41,106.42h0Z"/><path class="cls-8" d="M100.18,104.54h0S100.17,104.53,100.18,104.54Z"/><polygon class="cls-8" points="100.43 105.74 100.43 105.74 100.43 105.74 100.43 105.74"/><path class="cls-8" d="M100.41,105.72s0,0,0,0h0Z"/><path class="cls-8" d="M100.23,105l0,0s0,0-.07,0,0,0,.11,0h0s.07,0,.06,0h0a0,0,0,0,1,0,0v0h0s0,0,0,0,0,0,0,0h0c-.05,0,0,0-.05,0s.07,0,.09,0h0s0,0,0,0h0s0,0-.06,0,0,0,.07,0,0,0,0,0h0s0,0,0,0-.06,0,0,0h0l.08,0,0,0a.14.14,0,0,1,.11,0l0,0h-.14l0,0c.05,0,.13,0,.15,0l-.09,0s0,0,0,0h0l0,0s0,0,0,0,0,0,.07,0,0,0,0,0,.08,0,0,0h0s0,0,0,0h0s0,.06.07.06h0l.1,0s-.17,0-.2,0,0,0,0,0,.07,0,.07,0,0,0-.07,0,.09,0,.09,0h-.09l.08,0a.14.14,0,0,0-.09,0s0,0,0,0l0,0s.11,0,.11,0l-.11,0a.9.9,0,0,1,.23,0h0l-.23,0s0,0,0,0h0v0s0,0,.09,0l0,0s.13,0,.12,0h-.1s.06,0,0,0-.06,0,0,0l.25,0s0,0-.08,0-.1,0-.13,0h0s0,0,0,0,0,0,0,0,0,0,0,0,.1.06.1.08h0l-.06,0s0,0,0,0a0,0,0,0,1,0,0s0,0,0-.05a.13.13,0,0,1,0,.06s0,0,0,0,.07.1.06.14,0,0,0,0,0,.11-.06.09a.38.38,0,0,1,0-.1s0,0,0,0h0s0,0,0,0-.06,0-.09,0a0,0,0,0,0,0,0h0s0,0,0,0,0,.06,0,0v0s0,0,0,0,0,0,0,0l0,0s0,.07,0,.06,0,0,0,0,0,0,0-.06,0,0,0,.06,0,0,0,0h0s0,0,0,0,0,0,0,0,0,0,0,0v0s0,0,0,.07h.06s0-.05,0,0l0,0h0s0-.08.11-.06,0,0,0,0h0s.06,0,0-.05.05-.07.06-.1h0s0,0,0-.07h0s0,0,0-.09,0,0,0,0-.06-.06,0-.09,0,0,0,0h0s0,0,0,0h0s0,0,0,0,0,0-.09,0h0s0,0,0,0h0a.08.08,0,0,1,.07,0l-.07,0h0s0,0,0,0,0-.09,0-.14,0,0,0,0l0,0s0,0,0,0h0s-.06,0-.11,0,0,0,0,0,0,0,0,0,0,0,0,0,0,0,0,0,0,0,0,0h0s0,0,0,0h0s0,0,0,0h0c-.07,0,0,0,0,0h0s.09,0,.1-.07h0s0,0-.06,0,.06,0,.06,0-.08,0,0,0,0,0,0,0,.06-.05,0-.05h0a.09.09,0,0,0-.06,0c.11,0-.07,0,0-.07v0h0s0,0,0,0,0,0,0,0,0,0,0,0l0,0s0,0,0-.07h0s.07-.1,0-.08h0s-.05,0-.07,0,0,0,0,0h0c.06,0,0,0,.06,0s0-.11,0-.16l0,0v0s0,0,0,0,0,0,0,0,.06,0,.06,0h0s0,0,0,0,0,0,0,0h0v0h0s0,0,0,0,0-.08,0-.1,0,0,0,0,0,0,0,0,0,0,.09-.06,0,0-.07,0l0,0s0-.07,0-.1h0l0,0s-.06,0,0,0h0c0-.08-.08-.12,0-.21s0,0,0,0h0l0,0s0,0,0,0h0a1.54,1.54,0,0,0-.17,0c.06,0-.08.05,0,.06s0,0,0,0,0,0,0,0h0s0,0,0,.1h0s0,0,0,0,0,0,0,0,0,.06-.06.09,0,0,0,0h0s0,0,0,0h0s0,0,0,0v0s0,.08.06.11h0s0,0,0,.06h0l-.05,0s0,0,.09,0h0s0,0,.05,0,0,0-.07,0,.07,0,0,.06c.08,0,0,0,.05,0s.06,0,0,0-.08,0-.07.06h0s0,0,0,0,0,0,.06,0h0s.08,0,.06,0h0s0,0,0,0,0,0-.06,0,0,0,0,0,0,0,.06,0h0s0,0,0,0,0,0,0,0-.07,0,0,.07l0,0s0,0,0,0,0,0,.06,0,0,0,0,0h0s.07,0,0,0h-.07s0,0,0,0,.06,0,.06,0,0,0,0,0,0,0,0,0h0s0,0,0,0h0s0,0,0,0h0l0,0s.06,0,0,.05,0,0,0,0,0,0,0,0l0,0s0,0,.08,0,0,0,0,0,.07,0,0,0Zm.07.19s0,0,0,0S100.31,105.22,100.3,105.23Zm.15.27s0,0,0,0Zm0,.88Zm0,0h0S100.44,106.36,100.44,106.37Zm-.06-1.94h0Z"/><path class="cls-8" d="M100.4,105.48h0Z"/><polygon class="cls-8" points="100.18 104.93 100.18 104.92 100.18 104.93 100.18 104.93"/><path class="cls-8" d="M100.46,106h0Z"/><path class="cls-8" d="M100.33,106.45h0S100.34,106.45,100.33,106.45Z"/><path class="cls-8" d="M100.21,106.25h0A0,0,0,0,0,100.21,106.25Z"/><path class="cls-8" d="M100.31,106.34s0,0,0,0h0S100.3,106.35,100.31,106.34Z"/><path class="cls-8" d="M100.29,106.33h0S100.28,106.34,100.29,106.33Z"/><path class="cls-8" d="M100.42,106.4s0,0,0,0S100.44,106.37,100.42,106.4Z"/><polygon class="cls-8" points="100.29 106.25 100.3 106.28 100.3 106.26 100.29 106.25"/><path class="cls-8" d="M100.36,106.27h0s0,0,0,0S100.36,106.28,100.36,106.27Z"/><path class="cls-8" d="M100.34,106.27h0S100.34,106.28,100.34,106.27Z"/><polygon class="cls-8" points="100.31 106.24 100.31 106.25 100.32 106.25 100.31 106.24"/><path class="cls-8" d="M100.5,106.23v0h0Z"/><path class="cls-8" d="M100.42,106.16l0,0,0,0Z"/><path class="cls-8" d="M100.44,106.14s0,0,0,0S100.43,106.14,100.44,106.14Z"/><polygon class="cls-8" points="100.58 106.03 100.58 106.04 100.65 106.06 100.58 106.03"/><path class="cls-8" d="M100.4,105.88s0,0,0,0,0,0,0,0Z"/><path class="cls-8" d="M100.45,105.88h0Z"/><polygon class="cls-8" points="100.27 103.8 100.28 103.78 100.26 103.79 100.27 103.8"/><path class="cls-8" d="M100.22,103.79h0S100.23,103.78,100.22,103.79Z"/><path class="cls-8" d="M100.23,105.28h0v0Z"/><polygon class="cls-8" points="100.22 105.13 100.22 105.13 100.26 105.12 100.22 105.13"/><path class="cls-8" d="M100.14,105h0S100.19,105,100.14,105Z"/><path class="cls-8" d="M99.88,107.33l0,0S99.88,107.34,99.88,107.33Z"/><polygon class="cls-8" points="99.87 107.41 99.87 107.4 99.87 107.43 99.87 107.41"/><path class="cls-8" d="M99.84,107.42s0,0,0,0h0v0S99.85,107.43,99.84,107.42Z"/><path class="cls-8" d="M99.78,107.34h0Z"/><path class="cls-8" d="M99.78,107.34s0,0,0,0Z"/><path class="cls-8" d="M99.77,107.35v0s0,0,0,0A.08.08,0,0,0,99.77,107.35Z"/><path class="cls-8" d="M99.78,107.39h0Z"/><path class="cls-8" d="M99.78,107.36v0s0,0,0,0Z"/><path class="cls-8" d="M99.78,107.37s0,0,0,0S99.79,107.36,99.78,107.37Z"/><path class="cls-8" d="M99.85,107.47h0S99.85,107.46,99.85,107.47Z"/><path class="cls-8" d="M99.74,107.33v0h0S99.74,107.35,99.74,107.33Z"/><path class="cls-8" d="M99.75,107.37v0Z"/><polygon class="cls-8" points="99.8 107.44 99.79 107.4 99.79 107.44 99.8 107.44"/><polygon class="cls-8" points="99.72 107.34 99.71 107.31 99.72 107.35 99.72 107.34"/><path class="cls-8" d="M99.71,107.35l0,0v0S99.7,107.33,99.71,107.35Z"/><path class="cls-8" d="M99.7,107.36v0Z"/><path class="cls-8" d="M99.74,107.39s0,0,0,0v0Z"/><polygon class="cls-8" points="99.74 107.39 99.74 107.39 99.73 107.39 99.74 107.39"/><path class="cls-8" d="M99.74,107.39Z"/><path class="cls-8" d="M99.77,107.42a.06.06,0,0,0,0,0Z"/><path class="cls-8" d="M99.75,107.42h0s0,0,0,0Z"/><polygon class="cls-8" points="99.75 107.43 99.75 107.42 99.75 107.42 99.75 107.43"/><path class="cls-8" d="M99.71,107.39h0S99.71,107.38,99.71,107.39Z"/><path class="cls-8" d="M99.72,107.39Z"/><polygon class="cls-8" points="99.68 107.41 99.68 107.42 99.68 107.41 99.68 107.41"/><path class="cls-8" d="M99.72,107.42v0h0Z"/><path class="cls-8" d="M99.69,107.38h0Z"/><path class="cls-8" d="M99.72,107.39h0Z"/><path class="cls-8" d="M99.72,107.39h0Z"/><path class="cls-8" d="M99.7,107.59s0,0,0,0,0-.11,0-.16v0s0,0,0,.06,0,0,0,0,0,.05,0,.1v0S99.69,107.59,99.7,107.59Z"/><path class="cls-8" d="M99.69,107.42h0a0,0,0,0,1,0,0s0,0,0,0h0Z"/><path class="cls-8" d="M99.7,107.41s0,0,0,.07,0,0,0,0,0,0,0,0h0v0S99.7,107.41,99.7,107.41Z"/><path class="cls-8" d="M99.8,107.53Z"/><path class="cls-8" d="M99.79,107.52h0v0a.08.08,0,0,0,0,0h0l0,0Z"/><path class="cls-8" d="M99.74,107.47v0h0S99.75,107.48,99.74,107.47Z"/><polygon class="cls-8" points="99.67 107.39 99.67 107.36 99.67 107.41 99.67 107.39"/><polygon class="cls-8" points="99.66 107.4 99.66 107.37 99.66 107.39 99.66 107.4"/><path class="cls-8" d="M98.79,107.45h0Z"/><path class="cls-8" d="M98.81,107.47h0Z"/><path class="cls-8" d="M99.36,107.39s0-.07,0,0v0S99.36,107.38,99.36,107.39Z"/><path class="cls-8" d="M99.08,107.47h0v0Z"/><path class="cls-8" d="M99,107.57v0Z"/><path class="cls-8" d="M98.65,107.36l0,0S98.64,107.37,98.65,107.36Z"/><path class="cls-8" d="M99.54,107.42v0S99.53,107.44,99.54,107.42Z"/><path class="cls-8" d="M99,107.22h0Z"/><path class="cls-8" d="M99.52,107.4h0S99.52,107.38,99.52,107.4Z"/><path class="cls-8" d="M98.41,106.83h0Z"/><path class="cls-8" d="M98.69,106.66h0Z"/><path class="cls-8" d="M99.61,107.4Z"/><path class="cls-8" d="M99.64,107.51h0Z"/><path class="cls-8" d="M99.48,107.58Z"/><path class="cls-8" d="M99.62,107.41h0Z"/><path class="cls-8" d="M99.61,107.39h0S99.62,107.39,99.61,107.39Z"/><polygon class="cls-8" points="99.61 107.4 99.61 107.4 99.61 107.39 99.61 107.4"/><path class="cls-8" d="M98.59,107.09Z"/><polygon class="cls-8" points="99.19 107.66 99.19 107.66 99.19 107.66 99.19 107.66"/><path class="cls-8" d="M99.17,107.67s0,0,0,0l0-.09Z"/><path class="cls-8" d="M98.73,107.42v0s0,0-.06,0,0,0,.1,0v0h0s0,0,0,0,0,0,0,0h0v0h0l0,0h0l0,0c0,.08,0,0,0,0h0s0,0,0,.07a.2.2,0,0,1,0-.09s0,0,0,0,0,0,0,0l0,0,0,0a.17.17,0,0,1,0,.07s0,0,0,0,0,0,0,0,0,0,0,0l0,0v0s0,0,0,0,0,.07,0,0l0,0s0,0,.06,0v0a.24.24,0,0,1,.06-.08v0h0l0,0h0l0,.06v0l0,.07h0l0,0h0v0s.07-.1.1-.1l0,.09s0,0,0,0,0,0,0,0l0,0s0,0,0,0,0,0,0-.06,0,.05,0,0,.05-.07,0,0h0s0,0,0,0h0s0,0,.06,0l0,.08,0-.09,0-.09s0,.17-.07.19,0,0,0,0l0-.07s0,0,0,.08,0-.09,0-.08,0,.07,0,.08l0-.07a.19.19,0,0,0,0,.08s0,0,0,0v0s0-.1.06-.09,0,.09,0,.1a1.19,1.19,0,0,1,.08-.2v0l0,0s-.06.17-.08.21,0,0,0,0a0,0,0,0,1,0,0l0,0s0,0,0-.08l0,0s0-.12.05-.11,0,.08,0,.09,0,0,0,0v0s0-.06,0,0v0a1.87,1.87,0,0,1,0-.25.54.54,0,0,1,0,.08s0,.09,0,.13v0s0,0,0,0,0,0,0,0,0,0,0,0a.29.29,0,0,1,0-.11v0s0,0,0,0a.43.43,0,0,1,0,0s0,0,0,0,0,0,0,.06,0,0,0-.06,0,0,0,0a.24.24,0,0,1,0-.14s0,0,0,0,0-.11,0-.06v.1s0,0,0,0v0s0,0,0,0,0,0,.05,0a.08.08,0,0,0,0,0h0s0,0,0,0,0-.06,0,0v0s0,0,0,0,0,0,0,0v0s0-.07,0,0a.43.43,0,0,1,0-.05c0,.06,0,0,0,.07s0,0,0-.07v0h0v0s0,0,0,0v0s0,0,0-.07h0s0,0,0,0,0,0,0,0v0h0s0,0,0,0,0,0,0,0v0s0,0,0,0,0,0,0,0v0l0,0v0s0,0,0,0,0,0,0,0,0,0,0,0,0,0,0,0h0v0h0a.16.16,0,0,1,0,0v0s0,0,0,0,0,0,0,.07h0s0,0,0,0v0l0,0a.1.1,0,0,1,0-.07s0,0-.05,0v0s0,0,0,0,0,0,0-.08,0,0,0,0a.08.08,0,0,1,0,0s0,0,0,0,0,0,0,0h0s0,0,0,0,0,0-.06.1,0,0,0,0a.05.05,0,0,1,0,0s0,0,0,0,0,0,0,0,0,0,0,0h0s0,0,0,0h0s0,0,0,0l0,0s0,0,0,0v0s0-.09,0-.1h0s0,0,0,0l0,0s-.06,0,0,0l0,0s0-.06,0,0v0l0,0c.07-.09-.06,0,0-.06h0s0,0,0,0l0,0s0,0,0,0h0s.05-.09,0,0h0s0,0-.06,0,0,0,0,0h0s0,0,0,0,0-.07,0-.09l0,0h0s0,0,0,0,.06,0,0,0h0l0,0h0l0,0s0,0,0,0,0-.06,0-.07,0,0,0,0,0,0,0,0,0,0,.09,0,0,0-.07,0,0,0,0,0,0,0,0,0h0l.06,0s-.07,0,0,0h0s0-.07,0-.12,0,0,0,0h0s0,0,0,0h-.17c.06,0-.09,0,0,0h0s0,0,0,0h0s0,0,0,.07h0s0,0,.06,0,0,0-.07.06,0,0,0,0h0l0,0h0s0,0,0,0h0s0,.06,0,.07h0s0,0,0,0h0s0,0,0,0,0,0,.09,0h0s0,0-.06,0,.06,0,0,0,0,0,0,0h0s-.08,0-.07.06h0s0,0,0,0,0,0,0,0h0s.08,0,.06,0h0s0,0,0,0,0,0-.06,0,0,0,0,0,0,0,0,0h0l0,0s0,0,0,0,0,0,0,0-.07,0,0,.07,0,0,0,0,0,0,0,0,0,0,0,0,0,0,0,0l0,0s.06,0,0,0l0,0h0l0,0s0,0,0,0l0,0s0,0,0,0,0,0,0,0l0,0s0,0,0,0h0l-.06,0h0s0,0,0,0,0,0,0,0h0s0,0,0,0l0,0s0,0,.06,0,0,0,0,0,.06,0,0,0Zm.12.07s0,0,0,0S98.85,107.48,98.85,107.49Zm.22,0s0,0,0,0A0,0,0,0,1,99.07,107.53Zm.52-.11h0S99.58,107.42,99.59,107.42Zm0,0s0,0,0,0h0Zm-.82-.48h0S98.76,107,98.77,107Z"/><path class="cls-8" d="M99,107.56v0Z"/><polygon class="cls-8" points="98.66 107.36 98.66 107.36 98.65 107.36 98.66 107.36"/><path class="cls-8" d="M99.42,107.71v0S99.41,107.7,99.42,107.71Z"/><path class="cls-8" d="M99.64,107.38h0Z"/><path class="cls-8" d="M99.72,107.57h0Z"/><path class="cls-8" d="M99.65,107.48s0,0,0,0h0S99.66,107.47,99.65,107.48Z"/><path class="cls-8" d="M99.67,107.49Z"/><path class="cls-8" d="M99.61,107.42s0,0,0,0S99.6,107.44,99.61,107.42Z"/><polygon class="cls-8" points="99.67 107.57 99.67 107.54 99.67 107.57 99.67 107.57"/><path class="cls-8" d="M99.63,107.55h0Z"/><path class="cls-8" d="M99.64,107.55h0Z"/><polygon class="cls-8" points="99.66 107.58 99.66 107.58 99.65 107.58 99.66 107.58"/><path class="cls-8" d="M99.55,107.55h0S99.55,107.56,99.55,107.55Z"/><path class="cls-8" d="M99.58,107.64s0,0,0,0v0Z"/><path class="cls-8" d="M99.55,107.65s0,0,0,0S99.56,107.66,99.55,107.65Z"/><polygon class="cls-8" points="99.42 107.59 99.42 107.59 99.43 107.52 99.42 107.59"/><path class="cls-8" d="M99.27,107.73s0,0,0,0,0,0,0,0S99.27,107.68,99.27,107.73Z"/><path class="cls-8" d="M99.29,107.68h0Z"/><polygon class="cls-8" points="98.73 106.64 98.74 106.63 98.72 106.64 98.73 106.64"/><path class="cls-8" d="M98.68,106.63h0S98.69,106.63,98.68,106.63Z"/><path class="cls-8" d="M98.81,107.57h0s0,0,0,0Z"/><polygon class="cls-8" points="98.75 107.48 98.75 107.48 98.78 107.45 98.75 107.48"/><path class="cls-8" d="M98.65,107.46h0S98.69,107.42,98.65,107.46Z"/><circle class="cls-6" cx="101.81" cy="98.06" r="2.17"/><path class="cls-6" d="M101.09,98.82A2.08,2.08,0,1,1,99,96.74,2.09,2.09,0,0,1,101.09,98.82Z"/></g><rect class="cls-22" x="96.45" y="118.01" width="7.8" height="7.8" rx="0.32"/><g class="cls-14"><rect class="cls-23" x="96.75" y="118.32" width="7.18" height="7.26" rx="0.3"/></g><g class="cls-24"><rect class="cls-23" x="100.34" y="121.95" width="3.2" height="3.23" rx="0.13"/></g><rect class="cls-25" x="70.18" y="105.2" width="14.44" height="2.96"/><polygon class="cls-12" points="217.46 93.81 155.66 93.81 155.66 128.07 166.19 138.6 217.46 138.6 217.46 93.81"/><polygon class="cls-13" points="166.19 128.07 155.66 128.07 166.19 138.6 166.19 128.07"/><path d="M178.15,109.42v.68h-6.72v-.68ZM173.08,113h4.44v.65h-5.27v-1.84h4.22v-.52h-4.24v-.64h5.07v1.76h-4.22Zm4.2-4.1h-5v-2.47h.84V107h3.3v-.61h.84Zm-.84-1.23h-3.3v.59h3.3Z"/><path d="M185.7,112.15v.7H179v-.7h2.92v-1.27H179.8V108.5h4.27v-1h-4.29v-.68h5.13v2.35h-4.28v1h4.44v.68h-2.31v1.27Z"/><path d="M189.22,108.13a3.59,3.59,0,0,0,1.84,3.25l-.5.68a3.64,3.64,0,0,1-1.76-2.23,3.81,3.81,0,0,1-1.78,2.35l-.53-.67a3.82,3.82,0,0,0,1.88-3.38V106.9h.85Zm3.47-1.84v7.43h-.85v-4.31h-1.59v-.68h1.59v-2.44Z"/><path d="M195.36,111.27a22.48,22.48,0,0,0,3.37-.25l.09.69a20.56,20.56,0,0,1-3.69.26h-.63V109h2.59v-1.38h-2.6V107h3.45v2.75h-2.58Zm4.84-5v7.44h-.85v-7.44Z"/><path d="M165.33,122.79c1.78-1.58,2.7-2.75,2.7-3.74a1,1,0,0,0-1-1.11,1.64,1.64,0,0,0-1.19.67l-.53-.53a2.4,2.4,0,0,1,1.84-.9,1.71,1.71,0,0,1,1.82,1.82c0,1.16-.93,2.37-2.21,3.59.32,0,.69-.06,1-.06h1.51v.81h-3.9Z"/><path d="M170,120.29c0-2.09.76-3.11,1.95-3.11s2,1,2,3.11-.77,3.16-2,3.16S170,122.39,170,120.29Zm3,0c0-1.73-.43-2.36-1.05-2.36s-1,.63-1,2.36.44,2.41,1,2.41S173,122,173,120.29Z"/><path d="M174.68,122.79c1.78-1.58,2.7-2.75,2.7-3.74a1,1,0,0,0-1-1.11,1.63,1.63,0,0,0-1.19.67l-.54-.53a2.4,2.4,0,0,1,1.84-.9,1.71,1.71,0,0,1,1.82,1.82c0,1.16-.92,2.37-2.2,3.59.31,0,.69-.06,1-.06h1.51v.81h-3.9Z"/><path d="M179.38,120.29c0-2.09.77-3.11,2-3.11s1.95,1,1.95,3.11-.77,3.16-1.95,3.16S179.38,122.39,179.38,120.29Zm3,0c0-1.73-.44-2.36-1-2.36s-1.05.63-1.05,2.36.43,2.41,1.05,2.41S182.39,122,182.39,120.29Z"/><path d="M184.26,122.79a.64.64,0,1,1,.64.66A.64.64,0,0,1,184.26,122.79Z"/><path d="M186.5,120.29c0-2.09.77-3.11,2-3.11s1.95,1,1.95,3.11-.77,3.16-1.95,3.16S186.5,122.39,186.5,120.29Zm3,0c0-1.73-.44-2.36-1-2.36s-1.05.63-1.05,2.36.43,2.41,1.05,2.41S189.51,122,189.51,120.29Z"/><path d="M191.17,121.84a1.87,1.87,0,0,1,1.08-1.63v0a1.71,1.71,0,0,1-.81-1.41,1.57,1.57,0,0,1,1.73-1.56,1.55,1.55,0,0,1,1.7,1.6,1.91,1.91,0,0,1-.79,1.42v0a1.78,1.78,0,0,1,1,1.6c0,.9-.79,1.59-2,1.59A1.77,1.77,0,0,1,191.17,121.84Zm3,0c0-.74-.66-1-1.49-1.36a1.56,1.56,0,0,0-.7,1.27,1.05,1.05,0,0,0,1.15,1A.93.93,0,0,0,194.2,121.84Zm-.12-3a.9.9,0,0,0-.93-1,.83.83,0,0,0-.86.88c0,.65.57,1,1.25,1.22A1.53,1.53,0,0,0,194.08,118.86Z"/><path d="M196.06,122.79a.63.63,0,1,1,1.26,0,.63.63,0,1,1-1.26,0Z"/><path d="M198.62,122.56h1.32v-4.2h-1.08v-.6a3.84,3.84,0,0,0,1.31-.46h.72v5.26h1.18v.78h-3.45Z"/><path d="M202.82,122.62l.46-.61a1.94,1.94,0,0,0,1.43.66,1,1,0,0,0,1.15-1c0-.67-.43-1.11-1.79-1.11v-.69c1.19,0,1.58-.46,1.58-1.06a.84.84,0,0,0-.92-.88,1.79,1.79,0,0,0-1.21.57l-.49-.59a2.56,2.56,0,0,1,1.73-.73c1.08,0,1.85.56,1.85,1.56a1.47,1.47,0,0,1-1.05,1.42v0a1.54,1.54,0,0,1,1.25,1.51,1.81,1.81,0,0,1-2,1.74A2.51,2.51,0,0,1,202.82,122.62Z"/><path class="cls-3" d="M42.52,128.44s9.72.86,13.22-3.32,2.34-9.11-12.3-6C36.8,120.59,36.91,128,42.52,128.44Z"/><path class="cls-3" d="M41.78,120.31S51.5,121.17,55,117s2.34-9.12-12.3-6C36.06,112.48,36.19,119.92,41.78,120.31Z"/><path class="cls-3" d="M41,112.2s9.73.86,13.22-3.31,2.36-9.12-12.28-6C35.34,104.36,35.46,111.81,41,112.2Z"/><path class="cls-11" d="M40.39,120.83a.61.61,0,0,1-.58-.4.62.62,0,0,1,.37-.8c10-3.61,14-2.07,14.18-2a.63.63,0,0,1,.34.81.62.62,0,0,1-.8.34c-.07,0-3.92-1.39-13.3,2A.76.76,0,0,1,40.39,120.83Z"/><path class="cls-11" d="M39.51,112.74a.62.62,0,0,1-.58-.41.62.62,0,0,1,.37-.79c10-3.62,14-2.07,14.16-2a.62.62,0,0,1,.34.8.62.62,0,0,1-.8.35c-.07,0-3.9-1.39-13.28,2A.52.52,0,0,1,39.51,112.74Z"/><path class="cls-3" d="M40.32,104.08s9.72.86,13.22-3.31,2.35-9.12-12.3-6C34.6,96.24,34.72,103.69,40.32,104.08Z"/><path class="cls-11" d="M39,104.89a.62.62,0,0,1-.58-.41.61.61,0,0,1,.37-.79c9.94-3.61,14-2.07,14.16-2a.62.62,0,1,1-.45,1.15c-.07,0-3.92-1.39-13.29,2A.52.52,0,0,1,39,104.89Z"/><path class="cls-3" d="M222.23,135.16s-9.72.86-13.22-3.32-2.35-9.11,12.3-6C228,127.31,227.84,134.76,222.23,135.16Z"/><path class="cls-3" d="M223,127s-9.73.86-13.23-3.31-2.34-9.12,12.3-6C228.69,119.2,228.55,126.64,223,127Z"/><path class="cls-3" d="M223.71,118.92s-9.74.86-13.22-3.32-2.37-9.11,12.28-6C229.41,111.08,229.29,118.53,223.71,118.92Z"/><path class="cls-11" d="M224.36,127.55a.71.71,0,0,1-.21,0c-9.42-3.43-13.26-2-13.3-2a.62.62,0,0,1-.46-1.15c.17-.07,4.22-1.62,14.18,2a.63.63,0,0,1,.37.8A.61.61,0,0,1,224.36,127.55Z"/><path class="cls-11" d="M225.23,119.46a.52.52,0,0,1-.21,0c-9.41-3.42-13.24-2-13.27-2a.62.62,0,0,1-.8-.35.6.6,0,0,1,.34-.8c.17-.07,4.21-1.62,14.16,2a.62.62,0,0,1,.37.79A.64.64,0,0,1,225.23,119.46Z"/><path class="cls-3" d="M224.43,110.8s-9.72.86-13.22-3.31-2.35-9.12,12.3-6C230.15,103,230,110.41,224.43,110.8Z"/><path class="cls-11" d="M225.78,111.61a.71.71,0,0,1-.21,0c-9.41-3.41-13.25-2-13.29-2a.63.63,0,0,1-.8-.35.62.62,0,0,1,.34-.8c.17-.07,4.23-1.61,14.17,2a.63.63,0,0,1,.37.8A.62.62,0,0,1,225.78,111.61Z"/></g></g></g></svg>