<svg xmlns="http://www.w3.org/2000/svg" width="9.106" height="10.95" viewBox="0 0 9.106 10.95">
    <defs>
        <style>
            .prefix__cls-2{fill:#fff}
        </style>
    </defs>
    <g id="prefix__ic_b_1" transform="translate(-80.099 -598.629)">
        <path id="prefix__패스_10985" d="M-11326.9-729.371h6.5a2.665 2.665 0 012.375 2.844c0 2.652-1.188 2.375-1.188 2.375h-1.476v.522h1.476a2.213 2.213 0 011.422 2.3c-.041 1.872-1.134 2.878-2.2 2.9s-6.91 0-6.91 0l.972-.954v-9.034z" data-name="패스 10985" transform="translate(11407 1328)" style="fill:#0bb3ab"/>
        <path id="prefix__합치기_1" d="M.207.182L.175.072l.05.052L.265 0l.058.224C.674.587 1.565 1.509 1.992 1.98a2.136 2.136 0 01.252 1.71A3.905 3.905 0 01.805 2.147a14.834 14.834 0 00.719 1.831S-.671 3.13.207.182z" class="prefix__cls-2" data-name="합치기 1" transform="translate(83.721 600.051)"/>
        <path id="prefix__합치기_2" d="M.207 3.8l-.032.11.05-.052.039.123.058-.224C.675 3.39 1.565 2.468 1.992 2A2.137 2.137 0 002.244.288 3.9 3.9 0 00.805 1.831 14.832 14.832 0 011.524 0S-.671.848.207 3.8z" class="prefix__cls-2" data-name="합치기 2" transform="translate(83.721 604.269)"/>
    </g>
</svg>
