<?xml version="1.0" encoding="utf-8"?>
<!-- Generator: Adobe Illustrator 24.1.1, SVG Export Plug-In . SVG Version: 6.00 Build 0)  -->
<svg version="1.1" id="Layer_1" xmlns="http://www.w3.org/2000/svg" xmlns:xlink="http://www.w3.org/1999/xlink" x="0px" y="0px"
	 viewBox="0 0 26 26" enable-background="new 0 0 26 26" xml:space="preserve" width="26" height="26">
<g>
	<path fill="#010101" d="M23.5,6h-5C18.2,6,18,6.2,18,6.5C18,6.8,17.8,7,17.5,7S17,6.8,17,6.5C17,6.2,16.8,6,16.5,6h-14
		C2.2,6,2,6.2,2,6.5v13C2,19.8,2.2,20,2.5,20h14c0.3,0,0.5-0.2,0.5-0.5c0-0.3,0.2-0.5,0.5-0.5s0.5,0.2,0.5,0.5
		c0,0.3,0.2,0.5,0.5,0.5h5c0.3,0,0.5-0.2,0.5-0.5v-13C24,6.2,23.8,6,23.5,6z M23,19h-4.1c-0.2-0.6-0.8-1-1.4-1s-1.2,0.4-1.4,1H3V7
		h13.1c0.2,0.6,0.8,1,1.4,1s1.2-0.4,1.4-1H23V19z"/>
	<path fill="#010101" d="M17.5,16.2c-0.3,0-0.5,0.2-0.5,0.5c0,0.3,0.2,0.5,0.5,0.5c0.3,0,0.5-0.2,0.5-0.5
		C18,16.4,17.8,16.2,17.5,16.2z"/>
	<circle fill="#010101" cx="17.5" cy="14.8" r="0.5"/>
	<circle fill="#010101" cx="17.5" cy="9.3" r="0.5"/>
	<circle fill="#010101" cx="17.5" cy="13" r="0.5"/>
	<circle fill="#010101" cx="17.5" cy="11.2" r="0.5"/>
	<path fill="#010101" d="M13.1,9.4c-0.2-0.2-0.5-0.2-0.7,0l-6,6c-0.2,0.2-0.2,0.5,0,0.7c0.1,0.1,0.2,0.1,0.4,0.1s0.3,0,0.4-0.1l6-6
		C13.3,9.9,13.3,9.6,13.1,9.4z"/>
	<path fill="#010101" d="M7.5,12C8.3,12,9,11.3,9,10.5S8.3,9,7.5,9S6,9.7,6,10.5S6.7,12,7.5,12z M7.5,10C7.8,10,8,10.2,8,10.5
		S7.8,11,7.5,11S7,10.8,7,10.5S7.2,10,7.5,10z"/>
	<path fill="#010101" d="M12,13.5c-0.8,0-1.5,0.7-1.5,1.5s0.7,1.5,1.5,1.5s1.5-0.7,1.5-1.5S12.8,13.5,12,13.5z M12,15.5
		c-0.3,0-0.5-0.2-0.5-0.5s0.2-0.5,0.5-0.5s0.5,0.2,0.5,0.5S12.3,15.5,12,15.5z"/>
</g>
</svg>
