<svg xmlns="http://www.w3.org/2000/svg" width="20" height="20" viewBox="0 0 20 20">
    <g id="prefix__ic_heart_on" transform="translate(-2.084 -1.917)">
        <path id="prefix__사각형_4492" d="M0 0H20V20H0z" data-name="사각형 4492" transform="translate(2.084 1.917)" style="fill:#fff;opacity:0"/>
        <g id="prefix__heart" transform="translate(3.817 5.419)">
            <g id="prefix__그룹_9505" data-name="그룹 9505">
                <path id="prefix__패스_13958" d="M14.764 31.16a4.118 4.118 0 00-6.4.441 5.81 5.81 0 00-.4.616 5.805 5.805 0 00-.4-.616 4.118 4.118 0 00-6.4-.441A4.507 4.507 0 000 34.23a5.538 5.538 0 001.628 3.714A35.668 35.668 0 005.7 41.59c.616.5 1.254 1.023 1.932 1.591l.02.017a.482.482 0 00.615 0l.02-.017c.679-.568 1.316-1.089 1.932-1.592a35.664 35.664 0 004.081-3.645 5.538 5.538 0 001.628-3.714 4.507 4.507 0 00-1.164-3.07zm-5.146 9.75c-.531.434-1.078.88-1.655 1.36-.577-.48-1.123-.926-1.655-1.36C3.072 38.269.933 36.524.933 34.23a3.637 3.637 0 01.929-2.48 3.161 3.161 0 014.943.367 5.208 5.208 0 01.714 1.36.473.473 0 00.887 0 5.208 5.208 0 01.714-1.36 3.161 3.161 0 014.943-.367 3.637 3.637 0 01.929 2.48c.001 2.294-2.137 4.039-5.374 6.68z" data-name="패스 13958" transform="translate(0 -29.836)" style="fill:#a8a8a8;stroke:#a8a8a8;stroke-width:.6px"/>
            </g>
        </g>
    </g>
</svg>
