<svg xmlns="http://www.w3.org/2000/svg" width="26" height="26" viewBox="0 0 26 26">
    <g id="prefix__ic_my_8" transform="translate(1.936 5.024)">
        <path id="prefix__사각형_582" d="M0 0H26V26H0z" data-name="사각형 582" transform="translate(-1.936 -5.024)" style="fill:#fff;opacity:0"/>
        <path id="prefix__패스_2215" d="M18.065 11.458l-.1-.035-.387-.923.042-.095c1.172-2.658 1.091-2.737.9-2.93l-1.565-1.526a.417.417 0 00-.273-.108 9.992 9.992 0 00-2.663 1.046l-.093.042-.953-.384-.038-.095c-1.086-2.688-1.2-2.688-1.467-2.688H9.261c-.269 0-.392 0-1.4 2.693l-.038.1-.948.386-.088-.041a14.589 14.589 0 00-2.713-.993.419.419 0 00-.273.107L2.236 7.545c-.2.2-.281.278.952 2.88l.045.1-.387.922-.095.037C0 12.543 0 12.647 0 12.924v2.163c0 .278 0 .393 2.757 1.381l.1.035.388.92-.042.094c-1.172 2.659-1.1 2.731-.9 2.929l1.561 1.527a.43.43 0 00.275.108A10.028 10.028 0 006.8 21.036l.093-.043.953.385.037.1c1.086 2.687 1.2 2.687 1.468 2.687h2.208c.277 0 .392 0 1.4-2.695l.038-.1.949-.384.09.037a14.508 14.508 0 002.71.994.419.419 0 00.275-.107l1.567-1.533c.2-.2.279-.277-.956-2.877l-.046-.1.387-.918.092-.036c2.756-1.069 2.756-1.173 2.756-1.45v-2.162c.001-.277.001-.392-2.756-1.376zm-7.654 6.012a3.508 3.508 0 113.577-3.508 3.548 3.548 0 01-3.577 3.508z" data-name="패스 2215" transform="translate(.388 -5.846)" style="fill:none;stroke:#000"/>
    </g>
</svg>
