<svg xmlns="http://www.w3.org/2000/svg" id="prefix__ic_more_arrow_n" width="16" height="16" viewBox="0 0 16 16">
    <path id="prefix__사각형_941" d="M0 0H16V16H0z" data-name="사각형 941" style="opacity:0;fill:#c2c2c2"/>
    <path id="prefix__ic_more_arrow" d="M7 1.049a.647.647 0 00-.191-.464L6.421.193A.648.648 0 005.958 0 .639.639 0 005.5.193L.189 5.537a.669.669 0 000 .932l5.3 5.339a.646.646 0 00.92 0l.395-.393a.661.661 0 000-.929L2.352 6l4.459-4.49A.645.645 0 007 1.049" transform="rotate(180 6 7)" style="fill:#c2c2c2"/>
</svg>
