<svg xmlns="http://www.w3.org/2000/svg" width="43" height="43" viewBox="0 0 43 43">
    <defs>
        <style>
            .prefix__cls-2{fill:#9c9c9c;stroke:#9c9c9c;stroke-width:.5px}
        </style>
    </defs>
    <g id="prefix__ic_more_10" transform="translate(-.164)">
        <path id="prefix__사각형_4457" d="M0 0H43V43H0z" data-name="사각형 4457" transform="translate(.164)" style="fill:#fff;opacity:0"/>
        <g id="prefix__phone" transform="translate(7.594 7.308)">
            <g id="prefix__그룹_9476" data-name="그룹 9476">
                <g id="prefix__그룹_9475" data-name="그룹 9475">
                    <path id="prefix__패스_13932" d="M27.641 22.123L22.1 18.43a1.616 1.616 0 00-2.164.352l-1.613 2.074a.689.689 0 01-.884.186l-.307-.169a18.543 18.543 0 01-4.833-3.8 18.619 18.619 0 01-3.8-4.833l-.168-.307a.69.69 0 01.182-.887l2.073-1.613a1.617 1.617 0 00.352-2.164L7.253 1.736a1.608 1.608 0 00-2.167-.488L2.77 2.639a3.266 3.266 0 00-1.49 1.933C.447 7.61 1.074 12.854 8.8 20.579c6.144 6.144 10.719 7.8 13.863 7.8A8.077 8.077 0 0024.8 28.1a3.263 3.263 0 001.933-1.489l1.392-2.314a1.608 1.608 0 00-.484-2.174zm-.3 1.7l-1.389 2.316a2.356 2.356 0 01-1.391 1.078c-2.8.77-7.7.132-15.12-7.283S1.39 7.618 2.16 4.813a2.36 2.36 0 011.079-1.392l2.316-1.389a.7.7 0 01.941.212L8.5 5.255l1.685 2.525a.7.7 0 01-.152.939L7.96 10.332a1.6 1.6 0 00-.423 2.048l.165.3a19.341 19.341 0 003.952 5.042 19.361 19.361 0 005.046 3.951l.3.165a1.6 1.6 0 002.048-.423l1.613-2.073a.7.7 0 01.939-.152l5.537 3.693a.7.7 0 01.206.941z" class="prefix__cls-2" data-name="패스 13932" transform="translate(-1 -1.018)"/>
                    <path id="prefix__패스_13933" d="M283.084 70.236a7.759 7.759 0 017.751 7.751.456.456 0 00.912 0 8.672 8.672 0 00-8.662-8.662.456.456 0 100 .912z" class="prefix__cls-2" data-name="패스 13933" transform="translate(-267.581 -65.675)"/>
                    <path id="prefix__패스_13934" d="M283.084 121.436a5.021 5.021 0 015.015 5.015.456.456 0 00.912 0 5.934 5.934 0 00-5.927-5.927.456.456 0 100 .912z" class="prefix__cls-2" data-name="패스 13934" transform="translate(-267.581 -114.139)"/>
                    <path id="prefix__패스_13935" d="M283.084 172.636a2.282 2.282 0 012.28 2.28.456.456 0 00.912 0 3.2 3.2 0 00-3.191-3.191.456.456 0 000 .912z" class="prefix__cls-2" data-name="패스 13935" transform="translate(-267.581 -162.604)"/>
                </g>
            </g>
        </g>
    </g>
</svg>
