<svg xmlns="http://www.w3.org/2000/svg" width="39.606" height="42.886" viewBox="0 0 39.606 42.886">
    <path id="prefix__event" d="M13.17 4.212a.622.622 0 1 0 .88-.88l-1.725-1.725a.622.622 0 0 0-.88.88zM2.467 6.8l.924 1.689a1.386 1.386 0 0 0 2.432 0L6.747 6.8a.143.143 0 0 1 .053-.053l.431-.235a.622.622 0 1 0-.6-1.092l-.431.235a1.385 1.385 0 0 0-.551.551L4.731 7.9a.141.141 0 0 1-.248 0l-.924-1.694a1.383 1.383 0 0 0-.551-.551l-1.689-.924a.141.141 0 0 1 0-.248l1.689-.924a1.383 1.383 0 0 0 .551-.551l.924-1.689a.141.141 0 0 1 .248 0l.924 1.689a1.385 1.385 0 0 0 .551.551l1.694.924a.147.147 0 0 1 .036.026.622.622 0 1 0 .881-.879 1.388 1.388 0 0 0-.32-.24L6.8 2.467a.139.139 0 0 1-.056-.056L5.823.721a1.386 1.386 0 0 0-2.432 0l-.924 1.69a.144.144 0 0 1-.056.056l-1.69.924a1.386 1.386 0 0 0 0 2.432l1.69.924a.142.142 0 0 1 .056.056zm28.376 10.595a.622.622 0 1 0 0 1.245H34.6a.622.622 0 1 0 0-1.245zM30.6 8.208a1.386 1.386 0 0 0 1.72 1.72l1.848-.541a.143.143 0 0 1 .079 0l1.848.541a1.386 1.386 0 0 0 1.72-1.72l-.541-1.848a.141.141 0 0 1 0-.079l.541-1.848a1.386 1.386 0 0 0-1.72-1.72l-1.848.541a.143.143 0 0 1-.079 0l-1.848-.542a1.386 1.386 0 0 0-1.72 1.72l.541 1.848a.139.139 0 0 1 0 .08zm1.736-2.278l-.541-1.848a.143.143 0 0 1 .133-.182.151.151 0 0 1 .043.006l1.848.541a1.385 1.385 0 0 0 .779 0l1.848-.541a.141.141 0 0 1 .175.175L36.08 5.93a1.381 1.381 0 0 0 0 .779l.541 1.848a.141.141 0 0 1-.175.175l-1.846-.54a1.385 1.385 0 0 0-.779 0l-1.848.541a.141.141 0 0 1-.175-.175l.542-1.848a1.383 1.383 0 0 0 0-.779zM2.858 19.332h3.593a.622.622 0 1 0 0-1.245H2.858a.622.622 0 1 0 0 1.245zm21.48-14.086a.62.62 0 0 0 .44-.182l2.044-2.044a.622.622 0 0 0-.88-.88L23.9 4.183a.623.623 0 0 0 .44 1.063zM18.763 30.5a.623.623 0 0 0-.622.622v6.6a.622.622 0 0 0 1.245 0v-6.6a.622.622 0 0 0-.623-.622zM9.6 27.172a1.386 1.386 0 0 0-1.72-1.72l-1.848.541a.138.138 0 0 1-.079 0L4.1 25.452a1.386 1.386 0 0 0-1.72 1.72l.541 1.848a.144.144 0 0 1 0 .079l-.541 1.848a1.386 1.386 0 0 0 1.72 1.72l1.848-.541a.138.138 0 0 1 .079 0l1.848.541a1.386 1.386 0 0 0 1.72-1.72l-.54-1.847a.139.139 0 0 1 0-.08zm-1.739 2.277L8.4 31.3a.141.141 0 0 1-.175.175l-1.848-.541a1.385 1.385 0 0 0-.779 0l-1.848.541a.141.141 0 0 1-.175-.175l.541-1.849a1.384 1.384 0 0 0 0-.779l-.541-1.848a.134.134 0 0 1 .036-.139.135.135 0 0 1 .1-.042.153.153 0 0 1 .043.006l1.848.541a1.385 1.385 0 0 0 .779 0l1.848-.541a.141.141 0 0 1 .175.175l-.543 1.846a1.384 1.384 0 0 0 0 .779zm18.951-11.578l3.16-1.672a1.539 1.539 0 0 0-.509-2.885l-3.542-.49a.295.295 0 0 1-.233-.4l1.346-3.312a1.539 1.539 0 0 0-2.244-1.887l-3.028 1.9a.295.295 0 0 1-.437-.159l-1.1-3.4a1.539 1.539 0 0 0-2.93 0l-1.1 3.4a.295.295 0 0 1-.437.159l-3.028-1.9a1.539 1.539 0 0 0-2.244 1.883l1.346 3.312a.294.294 0 0 1-.232.4l-3.542.49a1.539 1.539 0 0 0-.504 2.89l3.16 1.672a.294.294 0 0 1 .081.458L8.4 20.981a1.539 1.539 0 0 0 1.465 2.538l3.5-.751a.295.295 0 0 1 .356.3l-.132 3.573a1.539 1.539 0 0 0 2.753 1l2.2-2.822a.295.295 0 0 1 .465 0l2.2 2.822a1.516 1.516 0 0 0 1.2.6 1.58 1.58 0 0 0 .539-.1 1.516 1.516 0 0 0 1.012-1.5l-.132-3.573a.294.294 0 0 1 .356-.3l3.5.751a1.539 1.539 0 0 0 1.465-2.537l-2.4-2.652a.294.294 0 0 1 .081-.458zm-1 1.293l2.4 2.652a.295.295 0 0 1-.28.486l-3.5-.751a1.539 1.539 0 0 0-1.862 1.562l.133 3.573a.295.295 0 0 1-.527.192l-2.2-2.822a1.539 1.539 0 0 0-2.43 0l-2.2 2.822a.295.295 0 0 1-.527-.192l.132-3.573A1.539 1.539 0 0 0 13.1 21.55l-3.5.75a.295.295 0 0 1-.28-.486l2.4-2.652a1.539 1.539 0 0 0-.422-2.393L8.137 15.1a.295.295 0 0 1 .1-.552l3.542-.49a1.539 1.539 0 0 0 1.215-2.1l-1.35-3.318a.294.294 0 0 1 .429-.36l3.028 1.9a1.54 1.54 0 0 0 2.284-.831l1.1-3.4a.295.295 0 0 1 .561 0l1.1 3.4a1.54 1.54 0 0 0 2.284.831l3.028-1.9a.294.294 0 0 1 .429.36l-1.346 3.312a1.54 1.54 0 0 0 1.215 2.1l3.542.49a.295.295 0 0 1 .1.552l-3.16 1.672a1.539 1.539 0 0 0-.422 2.393zM38.486 26.4l-1.686-.925a.14.14 0 0 1-.056-.056l-.924-1.689a1.386 1.386 0 0 0-2.432 0l-.924 1.689a.144.144 0 0 1-.056.056l-1.69.924a1.386 1.386 0 0 0 0 2.432l1.69.924a.141.141 0 0 1 .056.056l.236.43a.622.622 0 1 0 1.092-.6l-.236-.431a1.383 1.383 0 0 0-.556-.547l-1.689-.924a.141.141 0 0 1 0-.248L33 26.567a1.385 1.385 0 0 0 .551-.551l.924-1.689a.141.141 0 0 1 .248 0l.924 1.689a1.383 1.383 0 0 0 .551.551l1.69.924a.142.142 0 0 1 0 .248l-1.689.924a1.381 1.381 0 0 0-.551.551l-.924 1.686a.151.151 0 0 1-.026.036.622.622 0 1 0 .878.882 1.4 1.4 0 0 0 .24-.32l.924-1.69a.139.139 0 0 1 .056-.056l1.689-.924a1.386 1.386 0 0 0 0-2.432zM22.649 15.152l-1.689-.924a.144.144 0 0 1-.056-.056l-.924-1.689a1.386 1.386 0 0 0-2.432 0l-.924 1.689a.14.14 0 0 1-.056.056l-1.69.924a1.386 1.386 0 0 0 0 2.432l1.689.924a.142.142 0 0 1 .056.056l.924 1.69a1.386 1.386 0 0 0 2.432 0l.924-1.689a.143.143 0 0 1 .056-.056l1.689-.924a1.386 1.386 0 0 0 0-2.432zm-.6 1.34l-1.69.924a1.385 1.385 0 0 0-.551.551l-.924 1.689a.141.141 0 0 1-.248 0l-.924-1.689a1.383 1.383 0 0 0-.551-.551l-1.689-.924a.141.141 0 0 1 0-.248l1.689-.924a1.383 1.383 0 0 0 .551-.551l.924-1.689a.141.141 0 0 1 .248 0l.924 1.69a1.386 1.386 0 0 0 .551.551l1.69.924a.142.142 0 0 1 0 .248zm-7.936 16.492a.623.623 0 0 0-.622.622v5.788a.622.622 0 0 0 1.245 0v-5.787a.622.622 0 0 0-.623-.623zm9.3 2.468a.623.623 0 0 0-.622.622v5.788a.622.622 0 0 0 1.245 0v-5.787a.622.622 0 0 0-.623-.622zm0 0" transform="translate(.2 .2)" style="fill:#24855b;stroke:#24855b;stroke-width:.4px"/>
</svg>
