<svg xmlns="http://www.w3.org/2000/svg" width="26" height="26" viewBox="0 0 26 26">
    <g id="prefix__ic_my_6" transform="translate(1.936 5.024)">
        <path id="prefix__사각형_582" d="M0 0H26V26H0z" data-name="사각형 582" transform="translate(-1.936 -5.024)" style="fill:#fff;opacity:0"/>
        <g id="prefix__그룹_9488" data-name="그룹 9488" transform="translate(-238.727 -59.512)">
            <path id="prefix__패스_13947" d="M260.111 67.893h-1.174v-3.438a.448.448 0 00-.447-.446h-1.817v-2.925a1.564 1.564 0 00-1.563-1.563h-5.872l-1.12-1.121a1.337 1.337 0 00-2.023.143l-.728.982h-3.688A2.681 2.681 0 00239 62.2v12.994a2.681 2.681 0 002.679 2.679h16.838a.448.448 0 00.447-.446v-3.573h1.152a.448.448 0 00.447-.446V68.34a.452.452 0 00-.451-.447zm-5-7.479a.669.669 0 01.67.67v2.925h-2.072l-3.577-3.594zm-8.3-1.339a.447.447 0 01.674-.049l4.961 4.983h-9.3zm-6.918 3.125a1.785 1.785 0 011.786-1.786h3.027l-2.67 3.594h-.357a1.786 1.786 0 01-1.786-1.786zm18.173 14.78h-16.387a1.786 1.786 0 01-1.786-1.786V64.219a2.667 2.667 0 001.786.683h11.748a.472.472 0 00.223 0h4.4v2.992h-2.527a2.234 2.234 0 00-2.233 2.233v1.5a2.234 2.234 0 002.233 2.233h2.55v3.12zm1.6-4.014h-4.148a1.343 1.343 0 01-1.34-1.339v-1.5a1.343 1.343 0 011.34-1.34h2.835a.442.442 0 00.277 0h1.036zm0 0" data-name="패스 13947"/>
            <path id="prefix__패스_13948" d="M608.657 319.089a.448.448 0 00-.446.447v1.5a.446.446 0 10.893 0v-1.5a.445.445 0 00-.446-.447zm0 0" data-name="패스 13948" transform="translate(-352.694 -249.409)"/>
        </g>
    </g>
</svg>
