<svg xmlns="http://www.w3.org/2000/svg" width="26" height="26" viewBox="0 0 26 26">
    <defs>
        <style>
            .prefix__cls-2{stroke:#000;stroke-width:.1px}
        </style>
    </defs>
    <g id="prefix__ic_my_4" transform="translate(4.86 2.947)">
        <path id="prefix__사각형_584" d="M0 0H26V26H0z" data-name="사각형 584" transform="translate(-4.86 -2.947)" style="fill:#fff;opacity:0"/>
        <g id="prefix__그룹_9487" data-name="그룹 9487" transform="translate(-110.063 -135.63)">
            <path id="prefix__패스_13945" d="M306.961 327.408a1.4 1.4 0 01-1.4-1.4v-2.444a1.4 1.4 0 011.4-1.4h3.187a1.4 1.4 0 011.4 1.4v2.444a1.4 1.4 0 01-1.4 1.4zm0-4.457a.612.612 0 00-.611.611v2.444a.612.612 0 00.611.611h3.187a.612.612 0 00.611-.611v-2.444a.612.612 0 00-.611-.611z" class="prefix__cls-2" data-name="패스 13945" transform="translate(-186.664 -175.008)"/>
            <path id="prefix__패스_13946" d="M109.408 156.119a.4.4 0 01-.4-.4v-10.23l-.107-.047A3.188 3.188 0 01107 142.53a.4.4 0 01.054-.2l3.483-6.133a.39.39 0 01.342-.2h15.331a.4.4 0 01.342.2l3.492 6.14a.351.351 0 01.05.189 3.2 3.2 0 01-1.915 2.922l-.138.061.036.147v10.065a.4.4 0 01-.4.4zm.4-.786h2.4v-6.391a1.792 1.792 0 011.79-1.79h1.673a1.792 1.792 0 011.79 1.79v6.386h9.834v-9.619h-.376a3.179 3.179 0 01-2.64-1.406l-.149-.221-.149.221a3.172 3.172 0 01-5.271 0l-.149-.22-.149.22a3.181 3.181 0 01-5.281 0l-.149-.221-.149.221a3.179 3.179 0 01-2.64 1.406h-.188l-.193-.014zm4.191-7.39a1 1 0 00-1 1v6.386h3.666v-6.386a1 1 0 00-1-1zm10.563-4.989a2.393 2.393 0 004.71 0l.038-.212h-4.79zm-16.725 0a2.377 2.377 0 002.343 1.97h.011a2.385 2.385 0 002.357-1.97l.037-.211h-4.784zm11.152 0a2.39 2.39 0 004.706 0l.037-.211h-4.78zm-5.578 0a2.393 2.393 0 004.71 0l.037-.211h-4.786zm-5.221-1h20.726l-2.931-5.157H111.11z" class="prefix__cls-2" data-name="패스 13946"/>
        </g>
    </g>
</svg>
