<svg xmlns="http://www.w3.org/2000/svg" width="33.173" height="41.265" viewBox="0 0 33.173 41.265">
    <defs>
        <style>
            .prefix__cls-1{fill:#24855b}
        </style>
    </defs>
    <g id="prefix__XMLID_2590_" transform="translate(-50.201)">
        <g id="prefix__XMLID_212_" transform="translate(50.201)">
            <path id="prefix__XMLID_215_" d="M83.266 35.568l-6.947-12.034a13.7 13.7 0 10-19.061 0l-6.949 12.034a.806.806 0 00.908 1.181l5.356-1.443L58 40.666a.806.806 0 001.477.2L66.788 28.2 74.1 40.862a.806.806 0 001.477-.2L77 35.306l5.356 1.443a.806.806 0 00.908-1.181zM54.7 13.7a12.089 12.089 0 1112.088 12.09A12.1 12.1 0 0154.7 13.7zm4.358 24.666l-1.134-4.257a.806.806 0 00-.989-.571l-4.255 1.148L58.5 24.6a13.63 13.63 0 006.926 2.731zm17.584-4.826a.806.806 0 00-.989.571l-1.134 4.257-6.37-11.033a13.63 13.63 0 006.926-2.735L80.9 34.686z" class="prefix__cls-1" transform="translate(-50.201)"/>
            <path id="prefix__XMLID_885_" d="M192.531 107.745a1.442 1.442 0 00.367 1.487l1.289 1.256-.3 1.774a1.449 1.449 0 002.105 1.529l1.592-.838 1.593.837a1.451 1.451 0 002.1-1.53l-.3-1.773 1.288-1.256a1.451 1.451 0 00-.8-2.474l-1.781-.258-.8-1.613a1.442 1.442 0 00-1.3-.808 1.442 1.442 0 00-1.3.809l-.8 1.614-1.781.259a1.442 1.442 0 00-1.172.985zm3.6.287a.806.806 0 00.607-.441l.839-1.7.84 1.7a.806.806 0 00.607.441l1.877.272-1.358 1.324a.806.806 0 00-.232.713l.321 1.869-1.679-.882a.806.806 0 00-.75 0l-1.678.883.32-1.869a.806.806 0 00-.232-.713l-1.358-1.323z" class="prefix__cls-1" transform="translate(-180.994 -95.687)"/>
            <path id="prefix__XMLID_887_" d="M140.155 72.262a10.157 10.157 0 003.876-19.544.806.806 0 00-.616 1.49 8.543 8.543 0 11-6.5-.007.806.806 0 10-.612-1.491 10.157 10.157 0 003.856 19.552z" class="prefix__cls-1" transform="translate(-123.569 -48.406)"/>
            <path id="prefix__XMLID_888_" d="M246.936 45.612a.806.806 0 10-.57-.236.812.812 0 00.57.236z" class="prefix__cls-1" transform="translate(-230.339 -40.454)"/>
        </g>
    </g>
</svg>
