<svg xmlns="http://www.w3.org/2000/svg" width="41.257" height="39.644" viewBox="0 0 41.257 39.644">
    <defs>
        <style>
            .prefix__cls-1{fill:#24855b}
        </style>
    </defs>
    <g id="prefix__new" transform="translate(0 -10.007)">
        <g id="prefix__그룹_9429" data-name="그룹 9429" transform="translate(0 10.007)">
            <g id="prefix__그룹_9428" data-name="그룹 9428">
                <path id="prefix__패스_13918" d="M38.434 26.054a2.318 2.318 0 01-1.182-3.637 3.935 3.935 0 00-4.438-6.108 2.318 2.318 0 01-3.094-2.248 3.935 3.935 0 00-7.18-2.333 2.317 2.317 0 01-3.824 0 3.935 3.935 0 00-7.18 2.333 2.317 2.317 0 01-3.093 2.249A3.935 3.935 0 004 22.418a2.318 2.318 0 01-1.182 3.637 3.935 3.935 0 000 7.55A2.318 2.318 0 014 37.241a3.935 3.935 0 004.438 6.108 2.318 2.318 0 013.098 2.251 3.86 3.86 0 002.718 3.852 4.073 4.073 0 001.261.2 3.853 3.853 0 003.2-1.722 2.318 2.318 0 013.824 0 3.935 3.935 0 007.18-2.333 2.317 2.317 0 013.094-2.248 3.935 3.935 0 004.438-6.108 2.318 2.318 0 011.183-3.641 3.935 3.935 0 000-7.55zm-.457 6a3.935 3.935 0 00-2.006 6.175 2.317 2.317 0 01-2.613 3.6 3.935 3.935 0 00-5.258 3.812 2.317 2.317 0 01-4.228 1.374 3.935 3.935 0 00-6.493 0 2.318 2.318 0 01-4.229-1.374 3.935 3.935 0 00-5.25-3.816 2.317 2.317 0 01-2.613-3.6A3.935 3.935 0 003.28 32.05a2.318 2.318 0 010-4.446 3.935 3.935 0 002.007-6.175 2.317 2.317 0 012.613-3.6 3.935 3.935 0 005.253-3.817 2.318 2.318 0 014.229-1.374 3.935 3.935 0 006.493 0 2.317 2.317 0 014.225 1.38 3.935 3.935 0 005.253 3.816 2.318 2.318 0 012.613 3.6 3.935 3.935 0 002.007 6.175 2.317 2.317 0 010 4.446z" class="prefix__cls-1" data-name="패스 13918" transform="translate(0 -10.007)"/>
            </g>
        </g>
        <g id="prefix__그룹_9431" data-name="그룹 9431" transform="translate(8.341 17.055)">
            <g id="prefix__그룹_9430" data-name="그룹 9430">
                <path id="prefix__패스_13919" d="M115.8 97.467a12.662 12.662 0 00-7.716 2.592 12.871 12.871 0 00-4.538 6.56.809.809 0 101.552.458 11.243 11.243 0 013.964-5.73 11.056 11.056 0 016.738-2.263.809.809 0 100-1.618z" class="prefix__cls-1" data-name="패스 13919" transform="translate(-103.517 -97.467)"/>
            </g>
        </g>
        <g id="prefix__그룹_9433" data-name="그룹 9433" transform="translate(19.819 36.512)">
            <g id="prefix__그룹_9432" data-name="그룹 9432">
                <path id="prefix__패스_13920" d="M256.608 339.107a.809.809 0 00-1.137.124 11.113 11.113 0 01-8.7 4.172.809.809 0 100 1.618 12.723 12.723 0 009.962-4.777.809.809 0 00-.125-1.137z" class="prefix__cls-1" data-name="패스 13920" transform="translate(-245.961 -338.929)"/>
            </g>
        </g>
        <g id="prefix__그룹_9435" data-name="그룹 9435" transform="translate(30.728 34.036)">
            <g id="prefix__그룹_9434" data-name="그룹 9434">
                <circle id="prefix__타원_898" cx=".822" cy=".822" r=".822" class="prefix__cls-1" data-name="타원 898"/>
            </g>
        </g>
        <g id="prefix__그룹_9437" data-name="그룹 9437" transform="translate(9.373 30.548)">
            <g id="prefix__그룹_9436" data-name="그룹 9436">
                <path id="prefix__패스_13921" d="M126 270.514l-5.481-5.481c-.236-.236-.616-.059-.885.211s-.447.649-.211.885l3.39 3.39L118.04 268c-.759-.236-1-.16-1.4.236-.278.278-.439.658-.2.894l5.473 5.473c.228.228.616.076.894-.2s.43-.666.2-.894l-3.39-3.39 5.2 1.577a.931.931 0 00.978-.287c.273-.271.433-.667.205-.895z" class="prefix__cls-1" data-name="패스 13921" transform="translate(-116.323 -264.923)"/>
            </g>
        </g>
        <g id="prefix__그룹_9439" data-name="그룹 9439" transform="translate(14.468 25.703)">
            <g id="prefix__그룹_9438" data-name="그룹 9438">
                <path id="prefix__패스_13922" d="M188.84 210.257c-.261-.261-.615-.363-.835-.143l-2.386 2.386-1.7-1.695 1.282-1.282a.54.54 0 00-.076-.767.551.551 0 00-.784-.093l-1.282 1.282-1.687-1.687 2.386-2.386c.219-.219.118-.573-.143-.835-.228-.228-.582-.363-.818-.127l-3 3c-.244.245-.363.6-.135.826l5.473 5.473c.228.228.582.11.826-.135l3-3c.239-.235.106-.589-.121-.817z" class="prefix__cls-1" data-name="패스 13922" transform="translate(-179.543 -204.787)"/>
            </g>
        </g>
        <g id="prefix__그룹_9441" data-name="그룹 9441" transform="translate(18.611 18.304)">
            <g id="prefix__그룹_9440" data-name="그룹 9440">
                <path id="prefix__패스_13923" d="M242.087 120.169l-3.634-6.974a.511.511 0 00-.084-.118c-.245-.245-.826-.051-1.138.261a.471.471 0 00-.143.582l3.238 5.9-3.651-2.218a.883.883 0 00-1.071 1.071l2.218 3.651-5.9-3.238a.471.471 0 00-.582.143c-.312.312-.506.894-.261 1.138a.512.512 0 00.118.084l6.974 3.634a.994.994 0 001.088-.346c.312-.312.523-.759.329-1.071l-1.729-2.825 2.816 1.737c.312.194.759-.017 1.071-.329a1 1 0 00.341-1.082z" class="prefix__cls-1" data-name="패스 13923" transform="translate(-230.964 -112.967)"/>
            </g>
        </g>
    </g>
</svg>
