<svg xmlns="http://www.w3.org/2000/svg" width="20" height="20" viewBox="0 0 20 20">
    <defs>
        <style>
            .prefix__cls-2{fill:#fff}
        </style>
    </defs>
    <g id="prefix__ic_purchase" transform="translate(11095.139 10002.139)">
        <g id="prefix__사각형_4614" data-name="사각형 4614" style="stroke:#707070;opacity:0;fill:#fff">
            <path d="M0 0H20V20H0z" style="stroke:none" transform="translate(-11095.139 -10002.139)"/>
            <path d="M0.5 0.5H19.5V19.5H0.5z" style="fill:none" transform="translate(-11095.139 -10002.139)"/>
        </g>
        <g id="prefix__buy" transform="translate(-11093.859 -10000.659)">
            <g id="prefix__그룹_9819" data-name="그룹 9819">
                <g id="prefix__그룹_9818" data-name="그룹 9818">
                    <circle id="prefix__타원_937" cx="2.11" cy="2.11" r="2.11" class="prefix__cls-2" data-name="타원 937" transform="translate(4.055 12.822)"/>
                    <path id="prefix__패스_14094" d="M266.944 324.187a2.13 2.13 0 1 0 1.911 1.911 2.13 2.13 0 0 0-1.911-1.911z" class="prefix__cls-2" data-name="패스 14094" transform="translate(-254.02 -311.385)"/>
                    <path id="prefix__패스_14095" d="M17.266 9.2a.553.553 0 0 0-.471-.246H14.46v-.04a4.486 4.486 0 1 0-8.971 0v.041H3.748l-.594-2.7a.614.614 0 0 0-.594-.475H0v1.229h2.069l1.9 8.746a.594.594 0 0 0 .594.492h10.716a.614.614 0 0 0 .594-.471l1.516-6.063a.573.573 0 0 0-.123-.513zm-7.291 2.97a3.257 3.257 0 1 1 3.257-3.257 3.257 3.257 0 0 1-3.257 3.257z" class="prefix__cls-2" data-name="패스 14095" transform="translate(0 -4.428)"/>
                    <path id="prefix__패스_14096" d="M188.887 69.44l-1.126-1.147-.881.86 1.557 1.577a.615.615 0 0 0 .43.184.573.573 0 0 0 .43-.164l2.581-2.437-.84-.9z" class="prefix__cls-2" data-name="패스 14096" transform="translate(-179.404 -64.892)"/>
                </g>
            </g>
        </g>
    </g>
</svg>
