<svg xmlns="http://www.w3.org/2000/svg" width="23.448" height="27.253" viewBox="0 0 23.448 27.253">
    <g data-name="notification (1)">
        <g data-name="그룹 7920">
            <g data-name="그룹 7919">
                <path d="M23.365 19.633l-2.014-3.355a9.973 9.973 0 01-1.42-5.128V8.207a8.207 8.207 0 00-16.413 0v2.939a9.973 9.973 0 01-1.42 5.128L.084 19.633a.586.586 0 00.5.888h22.278a.586.586 0 00.5-.888zm-21.743-.285l1.481-2.468a11.135 11.135 0 001.587-5.73V8.207a7.034 7.034 0 1114.068 0v2.939a11.145 11.145 0 001.585 5.73l1.482 2.468z" data-name="패스 10782" transform="translate(-42.657 -1) translate(42.657 4.22)"/>
            </g>
        </g>
        <g data-name="그룹 7922">
            <g data-name="그룹 7921">
                <path d="M2.345 0A2.178 2.178 0 000 1.952V3.9a.6.6 0 001.172 0V1.952a1.192 1.192 0 012.345 0V3.9a.6.6 0 001.172 0V1.952A2.178 2.178 0 002.345 0z" data-name="패스 10783" transform="translate(-42.657 -1) translate(52.037 1)"/>
            </g>
        </g>
        <g data-name="그룹 7924">
            <g data-name="그룹 7923">
                <path d="M5.468.288a.587.587 0 10-1.013.593 1.759 1.759 0 11-3.046 0A.587.587 0 10.396.288a2.932 2.932 0 105.072 0z" data-name="패스 10784" transform="translate(-42.657 -1) translate(51.451 23.564)"/>
            </g>
        </g>
    </g>
</svg>
