<svg xmlns="http://www.w3.org/2000/svg" width="15" height="15" viewBox="0 0 15 15">
    <g id="prefix__reload_1_" data-name="reload (1)" transform="rotate(180 7.5 7.5)">
        <g id="prefix__그룹_9571" data-name="그룹 9571">
            <path id="prefix__사각형_4529" d="M0 0H15V15H0z" data-name="사각형 4529" transform="rotate(180 7.5 7.5)" style="fill:#fff;opacity:0"/>
            <path id="prefix__패스_13965" d="M8.153 3.024H1.925L4.238.711 3.527 0 0 3.527l3.527 3.527.711-.711L1.925 4.03h6.228a3.725 3.725 0 0 1 3.721 3.721 3.824 3.824 0 0 1-.9 2.3l-.312.394.789.624.312-.394a4.813 4.813 0 0 0 1.117-2.924 4.732 4.732 0 0 0-4.727-4.727z" data-name="패스 13965" transform="translate(.951 2.141)" style="fill:#929eb5"/>
        </g>
    </g>
</svg>
