<svg xmlns="http://www.w3.org/2000/svg" width="11.383" height="11.383" viewBox="0 0 11.383 11.383">
    <defs>
        <style>
            .prefix__cls-1{fill:#24855b}
        </style>
    </defs>
    <g id="prefix__store">
        <g id="prefix__그룹_9391" data-name="그룹 9391">
            <g id="prefix__그룹_9390" data-name="그룹 9390">
                <path id="prefix__패스_13789" d="M11.3 66.089l-.973-1.946a.259.259 0 00-.234-.143h-8.8a.259.259 0 00-.233.145s-.734 1.5-.964 1.943a.753.753 0 00-.096.421 1.8 1.8 0 001.8 1.634 1.782 1.782 0 001.06-.343 1.805 1.805 0 002.83.314 1.805 1.805 0 002.83-.314 1.781 1.781 0 001.054.341A1.8 1.8 0 0011.38 66.5a.76.76 0 00-.08-.411z" class="prefix__cls-1" data-name="패스 13789" transform="translate(0 -62.448)"/>
                <path id="prefix__패스_13790" d="M44.864 1.035h8.7a.259.259 0 00.244-.345 1.036 1.036 0 00-.972-.69h-7.243a1.036 1.036 0 00-.972.689.259.259 0 00.244.345z" class="prefix__cls-1" data-name="패스 13790" transform="translate(-43.524)"/>
                <path id="prefix__패스_13791" d="M51.885 249.635a.258.258 0 00-.215-.053 2.323 2.323 0 01-1.239-.088.258.258 0 00-.26.051 2.366 2.366 0 01-2.717.289.258.258 0 00-.259 0 2.367 2.367 0 01-2.717-.289.259.259 0 00-.26-.051 2.32 2.32 0 01-1.239.088.262.262 0 00-.215.053.259.259 0 00-.1.2v3.933A1.036 1.036 0 0043.7 254.8h3.363a.259.259 0 00.259-.259v-3.355a.259.259 0 01.259-.259l2.595.008a.259.259 0 01.259.259v3.355a.259.259 0 00.259.259l.25-.008a1.036 1.036 0 001.035-1.035v-3.933a.259.259 0 00-.094-.197zm-5.6 3.1a.259.259 0 01-.259.259h-1.548a.259.259 0 01-.259-.259v-1.552a.259.259 0 01.259-.259h1.552a.259.259 0 01.259.259z" class="prefix__cls-1" data-name="패스 13791" transform="translate(-41.632 -243.428)"/>
            </g>
        </g>
    </g>
</svg>
