<svg xmlns="http://www.w3.org/2000/svg" width="32" height="32" viewBox="0 0 32 32">
    <defs>
        <clipPath id="prefix__clip-path">
            <path id="prefix__사각형_4269" d="M0 0H32V32H0z" data-name="사각형 4269" transform="translate(.495)" style="fill:#fff"/>
        </clipPath>
    </defs>
    <g id="prefix__마스크_그룹_12" data-name="마스크 그룹 12" transform="translate(-.495)">
        <g id="prefix___002-tomato" data-name="002-tomato" transform="translate(1.625)">
            <path id="prefix__패스_10992" d="M27.121 12.706a13.594 13.594 0 00-3.694-4.1 6.974 6.974 0 001.781-2.629.625.625 0 00-1.129-.52 1.7 1.7 0 01-1.467.763 2.977 2.977 0 01-1.212-.29 9.732 9.732 0 00-5.4-.573h-.362C15.1 4.059 13.418.384 11.522.035a1.5 1.5 0 00-1.6.605 2.773 2.773 0 00.278 2.906c.268.4.6.971.986 1.674A9.251 9.251 0 007 5.93c-1.834.819-2.6-.336-2.677-.471a.625.625 0 00-1.135.5 8.088 8.088 0 001.784 2.966 13.514 13.514 0 00-3.427 4.042 12.13 12.13 0 00-1.514 5.881 12.528 12.528 0 004.231 9.32A14.987 14.987 0 0014.406 32a14.987 14.987 0 0010.144-3.832 12.528 12.528 0 004.231-9.32 12.294 12.294 0 00-1.661-6.143zM7.508 7.071a8.421 8.421 0 014.34-.534l.067.154.693 1.588a.625.625 0 001.151-.489c-.172-.416-.473-1.1-.694-1.6l-.184-.413a.277.277 0 00-.012-.026.6.6 0 00-.028-.064 30.821 30.821 0 00-1.606-2.835 1.681 1.681 0 01-.272-1.524c.022-.033.074-.112.333-.064.854.158 2.354 2.375 3.343 4.943a.625.625 0 00.583.4h.845a.652.652 0 00.131-.014 8.512 8.512 0 011.563-.133 7.751 7.751 0 013.129.611 4.074 4.074 0 001.916.4 5.058 5.058 0 01-.778.659 5.555 5.555 0 01-4.829.521.625.625 0 00-.741.855 2.3 2.3 0 00.529.642 6 6 0 011.676 2.552 4.8 4.8 0 00-1.651-.329 2.562 2.562 0 01-.505-.058l-.061-.021c-1.409-.5-1.619-.949-1.619-1.174a.628.628 0 00-1.256 0c0 .537-1.582 1.513-2.228 1.743-.074.027-.152.052-.234.079a5.2 5.2 0 00-1.306.584 8.15 8.15 0 011.677-2.763 2.934 2.934 0 00.459-.625.625.625 0 00-.571-.879.617.617 0 00-.17.024 5.087 5.087 0 01-4.858-.79 5.831 5.831 0 01-.981-1.041 3.934 3.934 0 002.149-.379zm6.9 23.679c-7.237 0-13.125-5.339-13.125-11.9A11.423 11.423 0 015.94 9.754a5.927 5.927 0 002.971 1.028 6.912 6.912 0 00.946 0 7.968 7.968 0 00-1.622 4.4.625.625 0 00.914.584l.057-.034a.653.653 0 00.128-.115 4.114 4.114 0 012.166-1.493c.093-.03.18-.059.269-.09a7.821 7.821 0 002.431-1.577 5.183 5.183 0 001.834 1.009l.056.02a3.121 3.121 0 00.849.128 2.64 2.64 0 012.128.9.625.625 0 001.1-.436 6.624 6.624 0 00-1.444-3.894 6.451 6.451 0 002.912-.433 5.809 5.809 0 00.738-.365 12.4 12.4 0 013.669 3.944 11.045 11.045 0 011.492 5.517c0 6.563-5.888 11.9-13.125 11.9zm0 0" data-name="패스 10992" transform="translate(-.031)"/>
            <path id="prefix__패스_10993" d="M14.406 29.495C8 29.495 2.781 24.719 2.781 18.848a.625.625 0 011.25 0c0 5.181 4.654 9.4 10.375 9.4a.625.625 0 010 1.25zm0 0" data-name="패스 10993" transform="translate(-.031)"/>
            <path id="prefix__패스_10994" d="M16.99 29.22a.625.625 0 010-1.25.625.625 0 110 1.25zm0 0" data-name="패스 10994" transform="translate(-.031)"/>
        </g>
    </g>
</svg>
